DBRep_DrawableShape

CASCADE Topology V1, (c) Matra-Datavision
Locations 0
Curve2ds 72
1 0 0 0 1 
1 0 0 1 0 
1 0 0 1 0 
1 0 0 1 0 
1 -150 2923.188542521314 1 0 
1 4.4534674383784685 0 0 1 
1 2500 0 0 1 
1 0 0 1 0 
7 0 0  8 23 4  125 2923.188542521314  126.81386664682492 2923.1885432297499  128.54142902996574 2923.7759526074483  130.16355237019718 2924.853088671483  131.66905595308958 2926.3368183316306  133.05498945896858 2928.1540840360235  134.32594264302247 2930.2457385685575  135.49241238409707 2932.5766281499127  137.34819618500336 2937.015369043811  138.07477041943429 2938.994525291424  138.7495601643372 2941.0735798507071  139.37433734918244 2943.2398822836803  139.95110771771039 2945.4817445264389  140.48210109559204 2947.7884315197139  140.96970370062184 2950.150282544128  142.44093825081399 2958.0846887688926  143.24737346406374 2963.8431108079708  143.8706073714477 2969.7521048347621  144.33806588710769 2975.7502278741772  144.67303454130371 2981.7926132858897  144.89071163323655 2987.8525389468377  144.99999954394644 2993.919286015232  145 3000 
 0 9 0.29515090241633379 7 0.50912487614009105 7 1 9
7 0 0  8 23 4  1.3118747847886754 0  1.3118747870714136 0.072554665872997554  1.3137675506056843 0.14165722965658403  1.3172383241776768 0.20712387086816322  1.3220298466955882 0.2688579813319823  1.3279191974774256 0.32686408183593318  1.3347257721334624 0.38130220642438245  1.3423440316651147 0.43252906708844552  1.3569210882936098 0.51626444839594332  1.3634399244624482 0.54978719535333176  1.3703095133105263 0.58165605535920639  1.3774910353358152 0.61187601274712078  1.3849479538806675 0.64044964453065978  1.3926459772451942 0.66738237795981403  1.4005535481656146 0.69268489441533732  1.4272004553141839 0.77071454330002565  1.4466683105175324 0.81642366232676922  1.4667716801056088 0.85396620587480776  1.4872882657668955 0.883564064349869  1.5080403296231288 0.90549686453268274  1.5289085298984377 0.92000947565337565  1.5498283475370767 0.92729518759804153  1.5707963267948966 0.92729521800161152 
 0 9 0.29515090241633379 7 0.50912487614009105 7 1 9
1 0 10000 1 0 
1 0 0 1 0 
7 0 0  7 20 4  145 3000  144.99999949971345 3006.6704874781726  144.86577498859361 3013.3260812115868  144.59820308505596 3019.9739207884004  144.18294324638748 3026.5939888230637  143.59331819765805 3033.137805748227  142.7931878963991 3039.5306463006286  141.21033674696201 3048.6991619264004  140.62366536263676 3051.6669106344857  139.96923363600251 3054.5515208303709  139.24200123510661 3057.3330625610956  138.43743969358599 3059.9887746769928  137.55171787229904 3062.4933282933057  135.35143995209654 3067.7662056014624  133.99995646889772 3070.3909446469106  132.50508730393307 3072.6966206894676  130.85144718623883 3074.6115845759759  129.03704967070479 3076.0256097827578  127.07647734758859 3076.8114566676832  125 3076.811457478686 
 0 8 0.47122729718139056 6 0.7043809557369296 6 1 8
7 0 0  7 20 4  0 0.92729521800161152  0.023001680959216644 0.92729518464917426  0.045952012791622053 0.9183458782775572  0.06883579620290943 0.90051303738940958  0.091545286945823368 0.87348780575379759  0.11387449745963137 0.83687059994509283  0.13554191696181989 0.79037472176045287  0.16639255668464417 0.70515246592734115  0.17634025753592947 0.67440209137315477  0.18596973333158653 0.64107391398898528  0.1952155978064026 0.60514465571507459  0.20400554094891246 0.56660818856749628  0.21226141572263132 0.52546142254635686  0.22957862895851164 0.4261509096967856  0.23814992642241251 0.36703114267777442  0.24564125671287046 0.30347822640979943  0.25183305715808452 0.23499333121129923  0.25638936660297029 0.16148208841433204  0.25892153939298967 0.083059093903544698  0.25892154200622147 0 
 0 8 0.47122729718139056 6 0.7043809557369296 6 1 8
1 0 0 0 1 
1 0 0 1 0 
1 -150 3076.811457478686 1 0 
1 4.9713105223909109 0 0 1 
1 0 0 0 1 
1 0 0 0 -1 
2 3000 290 1 0 -0 1 300
1 0 150 1 0 
1 0 2500 1 0 
1 0 0 0 1 
2 3000 290 1 0 -0 1 300
1 0 150 1 0 
1 10000 0 0 1 
1 0 0 0 -1 
2 3000 290 1 0 -0 1 300
1 0 150 1 0 
2 3000 290 1 0 -0 1 300
1 0 150 1 0 
1 2500 0 0 -1 
1 0 0 0 1 
1 0 -2500 1 0 
1 0 0 1 0 
1 3.1415926535897931 0 0 1 
1 3.1415926535897931 0 0 1 
1 3.1415926535897931 275 1 0 
1 0 0 1 0 
1 0 2500 1 0 
1 2500 0 0 1 
1 10000 0 0 1 
1 2500 0 0 -1 
8 0 1.5707963267948966
1 0 0 0 1 
8 0 1.5707963267948966
1 1.5707963267948966 0 0 1 
1 0 1.5707963267948966 1 0 
2 0 0 -1 1.2246467991473532e-016 -1.2246467991473532e-016 -1 275
8 0 1.5707963267948966
1 1.5707963267948966 0 0 1 
8 0 1.5707963267948966
1 0 0 0 1 
1 0 -2500 1 0 
1 0 10000 1 0 
1 0 1.5707963267948966 1 0 
2 0 0 -1.8369701987210297e-016 -1 1 -1.8369701987210297e-016 275
1 0 0 1 0 
1 4.7123889803846897 275 1 0 
8 0 1.5707963267948966
1 1.5707963267948966 0 0 1 
8 0 1.5707963267948966
1 0 0 0 1 
1 6.2831853071795862 -0 0 1 
1 0 -0 0 1 
1 1.5707963267948966 0 0 1 
1 1.5707963267948966 0 0 1 
1 1.5707963267948966 275 1 0 
1 0 0 1 0 
1 0 275 1 0 
1 0 0 1 0 
8 0 1.5707963267948966
1 0 0 0 1 
8 0 1.5707963267948966
1 1.5707963267948966 0 0 1 
1 0 1.5707963267948966 1 0 
2 0 0 6.123233995736766e-017 1 -1 6.123233995736766e-017 275
2 0 0 1 0 -0 1 275
1 0 1.5707963267948966 1 0 
Curves 36
1 -3000 -290 150 1 0 0 
1 -3000 -290 150 0 0 1 
1 -76.81145747868608 -290 0 0 0 1 
1 -3000 -290 2650 1 0 0 
7 0 0  8 23 4  -76.811457478686123 -289.99999999999994 275  -76.81145677025016 -289.99999999999994 276.81386664682492  -76.224047392551753 -289.99999999999994 278.54142902996574  -75.146911328517049 -290.00000000000011 280.16355237019718  -73.663181668369589 -290 281.66905595308958  -71.845915963976537 -289.99999999999983 283.05498945896858  -69.75426143144233 -290 284.32594264302247  -67.423371850087221 -289.99999999999994 285.49241238409707  -62.984630956188958 -289.99999999999994 287.34819618500336  -61.005474708576124 -290 288.07477041943429  -58.926420149293101 -289.99999999999989 288.7495601643372  -56.760117716319506 -289.99999999999989 289.37433734918244  -54.51825547356097 -290 289.95110771771039  -52.211568480286225 -290.00000000000011 290.48210109559204  -49.849717455871996 -289.99999999999994 290.96970370062184  -41.915311231107225 -289.99999999999994 292.44093825081399  -36.156889192029169 -290.0000000000004 293.24737346406374  -30.247895165237779 -289.99999999999847 293.8706073714477  -24.249772125822972 -290.00000000000267 294.33806588710769  -18.20738671411037 -289.99999999999744 294.67303454130371  -12.147461053162431 -290.00000000000102 294.89071163323655  -6.0807139847678826 -289.99999999999994 294.99999954394644  -2.8421709430404007e-014 -289.99999999999994 295 
 0 9 0.29515090241633379 7 0.50912487614009105 7 1 9
1 7000 -290 150 0 0 1 
7 0 0  7 20 4  -5.3272135762909859e-014 -290 295  6.6704874781728396 -290 294.99999949971345  13.326081211586668 -289.99999999999994 294.86577498859361  19.973920788400505 -290.00000000000051 294.59820308505596  26.593988823063736 -289.99999999999932 294.18294324638748  33.137805748226903 -290.0000000000004 293.59331819765805  39.530646300628689 -289.99999999999994 292.7931878963991  48.699161926400492 -289.99999999999994 291.21033674696201  51.666910634485703 -290 290.62366536263676  54.551520830371068 -290 289.96923363600251  57.333062561095439 -289.99999999999994 289.24200123510661  59.98877467699274 -290 288.43743969358599  62.493328293305865 -290 287.55171787229904  67.766205601462318 -290 285.35143995209654  70.390944646910782 -289.99999999999994 283.99995646889772  72.696620689467466 -290.00000000000023 282.50508730393307  74.611584575975883 -289.99999999999972 280.85144718623883  76.02560978275794 -290.00000000000023 279.03704967070479  76.811456667683117 -289.99999999999994 277.07647734758859  76.81145747868608 -289.99999999999994 275 
 0 8 0.47122729718139056 6 0.7043809557369296 6 1 8
1 -3000 -290 150 1 0 0 
1 76.81145747868608 -290 0 0 0 1 
1 -3000 -290 150 0 1 0 
8 3.1415926535897931 4.4534674383784676
2 0 0 150 0 0 1 1 0 -0 -0 1 0 300
1 -3000 2210 150 1 0 0 
8 1.5707963267948966 3.1415926535897931
2 0 0 150 0 0 1 1 0 -0 -0 1 0 300
1 7000 -290 150 0 1 0 
8 0 1.5707963267948966
2 0 0 150 0 0 1 1 0 -0 -0 1 0 300
8 4.9713105223909118 6.2831853071795862
2 0 0 150 0 0 1 1 0 -0 -0 1 0 300
1 -3000 -290 2650 0 1 0 
1 -3000 2210 150 0 0 1 
7 0 0  1 2 2  -300 3.6739403974420595e-014 0  -300 3.6739403974420595e-014 300 
 0 2 300 2
2 0 0 275 0 0 1 -1 1.2246467991473532e-016 0 -1.2246467991473532e-016 -1 0 300
1 -3000 2210 2650 1 0 0 
1 7000 -290 2650 0 1 0 
2 -275 3.3677786976552216e-014 275 1.2246467991473532e-016 1 -0 -1 1.2246467991473532e-016 0 0 0 1 25
2 0 0 300 0 0 1 -1 1.2246467991473532e-016 0 -1.2246467991473532e-016 -1 0 275
2 -5.0516680464828318e-014 -275 275 -1 1.8369701987210297e-016 0 -1.8369701987210297e-016 -1 0 0 0 1 25
1 7000 2210 150 0 0 1 
2 0 0 300 0 0 1 -1.8369701987210297e-016 -1 0 1 -1.8369701987210297e-016 0 275
2 0 0 275 0 0 1 -1.8369701987210297e-016 -1 0 1 -1.8369701987210297e-016 0 300
2 275 0 275 0 -1 0 1 0 0 -0 0 1 25
1 300 -7.347880794884119e-014 0 0 0 1 
7 0 0  1 2 2  1.8369701987210297e-014 300 0  1.8369701987210297e-014 300 300 
 0 2 300 2
2 0 0 275 0 0 1 6.123233995736766e-017 1 -0 -1 6.123233995736766e-017 0 300
2 0 0 275 0 0 1 1 0 -0 -0 1 0 300
2 1.6838893488276108e-014 275 275 1 -6.123233995736766e-017 0 6.123233995736766e-017 1 0 -0 0 1 25
2 0 0 300 0 0 1 6.123233995736766e-017 1 -0 -1 6.123233995736766e-017 0 275
2 0 0 300 0 0 1 1 0 -0 -0 1 0 275
Polygon3D 0
PolygonOnTriangulations 0
Surfaces 15
1 -3000 -290 150 0 1 0 0 0 1 1 0 0 
1 -3000 -290 150 0 0 1 1 0 0 0 1 0 
1 -3000 -290 150 1 0 0 0 0 1 0 -1 0 
10 3.1415926535897931 4.7123889803846897 0 300
2 0 0 0 0 0 1 1 0 -0 -0 1 0 300
1 -3000 -290 2650 0 0 1 1 0 0 0 1 0 
5 0 0 275 0 0 1 -1 1.2246467991473532e-016 0 -1.2246467991473532e-016 -1 0 275 25
1 7000 -290 150 1 0 0 0 0 1 0 -1 0 
5 0 0 275 0 0 1 -1.8369701987210297e-016 -1 0 1 -1.8369701987210297e-016 0 275 25
10 4.7123889803846897 6.2831853071795862 0 300
2 0 0 0 0 0 1 1 0 -0 -0 1 0 300
1 -3000 2210 150 0 1 0 0 0 1 1 0 0 
10 1.5707963267948966 3.1415926535897931 0 300
2 0 0 0 0 0 1 1 0 -0 -0 1 0 300
10 0 1.5707963267948966 0 300
2 0 0 0 0 0 1 1 0 -0 -0 1 0 300
5 0 0 275 0 0 1 6.123233995736766e-017 1 -0 -1 6.123233995736766e-017 0 275 25
1 0 0 300 0 0 1 1 0 -0 -0 1 0 
5 0 0 275 0 0 1 1 0 -0 -0 1 0 275 25
Triangulations 0

TShapes 92
Ve
1e-007
-3000 -290 150
0 0

0101101
*
Ve
2e-007
-76.8114574786864 -290 150
0 0

0101101
*
Ed
 1e-007 1 1 0
1  1 0 0 2923.18854252131
2  1 1 0 0 2923.18854252131
2  2 2 0 0 2923.18854252131
0

0101000
+92 0 -91 0 *
Ve
1e-007
-3000 -290 2650
0 0

0101101
*
Ed
 1e-007 1 1 0
1  2 0 0 2500
2  3 1 0 0 2500
2  4 3 0 0 2500
0

0101000
-89 0 +92 0 *
Ve
3.62077837321409e-007
-76.8114574786861 -290 275
0 0

0101101
*
Ed
 1e-007 1 1 0
1  3 0 150 275
2  5 1 0 150 275
2  6 4 0 150 275
0

0101000
+91 0 -87 0 *
Ve
1e-007
7000 -290 2650
0 0

0101101
*
Ed
 1e-007 1 1 0
1  4 0 0 10000
2  7 1 0 0 10000
2  8 5 0 0 10000
0

0101000
-85 0 +89 0 *
Ve
1.05750820700233e-006
-3.55147571752732e-014 -290 295
0 0

0101101
*
Ed
 3.62077837321409e-007 1 1 0
1  5 0 0 1
2  9 1 0 0 1
2  10 6 0 0 1
0

0101000
+87 0 -83 0 *
Ve
1e-007
7000 -290 150
0 0

0101101
*
Ed
 1e-007 1 1 0
1  6 0 0 2500
2  11 1 0 0 2500
2  12 7 0 0 2500
0

0101000
-85 0 +81 0 *
Ve
1.05750820700233e-006
76.811457478686 -290 275
0 0

0101101
*
Ed
 1.05750820700233e-006 1 1 0
1  7 0 0 1
2  13 1 0 0 1
2  14 8 0 0 1
0

0101000
+83 0 -79 0 *
Ve
2e-007
76.8114574786864 -290 150
0 0

0101101
*
Ed
 1e-007 1 1 0
1  8 0 3076.81145747869 10000
2  15 1 0 3076.81145747869 10000
2  16 2 0 3076.81145747869 10000
0

0101000
+77 0 -81 0 *
Ed
 1e-007 1 1 0
1  9 0 150 275
2  17 1 0 150 275
2  18 9 0 150 275
0

0101000
+77 0 -79 0 *
Wi

0101000
-90 0 +88 0 -86 0 +84 0 -82 0 -80 0 -78 0 -76 0 +75 0 *
Fa
0  1e-007 1 0

0111000
+74 0 *
Ve
1e-007
-3000 2210 150
0 0

0101101
*
Ed
 1e-007 1 1 0
1  10 0 0 2500
2  19 2 0 0 2500
2  20 3 0 0 2500
0

0101000
-72 0 +92 0 *
Ve
1e-005
-300 3.67394039744206e-014 150
0 0

0101101
*
Ed
 1e-007 1 1 0
1  11 0 3.14159265358979 4.45346743837847
2  21 2 0 3.14159265358979 4.45346743837847
2  22 4 0 3.14159265358979 4.45346743837847
0

0101000
+70 0 -91 0 *
Ve
1e-007
7000 2210 150
0 0

0101101
*
Ed
 1e-007 1 1 0
1  12 0 0 10000
2  23 2 0 0 10000
2  24 10 0 0 10000
0

0101000
-68 0 +72 0 *
Ve
1e-005
1.83697019872103e-014 300 150
0 0

0101101
*
Ed
 1e-007 1 1 0
1  13 0 1.5707963267949 3.14159265358979
2  25 2 0 1.5707963267949 3.14159265358979
2  26 11 0 1.5707963267949 3.14159265358979
0

0101000
+66 0 -70 0 *
Ed
 1e-007 1 1 0
1  14 0 0 2500
2  27 2 0 0 2500
2  28 7 0 0 2500
0

0101000
-68 0 +81 0 *
Ve
2e-007
300 -7.34788079488412e-014 150
0 0

0101101
*
Ed
 1e-007 1 1 0
1  15 0 0 1.5707963267949
2  29 2 0 0 1.5707963267949
2  30 12 0 0 1.5707963267949
0

0101000
+63 0 -66 0 *
Ed
 1e-007 1 1 0
1  16 0 4.97131052239091 6.28318530717959
2  31 2 0 4.97131052239091 6.28318530717959
2  32 9 0 4.97131052239091 6.28318530717959
0

0101000
+77 0 -63 0 *
Wi

0101000
+90 0 -71 0 -69 0 -67 0 -65 0 +64 0 -62 0 +76 0 -61 0 *
Fa
0  1e-007 2 0

0111000
+60 0 *
Ve
1e-007
-3000 2210 2650
0 0

0101101
*
Ed
 1e-007 1 1 0
1  17 0 0 2500
2  33 3 0 0 2500
2  34 5 0 0 2500
0

0101000
-58 0 +89 0 *
Ed
 1e-007 1 1 0
1  18 0 0 2500
2  35 3 0 0 2500
2  36 10 0 0 2500
0

0101000
-58 0 +72 0 *
Wi

0101000
-88 0 -57 0 +56 0 +71 0 *
Fa
0  1e-007 3 0

0111000
+55 0 *
Ve
1e-005
-300 1.83697019872103e-014 275
0 0

0101101
*
Ed
 1e-005 1 1 0
1  19 0 150 275
2  37 4 0 150 275
2  38 11 0 150 275
0

0101000
+70 0 -53 0 *
Ed
 1e-007 1 1 0
1  20 0 0 1.31187478478868
2  39 4 0 0 1.31187478478868
2  40 6 0 0 1.31187478478868
0

0101000
+53 0 -87 0 *
Wi

0101000
-52 0 +69 0 -51 0 +86 0 *
Fa
0  1e-007 4 0

0111000
+50 0 *
Ve
1e-007
7000 2210 2650
0 0

0101101
*
Ed
 1e-007 1 1 0
1  21 0 0 10000
2  41 5 0 0 10000
2  42 10 0 0 10000
0

0101000
-48 0 +58 0 *
Ed
 1e-007 1 1 0
1  22 0 0 2500
2  43 5 0 0 2500
2  44 7 0 0 2500
0

0101000
-48 0 +85 0 *
Wi

0101000
-57 0 -47 0 +46 0 +84 0 *
Fa
0  1e-007 5 0

0111000
+45 0 *
Ve
1e-007
-275 1.68388934882761e-014 300
0 0

0101101
*
Ed
 1e-007 1 1 0
1  23 0 0 1.5707963267949
2  45 6 0 0 1.5707963267949
2  46 13 0 0 1.5707963267949
0

0101000
+53 0 -43 0 *
Ve
1e-007
-3.36777869765522e-014 -275 300
0 0

0101101
*
Ed
 1e-007 1 1 0
1  24 0 0 1.5707963267949
2  47 6 0 0 1.5707963267949
2  48 14 0 0 1.5707963267949
0

0101000
+43 0 -41 0 *
Ed
 1e-007 1 1 0
1  25 0 0.927295218001612 1.5707963267949
2  49 6 0 0.927295218001612 1.5707963267949
2  50 8 0 0.927295218001612 1.5707963267949
0

0101000
+83 0 -41 0 *
Wi

0101000
+51 0 -42 0 +82 0 -40 0 +39 0 *
Fa
0  1e-007 6 0

0111000
+38 0 *
Ed
 1e-007 1 1 0
1  26 0 0 2500
2  51 7 0 0 2500
2  52 10 0 0 2500
0

0101000
-48 0 +68 0 *
Wi

0101000
-80 0 -46 0 +36 0 +64 0 *
Fa
0  1e-007 7 0

0111000
+35 0 *
Ve
1e-007
275 0 300
0 0

0101101
*
Ed
 1e-007 1 1 0
1  27 0 0 1.5707963267949
2  53 8 0 0 1.5707963267949
2  54 14 0 0 1.5707963267949
0

0101000
+41 0 -33 0 *
Ve
1e-007
300 0 275
0 0

0101101
*
Ed
 1e-007 1 1 0
1  28 0 0.258921542006221 1.5707963267949
2  55 8 0 0.258921542006221 1.5707963267949
2  56 9 0 0.258921542006221 1.5707963267949
0

0101000
+79 0 -31 0 *
Ed
 1e-007 1 1 0
1  29 0 0 1.5707963267949
2  57 8 0 0 1.5707963267949
2  58 15 0 0 1.5707963267949
0

0101000
+31 0 -33 0 *
Wi

0101000
-39 0 +78 0 -32 0 +30 0 +29 0 *
Fa
0  1e-007 8 0

0111000
+28 0 *
Ed
 1e-007 1 1 0
1  30 0 150 275
2  59 9 0 150 275
2  60 12 0 150 275
0

0101000
+63 0 -31 0 *
Wi

0101000
+26 0 +61 0 -30 0 -75 0 *
Fa
0  1e-007 9 0

0111000
+25 0 *
Wi

0101000
-67 0 -36 0 +47 0 +56 0 *
Fa
0  1e-007 10 0

0111000
+23 0 *
Ve
1e-005
0 300 275
0 0

0101101
*
Ed
 1e-005 1 1 0
1  31 0 150 275
2  61 11 0 150 275
2  62 12 0 150 275
0

0101000
+66 0 -21 0 *
Ed
 1e-007 1 1 0
1  32 0 0 1.5707963267949
2  63 11 0 0 1.5707963267949
2  64 13 0 0 1.5707963267949
0

0101000
+21 0 -53 0 *
Wi

0101000
-20 0 +65 0 -19 0 +52 0 *
Fa
0  1e-007 11 0

0111000
+18 0 *
Ed
 1e-007 1 1 0
1  33 0 0 1.5707963267949
2  65 12 0 0 1.5707963267949
2  66 15 0 0 1.5707963267949
0

0101000
+31 0 -21 0 *
Wi

0101000
-26 0 +62 0 -16 0 +20 0 *
Fa
0  1e-007 12 0

0111000
+15 0 *
Ve
1e-007
0 275 300
0 0

0101101
*
Ed
 1e-007 1 1 0
1  34 0 0 1.5707963267949
2  67 13 0 0 1.5707963267949
2  68 15 0 0 1.5707963267949
0

0101000
+21 0 -13 0 *
Ed
 1e-007 1 1 0
1  35 0 0 1.5707963267949
2  69 13 0 0 1.5707963267949
2  70 14 0 0 1.5707963267949
0

0101000
+13 0 -43 0 *
Wi

0101000
-12 0 +19 0 -11 0 +42 0 *
Fa
0  1e-007 13 0

0111000
+10 0 *
Ed
 1e-007 1 1 0
1  36 0 0 1.5707963267949
2  71 14 0 0 1.5707963267949
2  72 15 0 0 1.5707963267949
0

0101000
+33 0 -13 0 *
Wi

0101000
+8 0 +32 0 +11 0 +40 0 *
Fa
0  1e-007 14 0

0111000
+7 0 *
Wi

0101000
-29 0 +16 0 -8 0 +12 0 *
Fa
0  1e-007 15 0

0111000
+5 0 *
Sh

0101000
-73 0 -59 0 -54 0 -49 0 +44 0 -37 0 +34 0 -27 0 -24 0 +22 0 
-17 0 -14 0 -9 0 -6 0 -4 0 *
So

0100000
+3 0 *
Co

1100000
+2 0 *

+1 0 