DBRep_DrawableShape

CASCADE Topology V1, (c) Matra-Datavision
Locations 0
Curve2ds 30
1 0 0 1 0 
1 0 2000 1 0 
1 2000 0 0 -1 
1 2000 0 0 1 
1 0 -2000 1 0 
1 0 2000 1 0 
1 0 0 0 -1 
1 2000 0 0 1 
1 0 0 0 1 
1 0 0 1 0 
1 0 0 0 1 
1 0 0 1 0 
1 2000 0 0 1 
1 0 0 1 0 
1 0 0 1 0 
1 0 0 1 0 
1 2000 0 0 -1 
1 0 0 0 1 
1 0 -2000 1 0 
1 0 0 1 0 
1 0 0 0 -1 
1 0 0 0 1 
1 0 0 0 -1 
1 0 0 0 1 
1 0 0 0 1 
1 0 2000 1 0 
1 2000 0 0 1 
1 0 2000 1 0 
7 0 0  7 14 3  1.7678543938704539e-014 400  44.831001687596483 400  90.355143591149996 394.13797369830473  135.32013360345664 382.08802014457621  178.52341958956569 363.9563841109092  218.86715304301725 340.12969410375774  255.33364284046439 311.27692520518639  319.10717710446647 245.51548299348616  346.46437690122838 208.4769223467884  368.41496247997054 168.37339936509522  384.62917456754718 126.36240415060028  395.06774508669184 83.574098309186567  399.99999659918882 41.122593365862819  399.99999999999994 -3.4106051316484824e-013 
 0 8 0.49888880136467401 6 1 8
7 0 0  7 14 3  1.7678543938704539e-014 400  44.831001687596483 400  90.355143591149996 394.13797369830473  135.32013360345664 382.08802014457621  178.52341958956569 363.9563841109092  218.86715304301725 340.12969410375774  255.33364284046439 311.27692520518639  319.10717710446647 245.51548299348616  346.46437690122838 208.4769223467884  368.41496247997054 168.37339936509522  384.62917456754718 126.36240415060028  395.06774508669184 83.574098309186567  399.99999659918882 41.122593365862819  399.99999999999994 -3.4106051316484824e-013 
 0 8 0.49888880136467401 6 1 8
Curves 15
1 2000 0 0 0 0 1 
1 2000 0 2000 0 1 0 
1 2000 2000 0 0 0 1 
1 2000 0 0 -0 1 0 
1 0 0 0 1 0 -0 
1 0 0 0 1 0 -0 
1 0 0 2000 1 0 -0 
1 0 0 0 0 0 1 
1 0 0 2000 -0 1 0 
1 0 2000 0 0 0 1 
1 0 0 0 -0 1 0 
1 0 0 0 -0 1 0 
1 0 2000 0 1 0 -0 
1 0 2000 2000 1 0 -0 
7 0 0  7 14 3  1.7678543938704539e-014 400 0  44.831001687596483 400 0  90.355143591149996 394.13797369830473 0  135.32013360345664 382.08802014457621 0  178.52341958956569 363.9563841109092 0  218.86715304301725 340.12969410375774 0  255.33364284046439 311.27692520518639 0  319.10717710446647 245.51548299348616 0  346.46437690122838 208.4769223467884 0  368.41496247997054 168.37339936509522 0  384.62917456754718 126.36240415060028 0  395.06774508669184 83.574098309186567 0  399.99999659918882 41.122593365862819 0  399.99999999999994 -3.4106051316484824e-013 0 
 0 8 0.49888880136467401 6 1 8
Polygon3D 0
PolygonOnTriangulations 0
Surfaces 7
1 2000 0 0 1 0 -0 0 0 1 0 -1 0 
1 0 0 0 -0 1 0 0 0 1 1 0 -0 
1 0 0 2000 0 0 1 1 0 -0 -0 1 0 
1 0 2000 0 -0 1 0 0 0 1 1 0 -0 
1 0 0 0 0 0 1 1 0 -0 -0 1 0 
1 0 0 0 0 0 1 1 0 -0 -0 1 0 
1 0 0 0 1 0 -0 0 0 1 0 -1 0 
Triangulations 0

TShapes 42
Ve
1.0001000025e-007
2000 0 0
0 0

0101101
*
Ve
1.0001000025e-007
2000 0 2000
0 0

0101101
*
Ed
 1.0001000025e-007 1 1 0
1  1 0 0 2000
2  1 1 0 0 2000
2  2 2 0 0 2000
0

0101000
+42 0 -41 0 *
Ve
1.0001000025e-007
2000 2000 2000
0 0

0101101
*
Ed
 1.0001000025e-007 1 1 0
1  2 0 0 2000
2  3 1 0 0 2000
2  4 3 0 0 2000
0

0101000
+41 0 -39 0 *
Ve
1.0001000025e-007
2000 2000 0
0 0

0101101
*
Ed
 1.0001000025e-007 1 1 0
1  3 0 0 2000
2  5 1 0 0 2000
2  6 4 0 0 2000
0

0101000
+37 0 -39 0 *
Ed
 1.0001000025e-007 1 1 0
1  4 0 0 2000
2  7 1 0 0 2000
2  8 5 0 0 2000
0

0101000
+42 0 -37 0 *
Wi

0101000
-40 0 -38 0 +36 0 +35 0 *
Fa
0  1e-007 1 0

0111000
+34 0 *
Ve
1.0001000025e-007
0 0 0
0 0

0101101
*
Ve
1.36922409927788e-005
400 -2.55795384873636e-013 0
0 0

0101101
*
Ed
 1.36922409927788e-005 1 1 0
1  5 0 0 400
2  9 2 0 0 400
2  10 6 0 0 400
0

0101000
+32 0 -31 0 *
Ed
 1.0001000025e-007 1 1 0
1  6 0 400 2000
2  11 2 0 400 2000
2  12 5 0 400 2000
0

0101000
+31 0 -42 0 *
Ve
1.0001000025e-007
0 0 2000
0 0

0101101
*
Ed
 1.0001000025e-007 1 1 0
1  7 0 0 2000
2  13 2 0 0 2000
2  14 3 0 0 2000
0

0101000
+28 0 -41 0 *
Ed
 1.0001000025e-007 1 1 0
1  8 0 0 2000
2  15 2 0 0 2000
2  16 7 0 0 2000
0

0101000
+32 0 -28 0 *
Wi

0101000
-30 0 -29 0 -40 0 +27 0 +26 0 *
Fa
0  1e-007 2 0

0111000
+25 0 *
Ve
1.0001000025e-007
0 2000 2000
0 0

0101101
*
Ed
 1.0001000025e-007 1 1 0
1  9 0 0 2000
2  17 7 0 0 2000
2  18 3 0 0 2000
0

0101000
+28 0 -23 0 *
Ve
1.0001000025e-007
0 2000 0
0 0

0101101
*
Ed
 1.0001000025e-007 1 1 0
1  10 0 0 2000
2  19 7 0 0 2000
2  20 4 0 0 2000
0

0101000
+21 0 -23 0 *
Ve
1.36922409119333e-005
1.32589079540284e-014 400 0
0 0

0101101
*
Ed
 1.36922409119333e-005 1 1 0
1  11 0 0 400
2  21 7 0 0 400
2  22 6 0 0 400
0

0101000
+32 0 -19 0 *
Ed
 1.0001000025e-007 1 1 0
1  12 0 400 2000
2  23 7 0 400 2000
2  24 5 0 400 2000
0

0101000
+19 0 -21 0 *
Wi

0101000
-26 0 -22 0 +20 0 +18 0 +17 0 *
Fa
0  1e-007 7 0

0111000
+16 0 *
Ed
 1.0001000025e-007 1 1 0
1  13 0 0 2000
2  25 4 0 0 2000
2  26 5 0 0 2000
0

0101000
+21 0 -37 0 *
Ed
 1.0001000025e-007 1 1 0
1  14 0 0 2000
2  27 4 0 0 2000
2  28 3 0 0 2000
0

0101000
+23 0 -39 0 *
Wi

0101000
-14 0 -36 0 +13 0 +20 0 *
Fa
0  1e-007 4 0

0111000
+12 0 *
Wi

0101000
-22 0 -13 0 +38 0 +27 0 *
Fa
0  1e-007 3 0

0111000
+10 0 *
Ed
 1.36922409927788e-005 1 1 0
1  15 0 0 1
2  29 5 0 0 1
2  30 6 0 0 1
0

0101000
+19 0 -31 0 *
Wi

0101000
-17 0 +8 0 -14 0 +29 0 +35 0 *
Fa
0  1e-007 5 0

0111000
+7 0 *
Wi

0101000
-18 0 -8 0 +30 0 *
Fa
0  1e-007 6 0

0111000
+5 0 *
Sh

0101000
+33 0 -24 0 -15 0 +11 0 +9 0 -6 0 -4 0 *
So

0100000
+3 0 *
Co

1100000
+2 0 *

+1 0 