DBRep_DrawableShape

CASCADE Topology V1, (c) Matra-Datavision
Locations 0
Curve2ds 73
1 0 0 1 0 
1 0 8.1231056256176615 1 0 
1 6.2831853071795862 0 0 1 
1 0 0 0 1 
7 0 0  10 11 2  -0.49625377834145151 -0.061091631847851997  -0.45786877397963405 -0.37289707671860384  -0.20181845339726112 -0.65816126297304856  0.25107925905662881 -0.7435894174761275  0.72471673541225401 -0.48749212663076374  0.9183770976900586 0.11305738716385534  0.58484429795728599 0.64870645692860041  0.063235735977880597 0.78228336158061862  -0.35542021224416154 0.58956204842102322  -0.53463878270324661 0.25071381302287388  -0.49625377834145196 -0.061091631847852441 
 0 11 6.2831853071795862 11
8 0 6.2831853071795862
1 0 2.1931712559351269 1 0 
2 0 0 1 0 -0 1 0.1000000031589547
8 0 2.1931712559351269
1 6.2831853071795862 0 0 1 
8 0 2.1931712559351269
1 0 0 0 1 
8 0 6.2831853071795862
1 0 0 1 0 
2 0 0 1 0 -0 1 1.0000000166883856
8 0 6.2831853071795898
1 0 2.1931712798277543 1 0 
2 0 0 1 5.5511151231257827e-017 -5.5511151231257827e-017 1 0.10000000424836472
8 0 2.1931712798277574
1 6.2831853071795862 0 0 1 
8 0 2.1931712798277574
1 0 0 0 1 
8 0 6.2831853071795898
1 0 0 1 0 
2 0 0 1 5.5511151231257827e-017 -5.5511151231257827e-017 1 1.0000000275824861
2 -0 0 1 0 -0 1 0.10000000424836472
8 0 6.2831853071795898
7 0 0  11 42 5  -2.2204460492503131e-016 0  0.14489568408390743 0  0.2887355430991202 0  0.43221761320194851 0  0.57430537051576469 0  0.71731686383297744 0  0.85993021261133384 0  1.0014139651278271 0  1.1438105419416909 0  1.2870706219955947 0  1.4290149104509215 0  1.7134777007704294 0  1.855809018826722 0  1.998756047017797 0  2.1448572493141853 0  2.280736658149169 0  2.4307465129037364 0  2.5688467447416432 0  2.7136740102345898 0  2.8559167481559413 0  2.9987922341048536 0  3.2843930730747068 0  3.4272685590238963 0  3.56951129694425 0  3.7143385624393224 0  3.8524387942740761 0  4.0024486490320452 0  4.1383280578643351 0  4.2844292601622831 0  4.4273762883527228 0  4.5697076064091426 0  4.8541703967287688 0  4.9961146851832323 0  5.1393747652402348 0  5.2817713420472536 0  5.4232550945746594 0  5.5658684433396441 0  5.708879936669458 0  5.8509676939742299 0  5.994449764081768 0  6.1382896230953792 0  6.2831853071795871 0 
 0 12 1.5707963267948966 10 3.1415926535897931 10 4.7123889803846897 10 6.2831853071795862 12
8 0 10.285164805644399
1 6.2831853071795862 0 0 1 
8 0 10.285164805644399
1 0 0 0 1 
8 0 6.2831853071795898
7 0 0  11 42 5  -2.2204460492503131e-016 10.285164805644389  0.14489568408392425 10.285164805643829  0.28873554309904159 10.285164805646623  0.43221761320219304 10.285164805639463  0.57430537051534469 10.285164805651855  0.71731686383343674 10.285164805635997  0.85993021261096947 10.285164805651551  1.0014139651281038 10.285164805639809  1.1438105419415103 10.285164805646478  1.2870706219956627 10.285164805643797  1.4290149104509045 10.285164805644426  1.7134777007704383 10.285164805644484  1.8558090188266991 10.285164805643955  1.9987560470178511 10.285164805644994  2.1448572493140659 10.285164805644127  2.2807366581493769 10.285164805643843  2.4307465129034744 10.285164805645696  2.5688467447418799 10.285164805642866  2.7136740102344445 10.285164805645548  2.8559167481559928 10.285164805643825  2.9987922341048536 10.285164805644529  3.2843930730746855 10.285164805644271  3.4272685590240153 10.285164805644767  3.5695112969439644 10.285164805643552  3.7143385624397633 10.285164805645671  3.8524387942735716 10.285164805643038  4.002448649032492 10.285164805645314  4.1383280578640269 10.28516480564406  4.2844292601624279 10.285164805644333  4.427376288352689 10.285164805644566  4.5697076064091346 10.285164805644239  4.8541703967288008 10.28516480564471  4.9961146851830716 10.285164805642424  5.1393747652406567 10.285164805650057  5.2817713420465013 10.285164805633515  5.4232550945754987 10.285164805659452  5.5658684433392089 10.285164805628844  5.7088799366694927 10.285164805656478  5.8509676939744635 10.285164805637393  5.9944497640817413 10.28516480564724  6.1382896230953916 10.285164805643713  6.2831853071795862 10.285164805644389 
 0 12 1.5707963267948966 10 3.1415926535897931 10 4.7123889803846897 10 6.2831853071795862 12
2 0 0 1 0 -0 1 0.10000000424836476
2 0 0 1 0 -0 1 0.1000000031589547
7 0 0  11 42 5  -2.2204460492503131e-016 0  0.14489568408390743 0  0.2887355430991202 0  0.43221761320194851 0  0.57430537051576469 0  0.71731686383297744 0  0.85993021261133384 0  1.0014139651278271 0  1.1438105419416909 0  1.2870706219955947 0  1.4290149104509215 0  1.7134777007704294 0  1.855809018826722 0  1.998756047017797 0  2.1448572493141853 0  2.280736658149169 0  2.4307465129037364 0  2.5688467447416432 0  2.7136740102345898 0  2.8559167481559413 0  2.9987922341048536 0  3.2843930730747068 0  3.4272685590238963 0  3.56951129694425 0  3.7143385624393224 0  3.8524387942740761 0  4.0024486490320452 0  4.1383280578643351 0  4.2844292601622831 0  4.4273762883527228 0  4.5697076064091426 0  4.8541703967287688 0  4.9961146851832323 0  5.1393747652402348 0  5.2817713420472536 0  5.4232550945746594 0  5.5658684433396441 0  5.708879936669458 0  5.8509676939742299 0  5.994449764081768 0  6.1382896230953792 0  6.2831853071795871 0 
 0 12 1.5707963267948966 10 3.1415926535897931 10 4.7123889803846897 10 6.2831853071795862 12
8 0 10.285164805644389
1 6.2831853071795862 0 0 1 
1 0 0 0 1 
7 0 0  11 42 5  -2.2204460492503131e-016 10.285164805644389  0.14489568408392425 10.285164805643829  0.28873554309904159 10.285164805646623  0.43221761320219304 10.285164805639463  0.57430537051534469 10.285164805651855  0.71731686383343674 10.285164805635997  0.85993021261096947 10.285164805651551  1.0014139651281038 10.285164805639809  1.1438105419415103 10.285164805646478  1.2870706219956627 10.285164805643797  1.4290149104509045 10.285164805644426  1.7134777007704383 10.285164805644484  1.8558090188266991 10.285164805643955  1.9987560470178511 10.285164805644994  2.1448572493140659 10.285164805644127  2.2807366581493769 10.285164805643843  2.4307465129034744 10.285164805645696  2.5688467447418799 10.285164805642866  2.7136740102344445 10.285164805645548  2.8559167481559928 10.285164805643825  2.9987922341048536 10.285164805644529  3.2843930730746855 10.285164805644271  3.4272685590240153 10.285164805644767  3.5695112969439644 10.285164805643552  3.7143385624397633 10.285164805645671  3.8524387942735716 10.285164805643038  4.002448649032492 10.285164805645314  4.1383280578640269 10.28516480564406  4.2844292601624279 10.285164805644333  4.427376288352689 10.285164805644566  4.5697076064091346 10.285164805644239  4.8541703967288008 10.28516480564471  4.9961146851830716 10.285164805642424  5.1393747652406567 10.285164805650057  5.2817713420465013 10.285164805633515  5.4232550945754987 10.285164805659452  5.5658684433392089 10.285164805628844  5.7088799366694927 10.285164805656478  5.8509676939744635 10.285164805637393  5.9944497640817413 10.28516480564724  6.1382896230953916 10.285164805643713  6.2831853071795862 10.285164805644389 
 0 12 1.5707963267948966 10 3.1415926535897931 10 4.7123889803846897 10 6.2831853071795862 12
2 0 0 1 0 -0 1 0.1000000031589547
1 0 0 1 0 
1 0 0 1 0 
1 10 0 0 -1 
1 0 0 0 1 
1 0 -10 1 0 
1 0 0 1 0 
1 0 0 0 -1 
1 0 0 0 1 
1 0 0 1 0 
1 0 10 1 0 
1 10 0 0 -1 
1 10 0 0 1 
1 0 -10 1 0 
1 0 10 1 0 
1 0 0 0 -1 
1 10 0 0 1 
1 0 0 0 1 
1 0 0 1 0 
1 10 0 0 1 
1 0 0 1 0 
1 0 0 0 1 
1 0 10 1 0 
1 10 0 0 1 
1 0 10 1 0 
8 0 200.0000000000004
1 0 0 0 1 
8 0 200.0000000000004
1 0 200.0000000000004 1 0 
8 0 200.0000000000004
1 200.0000000000004 0 0 1 
8 0 200.0000000000004
1 0 0 1 0 
8 0 6.2831853071795862
1 0 3.000000059498884 1 0 
8 0 6.2831853071795862
2 0 0 1 0 -0 1 0.10000000347341227
8 0 3.000000059498884
1 6.2831853071795862 0 0 1 
8 0 3.000000059498884
1 0 0 0 1 
8 0 6.2831853071795862
1 0 0 1 0 
8 0 6.2831853071795862
2 0 0 1 0 -0 1 0.10000000347341227
8 0 6.2831853071795862
1 0 3.0000000500651565 1 0 
2 0 0 1 0 -0 1 0.1000000031589547
8 0 3.0000000500651565
1 6.2831853071795862 0 0 1 
8 0 3.0000000500651565
1 0 0 0 1 
8 0 6.2831853071795862
1 0 0 1 0 
2 0 0 1 0 -0 1 0.1000000031589547
1 0 0 0 1 
1 0 200 1 0 
1 200 0 0 1 
1 0 0 1 0 
Curves 42
2 0 8 0 0 1 0 0 0 -1 -1 0 0 1.5
2 0 8.8817841970012523e-016 0 0 1 0 0 0 -1 -1 0 0 0.49999999999999989
7 0 0  2 3 2  0 8 -1.5  0 4.1212678125181661 -0.014928749927334084  0 0 -0.5 
 0 3 8.1231056256176615 3
7 0 0  10 11 2  -1.8691071471150269e-006 8.8817841970012523e-016 -0.50000002381182207  -0.31415720344266057 8.8817841970016251e-016 -0.50000047166085793  -0.62858625897646869 8.881784196999857e-016 -0.28071688004451567  -0.76863740242671708 8.8817841970041612e-016 0.15830065300744389  -0.57251437456482412 8.8817841969971897e-016 0.65981913779500034  0.00012027148824644883 8.8817841970054688e-016 0.92518811657658406  0.57238339656124448 8.8817841969978839e-016 0.65981818169791717  0.76862541363320669 8.8817841970032896e-016 0.15830170124875761  0.62861809157717241 8.8817841970003925e-016 -0.28071485071782554  0.31415346522829996 8.8817841970014555e-016 -0.49999957596274652  -1.8691071484472945e-006 8.8817841970012523e-016 -0.50000002381182229 
 0 11 6.2831853071795862 11
2 0 9.9999996423721313 -2 0 -0.7071067513842253 0.70710681098886852 1 0 0 -0 0.70710681098886852 0.7071067513842253 0.1000000031589547
1 1 11.414213180541992 -3.4142136573791504 -0.41036466822117201 -0.64482585593981101 0.64482591029456748 
2 0 11.414213180541992 -3.4142136573791504 0 -0.7071067513842253 0.70710681098886852 1 0 0 -0 0.70710681098886852 0.7071067513842253 1.0000000166883856
2 -1.7320507764816284 9.9999996423721313 1.0000001192092896 0.61237243550405407 -0.70710675716169469 -0.35355343897507979 -0.50000005143406867 -2.7755575615628907e-017 -0.86602537408896318 0.61237239389179032 0.70710680521139968 -0.35355341495022485 0.10000000424836476
1 -3.4567957677735137 11.414213180541992 0.84108164395175333 0.76361796059094134 -0.64482584978398494 0.032973227219871594 
2 -2.9567957081688689 11.414213180541992 1.7071070321925674 0.61237243550405407 -0.70710675716169469 -0.35355343897507979 -0.50000005143406867 -2.7755575615628907e-017 -0.86602537408896318 0.61237239389179032 0.70710680521139968 -0.35355341495022485 1.0000000275824861
2 -1.7320508967739621 9.9999998610983614 1.0000001886601104 0.61237244524824663 -0.70710674591006883 -0.35355344460089283 -0.50000005143406867 2.7755575615628914e-017 -0.86602537408896318 0.61237238414759676 0.70710681646302453 -0.35355340932441132 0.10000000424836476
7 1 0  6 7 2  -1.7820509043139043 9.9999998610983614 0.91339764710029414  1.6690784610682365 -0.94203309261226431 8.4726047137294103 0.42841307087099773  1.6690784610682408 -0.32255235879549365 6.8961676352619028 0.070755653388698658  1.6690784610682214 0.07639129835822174 5.270688625912296 -0.15957460605201507  1.6690784610682572 0.25479788136988907 3.5961676840396986 -0.26257770890665272  1.669078461068219 0.21266738975482599 1.8726048062772751 -0.23825365489537695  1.6690784610682443 -0.050000177445189802 0.099999991644580191 -0.086602443464962375  1.6690784610682365
 0 7 10.285164805644389 7
2 -1.6990524730179843e-007 0.099999991644581954 9.8094853720868636e-008 0.043405784733627363 -0.99874316866913715 -0.025060344937561072 -0.50000005143406867 -1.0408340855860843e-017 -0.86602537408896318 0.86493692626548591 0.05012068471930068 -0.49937163570399329 0.10000000424836476
2 0 9.9999998610983614 -2.0000001389016249 0 -0.70710674013259933 0.70710682224049337 1 0 0 -0 0.70710682224049337 0.70710674013259933 0.1000000031589547
7 1 0  6 7 2  0.1000000031589547 9.9999998610983614 -2.0000001389016253  1.6690784610682365 0.10000000315895459 8.4726047137294103 -1.030031102072352  1.6690784610682408 0.10000000315895512 6.8961676352619028 -0.31471635237991802  1.6690784610682214 0.10000000315895401 5.270688625912296 0.14594411158650467  1.6690784610682572 0.10000000315895544 3.5961676840396986 0.351950292737927  1.669078461068219 0.10000000315895434 1.8726048062772751 0.3033021905146831  1.6690784610682443 0.1000000031589547 0.099999991644580191 -1.9618968460921593e-007  1.6690784610682365
 0 7 10.285164805644389 7
2 0 0.099999991644581954 -1.9618968405410442e-007 0 -0.9987431686281385 0.050120685536272858 1 0 0 -0 0.050120685536272858 0.9987431686281385 0.1000000031589547
1 -5 -10 -5 0 0 1 
1 -5 -10 5 0 1 0 
1 -5 0 -5 0 0 1 
1 -5 -10 -5 0 1 0 
1 5 -10 -5 0 0 1 
1 5 -10 5 0 1 0 
1 5 0 -5 0 0 1 
1 5 -10 -5 0 1 0 
1 -5 -10 -5 1 0 0 
1 -5 -10 5 1 0 0 
1 -5 0 -5 1 0 0 
1 -5 0 5 1 0 0 
1 19.999994039772304 -80.000000754978998 -60 7.5497901264043109e-008 0.99999999999999711 0 
1 20.000009139352557 119.99999924502099 -60 0 0 1 
1 19.999994039772304 -80.000000754978998 140 7.5497901264043109e-008 0.99999999999999711 0 
1 19.999994039772304 -80.000000754978998 -60 0 0 1 
2 -1.7320509552955625 10.000000417232513 1.0000002682209013 0.61237244411972924 -0.7071067472131688 -0.35355344394934285 -0.50000005143406867 0 -0.8660253740889633 0.61237238665944527 0.70710681515992468 -0.35355340757996234 0.10000000347341227
1 -3.6191683359444142 12.121320724487305 1.9740580605476716 0.61237244326952367 -0.70710675209745522 -0.35355343565337094 
2 -3.5691683292388916 12.121320724487305 2.0606606006622314 0.61237244411972924 -0.7071067472131688 -0.35355344394934285 -0.50000005143406867 0 -0.8660253740889633 0.61237238665944527 0.70710681515992468 -0.35355340757996234 0.10000000347341227
2 0 10.000000417232513 -2.0000002384185787 0 -0.7071067513842253 0.70710681098886852 1 0 0 0 0.70710681098886852 0.7071067513842253 0.1000000031589547
1 0.10000000149011612 12.121320724487305 -4.1213207244873047 0 -0.7071067513842253 0.70710681098886852 
2 0 12.121320724487305 -4.1213207244873047 0 -0.7071067513842253 0.70710681098886852 1 0 0 0 0.70710681098886852 0.7071067513842253 0.1000000031589547
1 -180 -10 -60 1 0 0 
1 20 -10 -60 0 0 1 
1 -180 -10 140 1 0 0 
1 -180 -10 -60 0 0 1 
Polygon3D 0
PolygonOnTriangulations 0
Surfaces 28
7 0 0 0 0 1 0 
8 0 8.1231056256176615
7 0 0  2 3 2  0 8 -1.5  0 4.1212678125181661 -0.014928749927334084  0 0 -0.5 
 0 3 8.1231056256176615 3
9 0 0 0 0 4 6 5 7 2 2 -0.46773565866227762 8.8817841970012523e-016 -0.52751218816805334  -0.28781330203121708 8.881784197001278e-016 -0.55282216579236154  -0.10785590770269296 8.8817841970012109e-016 -0.55895944094749483  0.072154704793084487 8.8817841970012878e-016 -0.54592547821132587  0.25222639675395919 8.8817841970012326e-016 -0.51372073870320467  0.43235671030583672 8.8817841970012582e-016 -0.46234468008408713  0.61253286840267296 8.8817841970012523e-016 -0.39179575655641713  
-0.50126748723933223 8.8817841970012474e-016 -0.32946309938335056  -0.32134505430034532 8.8817841970012799e-016 -0.35477387712212993  -0.14135316577114057 8.881784197001207e-016 -0.36091168685979302  0.038604988104837083 8.8817841970012819e-016 -0.34787505316411838  0.21873173686521608 8.8817841970012306e-016 -0.31567390942196094  0.398846913461958 8.8817841970012563e-016 -0.26429485736609548  0.57901750081213277 8.8817841970012474e-016 -0.19374603875581897  
-0.5346510208485028 8.8817841970012602e-016 -0.083257669887350089  -0.35473455657444658 8.881784197001276e-016 -0.10856766955967415  -0.17482118731081175 8.8817841970012198e-016 -0.11470936285594496  0.0053336749838543487 8.8817841970012937e-016 -0.10167689761540299  0.18531193021961001 8.8817841970012326e-016 -0.069463212907862171  0.36542681859527809 8.8817841970012642e-016 -0.018090300069018905  0.54559457018310042 8.8817841970012602e-016 0.052457630712416159  
-0.5679041164841494 8.8817841970012464e-016 0.21110519333824954  -0.38799359848381032 8.881784197001278e-016 0.18579633828320366  -0.20802739287856895 8.881784197001205e-016 0.17965891772881962  -0.028007632530526808 8.8817841970012858e-016 0.19269280937248182  0.15206354969822483 8.8817841970012326e-016 0.22489789091154266  0.33218402094556737 8.8817841970012563e-016 0.27627404004338796  0.51235164834942137 8.8817841970012464e-016 0.34682113446537904  
-0.60104463114063156 8.8817841970012523e-016 0.55362658331174575  -0.42113396965873334 8.881784197001278e-016 0.52831802779467718  -0.2411659693294797 8.8817841970012109e-016 0.52218077181118838  -0.061143346585513056 8.8817841970012878e-016 0.53521473553748611  0.11893118214053129 8.8817841970012326e-016 0.56741983914975358  0.2990549004160144 8.8817841970012582e-016 0.61879600282419922  0.47922509180829626 8.8817841970012523e-016 0.68934314673701147  

-0.54869150145248391 5
0.54231212714798227 5

-0.53903969548698327 7
0.54937177053893904 7

3 0 11.414213180541992 -3.4142136573791504 0 -0.7071067513842253 0.70710681098886852 1 0 0 -0 0.70710681098886852 0.7071067513842253 1.0000000166883856
-0.42285392551334983
1 0 9.9999996423721313 -2 0 -0.7071067513842253 0.70710681098886852 1 0 0 -0 0.70710681098886852 0.7071067513842253 
1 0 11.414213180541992 -3.4142136573791504 0 -0.7071067513842253 0.70710681098886852 1 0 0 -0 0.70710681098886852 0.7071067513842253 
3 -2.9567957081688689 11.414213180541992 1.7071070321925674 0.61237244551092329 -0.7071067456067559 -0.3535534447525493 -0.50000005143406867 0 -0.86602537408896318 0.61237238388492021 0.70710681676633746 -0.35355340917275491 1.0000000275824861
-0.42285392551334983
1 -1.7320507764816284 9.9999996423721313 1.0000001192092896 0.61237244551092329 -0.7071067456067559 -0.3535534447525493 -0.50000005143406867 0 -0.86602537408896318 0.61237238388492021 0.70710681676633746 -0.35355340917275491 
1 -2.9567957081688689 11.414213180541992 1.7071070321925674 0.61237244551092329 -0.7071067456067559 -0.3535534447525493 -0.50000005143406867 0 -0.86602537408896318 0.61237238388492021 0.70710681676633746 -0.35355340917275491 
1 -1.7320508967739621 9.9999998610983614 1.0000001886601104 0.61237245525511586 -0.70710673435512983 -0.35355345037836222 -0.50000005143406878 -5.5511151231257827e-017 -0.86602537408896318 0.61237237414072643 0.70710682801796221 -0.35355340354694137 
9 1 1 1 0 6 6 6 7 2 2 -1.7820509043139043 9.9999998610983614 0.91339764710029414  1.6690784610682365 -0.94203309261226431 8.4726047137294103 0.42841307087099773  1.6690784610682408 -0.32255235879549365 6.8961676352619019 0.070755653388698658  1.6690784610682214 0.07639129835822174 5.270688625912296 -0.15957460605201507  1.6690784610682572 0.25479788136988907 3.5961676840396986 -0.26257770890665272  1.669078461068219 0.21266738975482599 1.8726048062772751 -0.23825365489537695  1.6690784610682443 -0.050000177445189802 0.099999991644580177 -0.086602443464962375  1.6690784610682365 
-1.6803025908132414 10.117488709228054 0.85465322285385747  1.0367296232096121 -0.82897880288701298 8.5770385463072749 0.36314113731254666  1.0367296232096144 -0.19851094080331036 6.9844331018406391 -0.00085970250233427146  1.0367296232096042 0.21006752964627132 5.3394892658381705 -0.23675262475596981  1.0367296232096221 0.39462426146623614 3.6435949484772481 -0.34330651816765068  1.0367296232096053 0.35556918356478784 1.8995980485860691 -0.32075805533533669  1.0367296232096146 0.093712825501388458 0.10832775970721986 -0.16957519578255423  1.0367296232096124 
-1.5629658396412807 10.134358108264339 1.0241476183682332  1.0383466998475064 -0.71001870594680749 8.5920334672950069 0.53169829358208864  1.0383466998475079 -0.077973279235074036 6.997106520642034 0.16678664627962653  1.0383466998475002 0.33198858642789075 5.349367866806146 -0.069904979682400212  1.038346699847513 0.51742837494668736 3.6504046964808561 -0.17696870618678837  1.0383466998475019 0.47881487411372686 1.9034738187807601 -0.15467518802880142  1.0383466998475082 0.21707499187629042 0.10952348546984769 -0.0035595758347162698  1.0383466998475066 
-1.5945950299953573 9.9999998610983596 1.2380807010645403  0.85353433019614966 -0.75457721829371815 8.4726047137294103 0.75309612483524446  0.85353433019615088 -0.135096484476947 6.8961676352619063 0.39543870735294506  0.85353433019614433 0.2638471726767716 5.2706886259122836 0.16510844791222917  0.85353433019615754 0.44225375568843561 3.5961676840397141 0.062105345057594387  0.853534330196143 0.40012326407337401 1.872604806277264 0.086429399068868359  0.85353433019615232 0.13745569687335757 0.099999991644581954 0.23808061049928358  0.85353433019614977 
-1.7956811189493658 9.8656416139323859 1.1585058659495371  1.0383466998475068 -0.968592629240559 8.3531759601638154 0.68098603827708848  1.0383466998475082 -0.36167658831875532 6.7952287498817681 0.33058285061495629  1.0383466998475011 0.02624886032572666 5.1920093850184328 0.10661395769554352  1.0383466998475133 0.19762223783024083 3.5419306715985703 0.0076714784906737037  1.0383466998475024 0.15197475543309139 1.8417357937737679 0.034026068355226091  1.0383466998475088 -0.11162049672950815 0.090476497819316215 0.18621287902197353  1.038346699847507 
-1.8837992178145679 9.8825110129686653 0.97214207134673147  1.0367296232096115 -1.0550873823375158 8.3681708811515367 0.49368500442944929  1.0367296232096137 -0.44659377678768003 6.8079021686831727 0.14237100927973437  1.0367296232096042 -0.057284932929820266 5.2018879859863993 -0.082396587348065223  1.0367296232096208 0.11497150127353599 3.5487404196021815 -0.1818488996456494  1.0367296232096046 0.069765595944866796 1.8456115639684585 -0.15574925445541918  1.0367296232096139 -0.19371318039176791 0.091672223581944934 -0.0036296911473702059  1.0367296232096117 

0 6
6.2831853071795862 6

0 7
10.285164805644389 7

1 -1.6990524730179843e-007 0.099999991644581954 9.8094853720868636e-008 0.043405786148664638 -0.99874316858713974 -0.02506034575453335 -0.50000005143406867 0 -0.86602537408896318 0.86493692619447415 0.050120686353245049 -0.49937163566299458 
1 0 9.9999998610983614 -2.0000001389016249 0 -0.70710674013259933 0.70710682224049337 1 0 0 -0 0.70710682224049337 0.70710674013259933 
9 1 1 1 0 6 6 6 7 2 2 0.1000000031589547 9.9999998610983614 -2.0000001389016253  1.6690784610682365 0.10000000315895459 8.4726047137294103 -1.030031102072352  1.6690784610682408 0.10000000315895512 6.8961676352619019 -0.31471635237991802  1.6690784610682214 0.10000000315895401 5.270688625912296 0.14594411158650467  1.6690784610682572 0.10000000315895542 3.5961676840396986 0.351950292737927  1.669078461068219 0.10000000315895434 1.8726048062772751 0.3033021905146831  1.6690784610682443 0.1000000031589547 0.099999991644580177 -1.9618968460921593e-007  1.6690784610682365 
0.10000000315895446 10.117488709228056 -1.8825113044145121  1.0367296232096121 0.10000000315895435 8.5770385463072749 -0.89948725051748935  1.0367296232096144 0.10000000315895469 6.9844331018406391 -0.1714856576722808  1.0367296232096042 0.10000000315895417 5.3394892658381705 0.3003001305937425  1.0367296232096221 0.10000000315895459 3.6435949484772481 0.51340789201267878  1.0367296232096053 0.10000000315895445 1.8995980485860691 0.4683109717240227  1.0367296232096146 0.10000000315895445 0.10832775970721986 0.16594528866325609  1.0367296232096124 
-0.10545482238608396 10.134358108264339 -1.8656419073370711  1.0383466998475064 -0.10545482238608392 8.5920334672950069 -0.88074337517383638  1.0383466998475079 -0.105454822386084 6.997106520642034 -0.1509201675706181  1.0383466998475002 -0.10545482238608402 5.349367866806146 0.32246302792176096  1.038346699847513 -0.10545482238608386 3.6504046964808561 0.53659045540455852  1.0383466998475019 -0.10545482238608399 1.9034738187807601 0.49200342440377309  1.0383466998475082 -0.10545482238608393 0.10952348546984769 0.18977223604436799  1.0383466998475066 
-0.2749117007851819 9.9999998610983596 -2.0000001389016253  0.85353433019614966 -0.27491170078518207 8.4726047137294103 -1.0300311020723534  0.85353433019615088 -0.27491170078518146 6.8961676352619063 -0.31471635237991874  0.85353433019614433 -0.27491170078518229 5.2706886259122836 0.14594411158650789  0.85353433019615754 -0.27491170078518168 3.5961676840397141 0.35195029273792588  0.853534330196143 -0.27491170078518201 1.872604806277264 0.30330219051468421  0.85353433019615232 -0.27491170078518185 0.099999991644581954 -1.9618968444268248e-007  0.85353433019614977 
-0.10545482238608399 9.8656416139323859 -2.1343583704661802  1.0383466998475068 -0.10545482238608397 8.3531759601638154 -1.179318828970868  1.0383466998475082 -0.10545482238608408 6.7952287498817681 -0.47851253718922382  1.0383466998475011 -0.10545482238608386 5.1920093850184328 -0.030574804748737527  1.0383466998475133 -0.10545482238608418 3.5419306715985703 0.16731013007128015  1.0383466998475024 -0.10545482238608389 1.8417357937737679 0.11460095662559799  1.0383466998475088 -0.10545482238608397 0.090476497819316215 -0.18977262842373788  1.038346699847507 
0.10000000315895455 9.8825110129686671 -2.1174889733887392  1.0367296232096115 0.10000000315895441 8.3681708811515367 -1.160574953627215  1.0367296232096137 0.10000000315895474 6.8079021686831727 -0.4579470470875594  1.0367296232096042 0.10000000315895433 5.2018879859863993 -0.008411907420724174  1.0367296232096208 0.10000000315895465 3.5487404196021815 0.19049269346316744  1.0367296232096046 0.10000000315895455 1.8456115639684585 0.13829340930534673  1.0367296232096139 0.10000000315895455 0.091672223581944934 -0.16594568104262536  1.0367296232096117 

0 6
6.2831853071795862 6

0 7
10.285164805644389 7

1 0 0.099999991644581954 -1.9618968405410442e-007 0 -0.9987431686281385 0.050120685536272858 1 0 0 -0 0.050120685536272858 0.9987431686281385 
1 -5 -10 -5 1 0 0 0 0 1 0 -1 0 
1 -5 -10 -5 0 1 0 0 -0 1 1 0 -0 
1 -5 -10 5 0 0 1 1 0 -0 -0 1 0 
1 -5 0 -5 0 1 0 0 -0 1 1 0 -0 
1 -5 -10 -5 0 0 1 1 0 -0 -0 1 0 
1 5 -10 -5 1 0 0 0 0 1 0 -1 0 
1 19.999994039772304 -80.000000754978998 -60 -0.99999999999999711 7.5497901264043109e-008 0 0 0 1 7.5497901264043109e-008 0.99999999999999711 0 
2 -3.5691683292388916 12.121320724487305 2.0606606006622314 0.61237244326952367 -0.70710675209745522 -0.35355343565337094 -0.50000005143406867 0 -0.8660253740889633 0.61237238665944527 0.70710681515992468 -0.35355340757996234 0.10000000347341227
1 -1.7320509552955625 10.000000417232513 1.0000002682209013 0.61237244326952367 -0.70710675209745522 -0.35355343565337094 -0.50000005143406867 0 -0.8660253740889633 0.61237238665944527 0.70710681515992468 -0.35355340757996234 
1 -3.5691683292388916 12.121320724487305 2.0606606006622314 0.61237244326952367 -0.70710675209745522 -0.35355343565337094 -0.50000005143406867 0 -0.8660253740889633 0.61237238665944527 0.70710681515992468 -0.35355340757996234 
2 0 12.121320724487305 -4.1213207244873047 0 -0.7071067513842253 0.70710681098886852 1 0 0 0 0.70710681098886852 0.7071067513842253 0.1000000031589547
1 0 10.000000417232513 -2.0000002384185787 0 -0.7071067513842253 0.70710681098886852 1 0 0 0 0.70710681098886852 0.7071067513842253 
1 0 12.121320724487305 -4.1213207244873047 0 -0.7071067513842253 0.70710681098886852 1 0 0 0 0.70710681098886852 0.7071067513842253 
1 -180 -10 -60 0 1 0 0 0 1 1 0 0 
Triangulations 0

TShapes 144
Ve
1e-007
0 8 -1.5
0 0

0101101
*
Ed
 1e-007 1 1 0
1  1 0 0 6.28318530717959
2  1 1 0 0 6.28318530717959
0

0101100
+144 0 -144 0 *
Ve
1e-007
0 8.88178419700125e-016 -0.5
0 0

0101101
*
Ed
 1e-007 1 1 0
1  2 0 0 6.28318530717959
2  2 1 0 0 6.28318530717959
0

0101100
+142 0 -142 0 *
Ed
 1e-007 1 1 0
1  3 0 0 8.12310562561766
3  3 4C0 1 0 0 8.12310562561766
0

0101000
+144 0 -142 0 *
Wi

0101000
+143 0 -141 0 -140 0 +140 0 *
Fa
0  1e-007 1 0

0101000
+139 0 *
Ve
1e-005
-1.86910714758404e-006 8.88178419700125e-016 -0.500000023811823
0 0

0101101
*
Ed
 1e-005 1 1 0
1  4 0 0 6.28318530717959
2  5 2 0 0 6.28318530717959
0

0101100
+137 0 -137 0 *
Wi

0101000
+136 0 *
Fa
0  1e-007 2 0

0101000
+135 0 *
Ve
1.00000001668839e-007
0.100000001490116 9.99999964237213 -2
0 0

0101101
*
Ed
 1.00000001668839e-007 1 1 0
1  5 0 0 6.28318530717959
2  6 3 0 0 6.28318530717959
2  7 4 0 0 6.28318530717959
0

0101100
+133 0 -133 0 *
Ve
1.00000001668839e-007
1 11.414213180542 -3.41421365737915
0 0

0101101
*
Ed
 1.00000001668839e-007 1 1 0
1  6 0 0 2.19317125593513
3  8 9C0 3 0 0 2.19317125593513
0

0101000
-133 0 +131 0 *
Ed
 1.00000001668839e-007 1 1 0
1  7 0 0 6.28318530717959
2  10 3 0 0 6.28318530717959
2  11 5 0 0 6.28318530717959
0

0101100
+131 0 -131 0 *
Wi

0101000
-132 0 +130 0 +129 0 -130 0 *
Fa
0  1.00000001668839e-007 3 0

0101000
+128 0 *
Wi

0101000
+132 0 *
Fa
0  1.00000001668839e-007 4 0

0101000
+126 0 *
Wi

0101000
-129 0 *
Fa
0  1.00000001668839e-007 5 0

0101000
-124 0 *
Sh

0101000
+127 0 +125 0 -123 0 *
So

0100000
+122 0 *
Ve
1.00000002758249e-007
-1.78205078318715 9.99999964237213 0.91339757909473
0 0

0101101
*
Ed
 1.00000002758249e-007 1 1 0
1  8 0 0 6.28318530717959
2  12 6 0 0 6.28318530717959
2  13 7 0 0 6.28318530717959
0

0101100
+120 0 -120 0 *
Ve
1.00000002758249e-007
-3.45679576777351 11.414213180542 0.841081643951753
0 0

0101101
*
Ed
 1.00000002758249e-007 1 1 0
1  9 0 0 2.19317127982776
3  14 15C0 6 0 0 2.19317127982776
0

0101000
-120 0 +118 0 *
Ed
 1.00000002758249e-007 1 1 0
1  10 0 0 6.28318530717959
2  16 6 0 0 6.28318530717959
2  17 8 0 0 6.28318530717959
0

0101100
+118 0 -118 0 *
Wi

0101000
-119 0 +117 0 +116 0 -117 0 *
Fa
0  1.00000002758249e-007 6 0

0101000
+115 0 *
Wi

0101000
+119 0 *
Fa
0  1.00000002758249e-007 7 0

0101000
+113 0 *
Wi

0101000
-116 0 *
Fa
0  1.00000002758249e-007 8 0

0101000
-111 0 *
Sh

0101000
+114 0 +112 0 -110 0 *
So

0100000
+109 0 *
Ve
7.91345659817319e-005
-1.78205090347948 9.99999986109836 0.913397648545548
0 0

0101101
*
Ed
 7.91345659817319e-005 1 1 0
1  11 0 0 6.28318530717959
2  18 9 0 0 6.28318530717959
2  19 10 0 0 6.28318530717959
0

0101100
+107 0 -107 0 *
Wi

0101000
+106 0 *
Fa
0  1.00000002758249e-007 9 0

0101000
+105 0 *
Ve
1.3503790373186e-005
-0.0500001766107699 0.099999991644582 -0.086602442019706
0 0

0101101
*
Ed
 1.3503790373186e-005 1 1 0
1  12 0 0 10.2851648056444
3  20 21C0 10 0 0 10.2851648056444
0

0101000
+107 0 -103 0 *
Ed
 7.91345659817319e-005 1 1 0
1  13 0 0 6.28318530717959
2  22 10 0 0 6.28318530717959
2  23 11 0 0 6.28318530717959
0

0101100
+103 0 -103 0 *
Wi

0101000
+102 0 +106 0 -102 0 -101 0 *
Fa
0  1.0000000108941e-007 10 0

0101000
+100 0 *
Wi

0101000
+101 0 *
Fa
0  1.00000002758249e-007 11 0

0101000
+98 0 *
Sh

0101000
-104 0 +99 0 +97 0 *
So

0100000
+96 0 *
Ve
7.9134565119632e-005
0.100000001490116 9.99999986109836 -2.00000013890162
0 0

0101101
*
Ed
 7.9134565119632e-005 1 1 0
1  14 0 0 6.28318530717959
2  24 12 0 0 6.28318530717959
2  25 13 0 0 6.28318530717959
0

0101100
+94 0 -94 0 *
Wi

0101000
+93 0 *
Fa
0  1.00000001668839e-007 12 0

0101000
+92 0 *
Ve
1.35037902260744e-005
0.100000001490116 0.099999991644582 -1.96189684054104e-007
0 0

0101101
*
Ed
 1.35037902260744e-005 1 1 0
1  15 0 0 10.2851648056444
3  26 27C0 13 0 0 10.2851648056444
0

0101000
+94 0 -90 0 *
Ed
 7.9134565119632e-005 1 1 0
1  16 0 0 6.28318530717959
2  28 13 0 0 6.28318530717959
2  29 14 0 0 6.28318530717959
0

0101100
+90 0 -90 0 *
Wi

0101000
+89 0 +93 0 -89 0 -88 0 *
Fa
0  1e-007 13 0

0101000
+87 0 *
Wi

0101000
+88 0 *
Fa
0  1.00000001668839e-007 14 0

0101000
+85 0 *
Sh

0101000
-91 0 +86 0 +84 0 *
So

0100000
+83 0 *
Ve
1e-007
-5 -10 5
0 0

0101101
*
Ve
1e-007
-5 -10 -5
0 0

0101101
*
Ed
 1e-007 1 1 0
1  17 0 0 10
2  30 15 0 0 10
2  31 16 0 0 10
0

0101000
-81 0 +80 0 *
Ve
1e-007
-5 0 5
0 0

0101101
*
Ed
 1e-007 1 1 0
1  18 0 0 10
2  32 15 0 0 10
2  33 17 0 0 10
0

0101000
-78 0 +81 0 *
Ve
1e-007
-5 0 -5
0 0

0101101
*
Ed
 1e-007 1 1 0
1  19 0 0 10
2  34 15 0 0 10
2  35 18 0 0 10
0

0101000
-78 0 +76 0 *
Ed
 1e-007 1 1 0
1  20 0 0 10
2  36 15 0 0 10
2  37 19 0 0 10
0

0101000
-76 0 +80 0 *
Wi

0101000
-79 0 -77 0 +75 0 +74 0 *
Fa
0  1e-007 15 0

0101000
+73 0 *
Ve
1e-007
5 -10 5
0 0

0101101
*
Ve
1e-007
5 -10 -5
0 0

0101101
*
Ed
 1e-007 1 1 0
1  21 0 0 10
2  38 20 0 0 10
2  39 16 0 0 10
0

0101000
-71 0 +70 0 *
Ve
1e-007
5 0 5
0 0

0101101
*
Ed
 1e-007 1 1 0
1  22 0 0 10
2  40 20 0 0 10
2  41 17 0 0 10
0

0101000
-68 0 +71 0 *
Ve
1e-007
5 0 -5
0 0

0101101
*
Ed
 1e-007 1 1 0
1  23 0 0 10
2  42 20 0 0 10
2  43 18 0 0 10
0

0101000
-68 0 +66 0 *
Ed
 1e-007 1 1 0
1  24 0 0 10
2  44 20 0 0 10
2  45 19 0 0 10
0

0101000
-66 0 +70 0 *
Wi

0101000
-69 0 -67 0 +65 0 +64 0 *
Fa
0  1e-007 20 0

0101000
+63 0 *
Ed
 1e-007 1 1 0
1  25 0 0 10
2  46 16 0 0 10
2  47 19 0 0 10
0

0101000
-70 0 +80 0 *
Ed
 1e-007 1 1 0
1  26 0 0 10
2  48 16 0 0 10
2  49 17 0 0 10
0

0101000
-71 0 +81 0 *
Wi

0101000
-61 0 -69 0 +60 0 +79 0 *
Fa
0  1e-007 16 0

0101000
+59 0 *
Ed
 1e-007 1 1 0
1  27 0 0 10
2  50 18 0 0 10
2  51 19 0 0 10
0

0101000
-66 0 +76 0 *
Ed
 1e-007 1 1 0
1  28 0 0 10
2  52 18 0 0 10
2  53 17 0 0 10
0

0101000
-68 0 +78 0 *
Wi

0101000
-57 0 -65 0 +56 0 +75 0 *
Fa
0  1e-007 18 0

0101000
+55 0 *
Wi

0101000
-74 0 -57 0 +64 0 +61 0 *
Fa
0  1e-007 19 0

0101000
+53 0 *
Wi

0101000
-77 0 -56 0 +67 0 +60 0 *
Fa
0  1e-007 17 0

0101000
+51 0 *
Sh

0101000
-72 0 +62 0 -58 0 +54 0 -52 0 +50 0 *
So

0100000
+49 0 *
Ve
1e-007
20.0000091393526 119.999999245021 -60
0 0

0101101
*
Ve
1e-007
19.9999940397723 -80.000000754979 -60
0 0

0101101
*
Ed
 1e-007 1 1 0
1  29 0 0 200
2  54 21 0 0 200
0

0101000
-47 0 +46 0 *
Ve
1e-007
20.0000091393526 119.999999245021 140
0 0

0101101
*
Ed
 1e-007 1 1 0
1  30 0 0 200
2  55 21 0 0 200
0

0101000
-44 0 +47 0 *
Ve
1e-007
19.9999940397723 -80.000000754979 140
0 0

0101101
*
Ed
 1e-007 1 1 0
1  31 0 0 200
2  56 21 0 0 200
0

0101000
-44 0 +42 0 *
Ed
 1e-007 1 1 0
1  32 0 0 200
2  57 21 0 0 200
0

0101000
-42 0 +46 0 *
Wi

0101000
-45 0 -43 0 +41 0 +40 0 *
Fa
0  1e-007 21 0

0101000
+39 0 *
Ve
1.00000001983296e-007
-1.78205096200109 10.0000004172325 0.913397728106341
0 0

0101101
*
Ed
 1.00000001983296e-007 1 1 0
1  33 0 0 6.28318530717959
2  58 22 0 0 6.28318530717959
2  59 23 0 0 6.28318530717959
0

0101100
+37 0 -37 0 *
Ve
1.00000001983296e-007
-3.61916833594441 12.1213207244873 1.97405806054767
0 0

0101101
*
Ed
 1.00000001983296e-007 1 1 0
1  34 0 0 3.00000005949888
3  60 61CN 22 0 0 3.00000005949888
0

0101000
-37 0 +35 0 *
Ed
 1.00000001983296e-007 1 1 0
1  35 0 0 6.28318530717959
2  62 22 0 0 6.28318530717959
2  63 24 0 0 6.28318530717959
0

0101100
+35 0 -35 0 *
Wi

0101000
-36 0 +34 0 +33 0 -34 0 *
Fa
0  1.00000001983296e-007 22 0

0101000
+32 0 *
Wi

0101000
+36 0 *
Fa
0  1.00000001983296e-007 23 0

0101000
+30 0 *
Wi

0101000
-33 0 *
Fa
0  1.00000001983296e-007 24 0

0101000
-28 0 *
Sh

0101100
+31 0 +29 0 -27 0 *
So

0100100
+26 0 *
Ve
1.00000001668839e-007
0.100000001490116 10.0000004172325 -2.00000023841858
0 0

0101101
*
Ed
 1.00000001668839e-007 1 1 0
1  36 0 0 6.28318530717959
2  64 25 0 0 6.28318530717959
2  65 26 0 0 6.28318530717959
0

0101100
+24 0 -24 0 *
Ve
1.00000001668839e-007
0.100000001490116 12.1213207244873 -4.1213207244873
0 0

0101101
*
Ed
 1.00000001668839e-007 1 1 0
1  37 0 0 3.00000005006516
3  66 67C0 25 0 0 3.00000005006516
0

0101000
-24 0 +22 0 *
Ed
 1.00000001668839e-007 1 1 0
1  38 0 0 6.28318530717959
2  68 25 0 0 6.28318530717959
2  69 27 0 0 6.28318530717959
0

0101100
+22 0 -22 0 *
Wi

0101000
-23 0 +21 0 +20 0 -21 0 *
Fa
0  1.00000001668839e-007 25 0

0101000
+19 0 *
Wi

0101000
+23 0 *
Fa
0  1.00000001668839e-007 26 0

0101000
+17 0 *
Wi

0101000
-20 0 *
Fa
0  1.00000001668839e-007 27 0

0101000
-15 0 *
Sh

0101000
+18 0 +16 0 -14 0 *
So

0100000
+13 0 *
Ve
1e-007
20 -10 -60
0 0

0101101
*
Ve
1e-007
-180 -10 -60
0 0

0101101
*
Ed
 1e-007 1 1 0
1  39 0 0 200
2  70 28 0 0 200
0

0101000
-11 0 +10 0 *
Ve
1e-007
20 -10 140
0 0

0101101
*
Ed
 1e-007 1 1 0
1  40 0 0 200
2  71 28 0 0 200
0

0101000
-8 0 +11 0 *
Ve
1e-007
-180 -10 140
0 0

0101101
*
Ed
 1e-007 1 1 0
1  41 0 0 200
2  72 28 0 0 200
0

0101000
-8 0 +6 0 *
Ed
 1e-007 1 1 0
1  42 0 0 200
2  73 28 0 0 200
0

0101000
-6 0 +10 0 *
Wi

0101000
-9 0 -7 0 +5 0 +4 0 *
Fa
0  1e-007 28 0

0101000
+3 0 *
Co

1100000
+138 0 +134 0 +121 0 +108 0 +95 0 +82 0 +48 0 -38 0 +25 0 +12 0 
-2 0 *

+1 0 