DBRep_DrawableShape

CASCADE Topology V1, (c) Matra-Datavision
Locations 0
Curve2ds 207
8 0 6.2831853071795862
1 0 1.5707963267948966 1 0 
8 4.7123889803846897 7.8539816339744828
1 6.2831853071795862 -6.2831853071795862 0 1 
8 4.7123889803846897 7.8539816339744828
1 0 -6.2831853071795862 0 1 
8 0 6.2831853071795862
1 0 -1.5707963267948966 1 0 
8 0 6.2831853071795862
1 0 1.5707963267948966 1 0 
8 4.7123889803846897 7.8539816339744828
1 6.2831853071795862 -6.2831853071795862 0 1 
8 4.7123889803846897 7.8539816339744828
1 0 -6.2831853071795862 0 1 
8 0 6.2831853071795862
1 0 -1.5707963267948966 1 0 
8 0 6.2831853071795862
1 0 1.5707963267948966 1 0 
8 4.7123889803846897 7.8539816339744828
1 6.2831853071795862 -6.2831853071795862 0 1 
8 4.7123889803846897 7.8539816339744828
1 0 -6.2831853071795862 0 1 
8 0 6.2831853071795862
1 0 -1.5707963267948966 1 0 
8 0 6.2831853071795862
1 0 1.5707963267948966 1 0 
8 4.7123889803846897 7.8539816339744828
1 6.2831853071795862 -6.2831853071795862 0 1 
8 4.7123889803846897 7.8539816339744828
1 0 -6.2831853071795862 0 1 
8 0 6.2831853071795862
1 0 -1.5707963267948966 1 0 
8 0 6.2831853071795862
1 0 1.5707963267948966 1 0 
8 4.7123889803846897 7.8539816339744828
1 6.2831853071795862 -6.2831853071795862 0 1 
8 4.7123889803846897 7.8539816339744828
1 0 -6.2831853071795862 0 1 
8 0 6.2831853071795862
1 0 -1.5707963267948966 1 0 
8 0 6.2831853071795862
2 19.999999820517722 0 -1 0 0 1 19.999999820517722
8 0 6.2831853071795862
1 0 1.5707963267948966 1 0 
8 4.7123889803846897 7.8539816339744828
1 6.2831853071795862 -6.2831853071795862 0 1 
8 4.7123889803846897 7.8539816339744828
1 0 -6.2831853071795862 0 1 
8 0 6.2831853071795862
1 0 -1.5707963267948966 1 0 
1 0 1.5707963267948966 1 0 
1 6.2831853071795862 -6.2831853071795862 0 1 
1 0 -6.2831853071795862 0 1 
1 0 -1.5707963267948966 1 0 
8 1.000000000000002 5.0000000000000098
1 6.2831853071795862 0 0 1 
8 1.000000000000002 5.0000000000000098
1 0 0 0 1 
8 0 6.2831853071795862
1 0 1.000000000000002 1 0 
8 0 6.2831853071795862
1 0 0 1 0 
8 0 6.2831853071795862
1 0 5.0000000000000098 1 0 
8 0 6.2831853071795862
1 0 0 1 0 
8 0 1.5707963267948966
1 6.2831853071795862 0 0 1 
8 0 1.5707963267948966
1 0 0 0 1 
8 0 6.2831853071795862
1 0 1.5707963267948966 1 0 
2 0 0 1 0 -0 1 49.000000000000099
8 0 1.5707963267948966
1 6.2831853071795862 0 0 1 
8 0 1.5707963267948966
1 0 0 0 1 
8 0 6.2831853071795862
1 0 1.5707963267948966 1 0 
2 0 0 1 0 -0 1 49.000000000000099
8 0 6.2831853071795862
1 0 19.000000000000039 1 0 
8 0 6.2831853071795862
2 0 0 1 0 -0 1 0.500000000000001
8 0 19.000000000000039
1 6.2831853071795862 0 0 1 
8 0 19.000000000000039
1 0 0 0 1 
8 0 6.2831853071795862
1 0 0 1 0 
8 0 6.2831853071795862
2 0 0 1 0 -0 1 0.500000000000001
8 0 6.2831853071795862
1 0 28.284000074021815 1 0 
8 0 6.2831853071795862
2 0 0 1 0 -0 1 0.49999999429524294
8 0 28.284000074021815
1 6.2831853071795862 0 0 1 
8 0 28.284000074021815
1 0 0 0 1 
8 0 6.2831853071795862
1 0 0 1 0 
8 0 6.2831853071795862
2 0 0 1 0 -0 1 0.49999999429524294
8 0 6.2831853071795862
1 0 21.000000000000043 1 0 
8 0 6.2831853071795862
2 0 0 1 0 -0 1 0.500000000000001
8 0 21.000000000000043
1 6.2831853071795862 0 0 1 
8 0 21.000000000000043
1 0 0 0 1 
8 0 6.2831853071795862
1 0 0 1 0 
8 0 6.2831853071795862
2 0 0 1 0 -0 1 0.500000000000001
8 0 6.2831853071795862
1 0 15.00000000000003 1 0 
8 0 6.2831853071795862
2 0 0 1 0 -0 1 0.500000000000001
8 0 15.00000000000003
1 6.2831853071795862 0 0 1 
8 0 15.00000000000003
1 0 0 0 1 
8 0 6.2831853071795862
1 0 0 1 0 
8 0 6.2831853071795862
2 0 0 1 0 -0 1 0.500000000000001
8 0 6.2831853071795862
1 0 17.000000000000036 1 0 
8 0 6.2831853071795862
2 0 0 1 0 -0 1 0.500000000000001
8 0 17.000000000000036
1 6.2831853071795862 0 0 1 
8 0 17.000000000000036
1 0 0 0 1 
8 0 6.2831853071795862
1 0 0 1 0 
8 0 6.2831853071795862
2 0 0 1 0 -0 1 0.500000000000001
8 0 6.2831853071795862
1 0 42.425999395765565 1 0 
8 0 6.2831853071795862
2 0 0 1 0 -0 1 0.50000000834419278
8 0 42.425999395765565
1 6.2831853071795862 0 0 1 
8 0 42.425999395765565
1 0 0 0 1 
8 0 6.2831853071795862
1 0 0 1 0 
8 0 6.2831853071795862
2 0 0 1 0 -0 1 0.50000000834419278
1 0 80 1 0 
2 0 0 1 0 -0 1 0.5
1 6.2831853071795862 -0 0 1 
1 0 -0 0 1 
1 0 0 1 0 
2 0 0 1 0 -0 1 0.5
8 0 200.0000000000004
1 0 0 0 1 
8 0 200.0000000000004
1 0 200.0000000000004 1 0 
8 0 200.0000000000004
1 200.0000000000004 200.0000000000004 0 -1 
8 0 200.0000000000004
1 200.0000000000004 0 -1 0 
8 0 6.2831853071795862
1 0 56.56899959871582 1 0 
8 0 6.2831853071795862
2 0 0 1 0 -0 1 0.49999999429524294
8 0 56.56899959871582
1 6.2831853071795862 0 0 1 
8 0 56.56899959871582
1 0 0 0 1 
8 0 6.2831853071795862
1 0 0 1 0 
8 0 6.2831853071795862
2 0 0 1 0 -0 1 0.49999999429524294
8 0 6.2831853071795862
1 0 25.00000000000005 1 0 
8 0 6.2831853071795862
2 0 0 1 0 -0 1 0.500000000000001
8 0 25.00000000000005
1 6.2831853071795862 0 0 1 
8 0 25.00000000000005
1 0 0 0 1 
8 0 6.2831853071795862
1 0 0 1 0 
8 0 6.2831853071795862
2 0 0 1 0 -0 1 0.500000000000001
8 0 6.2831853071795862
1 0 10.00000000000002 1 0 
8 0 6.2831853071795862
2 0 0 1 0 -0 1 0.500000000000001
8 0 10.00000000000002
1 6.2831853071795862 0 0 1 
8 0 10.00000000000002
1 0 0 0 1 
8 0 6.2831853071795862
1 0 0 1 0 
8 0 6.2831853071795862
2 0 0 1 0 -0 1 0.500000000000001
8 0 6.2831853071795862
1 0 10.00000000000002 1 0 
8 0 6.2831853071795862
2 0 0 1 0 -0 1 0.500000000000001
8 0 10.00000000000002
1 6.2831853071795862 0 0 1 
8 0 10.00000000000002
1 0 0 0 1 
8 0 6.2831853071795862
1 0 0 1 0 
8 0 6.2831853071795862
2 0 0 1 0 -0 1 0.500000000000001
1 0 0 0 1 
1 0 200 1 0 
1 200 200 0 -1 
1 200 0 -1 0 
8 0.10000000149011631 1.8999999985098877
1 6.2831853071795862 0 0 1 
8 0.10000000149011631 1.8999999985098877
1 0 0 0 1 
8 0 6.2831853071795862
1 0 0.10000000149011631 1 0 
8 0 6.2831853071795862
1 0 0 1 0 
8 0 6.2831853071795862
1 0 1.8999999985098877 1 0 
8 0 6.2831853071795862
1 0 0 1 0 
8 0 1.5707963267948966
1 6.2831853071795862 0 0 1 
8 0 1.5707963267948966
1 0 0 0 1 
8 0 6.2831853071795862
1 0 1.5707963267948966 1 0 
2 0 0 1 0 -0 1 0.89999999850988566
8 0 1.5707963267948966
1 6.2831853071795862 0 0 1 
8 0 1.5707963267948966
1 0 0 0 1 
8 0 6.2831853071795862
1 0 1.5707963267948966 1 0 
2 0 0 1 0 -0 1 0.89999999850988566
8 0.10000000149011631 1.8999999985098877
1 6.2831853071795862 0 0 1 
8 0.10000000149011631 1.8999999985098877
1 0 0 0 1 
8 0 6.2831853071795862
1 0 0.10000000149011631 1 0 
8 0 6.2831853071795862
1 0 0 1 0 
8 0 6.2831853071795862
1 0 1.8999999985098877 1 0 
8 0 6.2831853071795862
1 0 0 1 0 
8 0 1.5707963267948966
1 6.2831853071795862 0 0 1 
8 0 1.5707963267948966
1 0 0 0 1 
8 0 6.2831853071795862
1 0 1.5707963267948966 1 0 
2 0 0 1 0 -0 1 3.8999999985098919
8 0 1.5707963267948966
1 6.2831853071795862 0 0 1 
8 0 1.5707963267948966
1 0 0 0 1 
8 0 6.2831853071795862
1 0 1.5707963267948966 1 0 
2 0 0 1 0 -0 1 3.8999999985098919
1 0 1.5707963267948966 1 0 
1 6.2831853071795862 -6.2831853071795862 0 1 
1 0 -6.2831853071795862 0 1 
1 0 -1.5707963267948966 1 0 
1 0 1.5707963267948966 1 0 
1 6.2831853071795862 -6.2831853071795862 0 1 
1 0 -6.2831853071795862 0 1 
1 0 -1.5707963267948966 1 0 
1 0 1.5707963267948966 1 0 
1 6.2831853071795862 -6.2831853071795862 0 1 
1 0 -6.2831853071795862 0 1 
1 0 -1.5707963267948966 1 0 
1 0 1.5707963267948966 1 0 
1 6.2831853071795862 -6.2831853071795862 0 1 
1 0 -6.2831853071795862 0 1 
1 0 -1.5707963267948966 1 0 
1 0 1.5707963267948966 1 0 
1 6.2831853071795862 -6.2831853071795862 0 1 
1 0 -6.2831853071795862 0 1 
1 0 -1.5707963267948966 1 0 
8 0.10000000149011631 1.8999999985098877
1 6.2831853071795862 0 0 1 
8 0.10000000149011631 1.8999999985098877
1 0 0 0 1 
8 0 6.2831853071795862
1 0 0.10000000149011631 1 0 
8 0 6.2831853071795862
1 0 0 1 0 
8 0 6.2831853071795862
1 0 1.8999999985098877 1 0 
8 0 6.2831853071795862
1 0 0 1 0 
8 0 1.5707963267948966
1 6.2831853071795862 0 0 1 
8 0 1.5707963267948966
1 0 0 0 1 
8 0 6.2831853071795862
1 0 1.5707963267948966 1 0 
2 0 0 1 0 -0 1 0.89999999850988566
8 0 1.5707963267948966
1 6.2831853071795862 0 0 1 
8 0 1.5707963267948966
1 0 0 0 1 
8 0 6.2831853071795862
1 0 1.5707963267948966 1 0 
2 0 0 1 0 -0 1 0.89999999850988566
8 0.10000000149011631 1.8999999985098877
1 6.2831853071795862 0 0 1 
8 0.10000000149011631 1.8999999985098877
1 0 0 0 1 
8 0 6.2831853071795862
1 0 0.10000000149011631 1 0 
8 0 6.2831853071795862
1 0 0 1 0 
8 0 6.2831853071795862
1 0 1.8999999985098877 1 0 
8 0 6.2831853071795862
1 0 0 1 0 
8 0 1.5707963267948966
1 6.2831853071795862 0 0 1 
8 0 1.5707963267948966
1 0 0 0 1 
8 0 6.2831853071795862
1 0 1.5707963267948966 1 0 
2 0 0 1 0 -0 1 1.8999999985098877
8 0 1.5707963267948966
1 6.2831853071795862 0 0 1 
8 0 1.5707963267948966
1 0 0 0 1 
8 0 6.2831853071795862
1 0 1.5707963267948966 1 0 
2 0 0 1 0 -0 1 1.8999999985098877
8 0.10000000149011631 1.8999999985098877
1 6.2831853071795862 0 0 1 
8 0.10000000149011631 1.8999999985098877
1 0 0 0 1 
8 0 6.2831853071795862
1 0 0.10000000149011631 1 0 
8 0 6.2831853071795862
1 0 0 1 0 
8 0 6.2831853071795862
1 0 1.8999999985098877 1 0 
8 0 6.2831853071795862
1 0 0 1 0 
8 0 1.5707963267948966
1 6.2831853071795862 0 0 1 
8 0 1.5707963267948966
1 0 0 0 1 
8 0 6.2831853071795862
1 0 1.5707963267948966 1 0 
2 0 0 1 0 -0 1 2.8999999985098897
8 0 1.5707963267948966
1 6.2831853071795862 0 0 1 
8 0 1.5707963267948966
1 0 0 0 1 
8 0 6.2831853071795862
1 0 1.5707963267948966 1 0 
2 0 0 1 0 -0 1 2.8999999985098897
Curves 96
2 30 0 30 -2.4492935982947138e-016 -7.5497901264043123e-008 -0.99999999999999722 1 -1.8491652625070715e-023 -2.4492935982947064e-016 0 -0.99999999999999711 7.5497901264043109e-008 5.0000000000000098
2 0 0 80 -2.4492935982947138e-016 -7.5497901264043123e-008 -0.99999999999999722 1 -1.8491652625070715e-023 -2.4492935982947064e-016 0 -0.99999999999999711 7.5497901264043109e-008 5.0000000000000098
2 0 0 0 -2.4492935982947138e-016 -7.5497901264043123e-008 -0.99999999999999722 1 -1.8491652625070715e-023 -2.4492935982947064e-016 0 -0.99999999999999711 7.5497901264043109e-008 10.00000000000002
2 10 0 80 0.99999999999999445 -7.5497901264043334e-008 -7.5497901508972255e-008 7.5497901508972467e-008 -1.8491652625070659e-023 0.99999999999999722 -7.5497901264043109e-008 -0.99999999999999722 5.6999333062441903e-015 2.0000000000000075
2 -40 0 -40 -2.4492935982947138e-016 -7.5497901264043123e-008 -0.99999999999999722 1 -1.8491652625070715e-023 -2.4492935982947064e-016 0 -0.99999999999999711 7.5497901264043109e-008 7.0000000000000142
2 -40 0 -40 -0.50000000673058553 -0.86602539989853 7.5497899202687926e-008 0.86602539989853256 -0.50000000673058698 0 3.7748950632021555e-008 6.5383098046822666e-008 0.99999999999999711 19.999999820517722
2 20 0 -20 -2.4492935982947138e-016 -7.5497901264043123e-008 -0.99999999999999722 1 -1.8491652625070715e-023 -2.4492935982947064e-016 0 -0.99999999999999711 7.5497901264043109e-008 3.0000000000000062
2 0 0 80 -2.4492935982947064e-016 -1 0 1 -2.4492935982947064e-016 0 0 0 1 5.0100002288818359
1 50 -22 -1.2246467991473532e-014 0 -0.99999999999999722 7.5497901264043123e-008 
2 0 -23 7.5497901264043321e-008 0 -0.99999999999999722 7.5497901264043123e-008 1 0 0 0 7.5497901264043123e-008 0.99999999999999722 50.000000000000099
2 0 -27 3.7748950632021661e-007 0 -0.99999999999999722 7.5497901264043123e-008 1 0 0 0 7.5497901264043123e-008 0.99999999999999722 50.000000000000099
2 49 -23 7.5497901264043321e-008 -0 7.5497901264043123e-008 0.99999999999999722 1 0 0 0 0.99999999999999722 -7.5497901264043123e-008 1.000000000000002
2 0 -22 0 0 -0.99999999999999722 7.5497901264043123e-008 1 0 0 0 7.5497901264043123e-008 0.99999999999999722 49.000000000000099
2 49 -27 3.7748950632021661e-007 0 -7.5497901264043123e-008 -0.99999999999999722 1 0 0 0 -0.99999999999999722 7.5497901264043123e-008 1.000000000000002
2 0 -28 4.5298740758425998e-007 0 -0.99999999999999722 7.5497901264043123e-008 1 0 0 0 7.5497901264043123e-008 0.99999999999999722 49.000000000000099
2 -40 -19 -39.999998565539876 0 -0.99999999999999722 7.5497901264043123e-008 1 0 0 0 7.5497901264043109e-008 0.99999999999999711 0.500000000000001
1 -39.5 -9.2458263125353575e-024 -40 0 -0.99999999999999711 7.5497901264043109e-008 
2 -40 0 -40 0 -0.99999999999999722 7.5497901264043123e-008 1 0 0 0 7.5497901264043109e-008 0.99999999999999711 0.500000000000001
2 19.999808137327587 -15 -19.999808137327587 0.70710678118654757 0 -0.70710678118654757 -0.70710678118654757 0 -0.70710678118654757 0 1 0 0.49999999429524294
1 -0.35355338454246515 -15 -0.35355338454246515 0.70710678118654757 0 -0.70710678118654757 
2 0 -15 0 0.70710678118654757 0 -0.70710678118654757 -0.70710678118654757 0 -0.70710678118654757 0 1 0 0.49999999429524294
2 0 -21 80.000001585455934 0 -0.99999999999999722 7.5497901264043123e-008 1 0 0 0 7.5497901264043109e-008 0.99999999999999711 0.500000000000001
1 0.5 -9.2458263125353575e-024 80 0 -0.99999999999999711 7.5497901264043109e-008 
2 0 0 80 0 -0.99999999999999722 7.5497901264043123e-008 1 0 0 0 7.5497901264043109e-008 0.99999999999999711 0.500000000000001
2 20 -15 -19.999998867531481 0 -0.99999999999999722 7.5497901264043123e-008 1 0 0 0 7.5497901264043109e-008 0.99999999999999711 0.500000000000001
1 20.5 -9.2458263125353575e-024 -20 0 -0.99999999999999711 7.5497901264043109e-008 
2 20 0 -20 0 -0.99999999999999722 7.5497901264043123e-008 1 0 0 0 7.5497901264043109e-008 0.99999999999999711 0.500000000000001
2 30 -17 30.000001283464321 0 -0.99999999999999722 7.5497901264043123e-008 1 0 0 0 7.5497901264043109e-008 0.99999999999999711 0.500000000000001
1 30.5 -9.2458263125353575e-024 30 0 -0.99999999999999711 7.5497901264043109e-008 
2 30 0 30 0 -0.99999999999999722 7.5497901264043123e-008 1 0 0 0 7.5497901264043109e-008 0.99999999999999711 0.500000000000001
2 29.999710857292261 -17 29.999713386078838 0.7071067513842253 -0 0.70710681098886852 0.70710681098886852 0 -0.7071067513842253 0 1 0 0.50000000834419278
1 0.3535534143447876 -17 -0.35355338454246521 0.7071067513842253 0 0.70710681098886852 
2 0 -17 0 0.7071067513842253 -0 0.70710681098886852 0.70710681098886852 0 -0.7071067513842253 0 1 0 0.50000000834419278
2 0 -21 80 0 0 1 1 0 0 0 1 0 0.5
1 0.5 -21 0 0 0 1 
2 0 -21 0 0 0 1 1 0 0 0 1 0 0.5
1 -100 -29 -100 0 7.5497901264043109e-008 0.99999999999999711 
1 -100 -28.999984900419747 100 1 0 0 
1 100 -28.999984900419747 100 0 -7.5497901264043109e-008 -0.99999999999999711 
1 100 -29 -100 -1 0 0 
2 -40.00032299299891 -19 -40.00032299299891 -0.70710678118654757 0 -0.70710678118654757 -0.70710678118654757 0 0.70710678118654757 0 1 0 0.49999999429524294
1 -0.35355338454246515 -19 0.35355338454246515 -0.70710678118654757 0 -0.70710678118654757 
2 0 -19 0 -0.70710678118654757 0 -0.70710678118654757 -0.70710678118654757 0 0.70710678118654757 0 1 0 0.49999999429524294
2 0 -25 1.8874475316010832e-006 0 -0.99999999999999722 7.5497901264043123e-008 1 0 0 0 7.5497901264043109e-008 0.99999999999999711 0.500000000000001
1 0.5 -9.2458263125353575e-024 -1.2246467991473532e-016 0 -0.99999999999999711 7.5497901264043109e-008 
2 0 0 0 0 -0.99999999999999722 7.5497901264043123e-008 1 0 0 0 7.5497901264043109e-008 0.99999999999999711 0.500000000000001
2 10 -10 80.000000754979013 0 -0.99999999999999722 7.5497901264043123e-008 1 0 0 0 7.5497901264043109e-008 0.99999999999999711 0.500000000000001
1 10.5 -9.2458263125353575e-024 80 0 -0.99999999999999711 7.5497901264043109e-008 
2 10 0 80 0 -0.99999999999999722 7.5497901264043123e-008 1 0 0 0 7.5497901264043109e-008 0.99999999999999711 0.500000000000001
2 10 -10 80.000000754979013 0.99999999999999722 -0 7.5497901264043123e-008 7.5497901264043109e-008 0 -0.99999999999999711 0 1 0 0.500000000000001
1 3.7748950632021661e-008 -10 79.5 0.99999999999999711 0 7.5497901264043109e-008 
2 0 -10 80 0.99999999999999722 -0 7.5497901264043123e-008 7.5497901264043109e-008 0 -0.99999999999999711 0 1 0 0.500000000000001
1 -100 -29 -100 0 1 0 
1 -100 171 -100 1 0 0 
1 100 171 -100 0 -1 0 
1 100 -29 -100 -1 0 0 
1 1 -9 80 0 -0.99999999999999711 7.5497901264043109e-008 
2 0 -9.1000000014901161 80.000000007549787 0 -0.99999999999999722 7.5497901264043123e-008 1 0 0 0 7.5497901264043109e-008 0.99999999999999711 1.000000000000002
2 0 -10.899999998509884 80.000000143446016 0 -0.99999999999999722 7.5497901264043123e-008 1 0 0 0 7.5497901264043109e-008 0.99999999999999711 1.000000000000002
2 0.89999999850988388 -9.1000000014901161 80.000000007549787 -0 7.5497901264043123e-008 0.99999999999999722 1 0 0 0 0.99999999999999711 -7.5497901264043109e-008 0.10000000149011631
2 0 -9 80 0 -0.99999999999999722 7.5497901264043123e-008 1 0 0 0 7.5497901264043109e-008 0.99999999999999711 0.89999999850988566
2 0.89999999850988388 -10.899999998509884 80.000000143446016 0 -7.5497901264043123e-008 -0.99999999999999722 1 0 0 0 -0.99999999999999711 7.5497901264043109e-008 0.10000000149011631
2 0 -11 80.000000150995803 0 -0.99999999999999722 7.5497901264043123e-008 1 0 0 0 7.5497901264043109e-008 0.99999999999999711 0.89999999850988566
1 4 -20 -9.7971743931788257e-016 0 -0.99999999999999711 7.5497901264043109e-008 
2 0 -20.100000001490116 7.5497902389049718e-009 0 -0.99999999999999722 7.5497901264043123e-008 1 0 0 0 7.5497901264043109e-008 0.99999999999999711 4.000000000000008
2 0 -21.899999998509884 1.434460122891817e-007 0 -0.99999999999999722 7.5497901264043123e-008 1 0 0 0 7.5497901264043109e-008 0.99999999999999711 4.000000000000008
2 3.8999999985098839 -20.100000001490116 7.5497902389049718e-009 -0 7.5497901264043123e-008 0.99999999999999722 1 0 0 0 0.99999999999999711 -7.5497901264043109e-008 0.10000000149011631
2 0 -20 0 0 -0.99999999999999722 7.5497901264043123e-008 1 0 0 0 7.5497901264043109e-008 0.99999999999999711 3.8999999985098919
2 3.8999999985098839 -21.899999998509884 1.434460122891817e-007 0 -7.5497901264043123e-008 -0.99999999999999722 1 0 0 0 -0.99999999999999711 7.5497901264043109e-008 0.10000000149011631
2 0 -22 1.5099580252808664e-007 0 -0.99999999999999722 7.5497901264043123e-008 1 0 0 0 7.5497901264043109e-008 0.99999999999999711 3.8999999985098919
2 0 -21 80 -2.4492935982947064e-016 -1 0 1 -2.4492935982947064e-016 0 0 0 1 0.75
2 -40 -19 -40 -2.4492935982947064e-016 -1 0 1 -2.4492935982947064e-016 0 0 0 1 0.75
2 10 -10 80 -2.4492935982947064e-016 -1 0 1 -2.4492935982947064e-016 0 0 0 1 0.75
2 30 -17 30 -2.4492935982947064e-016 -1 0 1 -2.4492935982947064e-016 0 0 0 1 0.75
2 20 -15 -20 -2.4492935982947064e-016 -1 0 1 -2.4492935982947064e-016 0 0 0 1 0.75
1 1 -14 -2.4492935982947064e-016 0 -0.99999999999999711 7.5497901264043109e-008 
2 0 -14.100000001490116 7.5497902389049718e-009 0 -0.99999999999999722 7.5497901264043123e-008 1 0 0 0 7.5497901264043109e-008 0.99999999999999711 1.000000000000002
2 0 -15.899999998509884 1.434460122891817e-007 0 -0.99999999999999722 7.5497901264043123e-008 1 0 0 0 7.5497901264043109e-008 0.99999999999999711 1.000000000000002
2 0.89999999850988388 -14.100000001490116 7.5497902389049718e-009 -0 7.5497901264043123e-008 0.99999999999999722 1 0 0 0 0.99999999999999711 -7.5497901264043109e-008 0.10000000149011631
2 0 -14 0 0 -0.99999999999999722 7.5497901264043123e-008 1 0 0 0 7.5497901264043109e-008 0.99999999999999711 0.89999999850988566
2 0.89999999850988388 -15.899999998509884 1.434460122891817e-007 0 -7.5497901264043123e-008 -0.99999999999999722 1 0 0 0 -0.99999999999999711 7.5497901264043109e-008 0.10000000149011631
2 0 -16 1.5099580252808664e-007 0 -0.99999999999999722 7.5497901264043123e-008 1 0 0 0 7.5497901264043109e-008 0.99999999999999711 0.89999999850988566
1 2 -16 -4.8985871965894128e-016 0 -0.99999999999999711 7.5497901264043109e-008 
2 0 -16.100000001490116 7.5497902389049718e-009 0 -0.99999999999999722 7.5497901264043123e-008 1 0 0 0 7.5497901264043109e-008 0.99999999999999711 2.000000000000004
2 0 -17.899999998509884 1.434460122891817e-007 0 -0.99999999999999722 7.5497901264043123e-008 1 0 0 0 7.5497901264043109e-008 0.99999999999999711 2.000000000000004
2 1.8999999985098839 -16.100000001490116 7.5497902389049718e-009 -0 7.5497901264043123e-008 0.99999999999999722 1 0 0 0 0.99999999999999711 -7.5497901264043109e-008 0.10000000149011631
2 0 -16 0 0 -0.99999999999999722 7.5497901264043123e-008 1 0 0 0 7.5497901264043109e-008 0.99999999999999711 1.8999999985098877
2 1.8999999985098839 -17.899999998509884 1.434460122891817e-007 0 -7.5497901264043123e-008 -0.99999999999999722 1 0 0 0 -0.99999999999999711 7.5497901264043109e-008 0.10000000149011631
2 0 -18 1.5099580252808664e-007 0 -0.99999999999999722 7.5497901264043123e-008 1 0 0 0 7.5497901264043109e-008 0.99999999999999711 1.8999999985098877
1 2.9999999999999996 -18 -7.3478807948841188e-016 0 -0.99999999999999711 7.5497901264043109e-008 
2 0 -18.100000001490116 7.5497902389049718e-009 0 -0.99999999999999722 7.5497901264043123e-008 1 0 0 0 7.5497901264043109e-008 0.99999999999999711 3.0000000000000062
2 0 -19.899999998509884 1.434460122891817e-007 0 -0.99999999999999722 7.5497901264043123e-008 1 0 0 0 7.5497901264043109e-008 0.99999999999999711 3.0000000000000062
2 2.8999999985098839 -18.100000001490116 7.5497902389049718e-009 -0 7.5497901264043123e-008 0.99999999999999722 1 0 0 0 0.99999999999999711 -7.5497901264043109e-008 0.10000000149011631
2 0 -18 0 0 -0.99999999999999722 7.5497901264043123e-008 1 0 0 0 7.5497901264043109e-008 0.99999999999999711 2.8999999985098897
2 2.8999999985098839 -19.899999998509884 1.434460122891817e-007 0 -7.5497901264043123e-008 -0.99999999999999722 1 0 0 0 -0.99999999999999711 7.5497901264043109e-008 0.10000000149011631
2 0 -20 1.5099580252808664e-007 0 -0.99999999999999722 7.5497901264043123e-008 1 0 0 0 7.5497901264043109e-008 0.99999999999999711 2.8999999985098897
Polygon3D 0
PolygonOnTriangulations 0
Surfaces 78
4 30 0 30 0 -0.99999999999999711 7.5497901264043109e-008 1 0 0 0 7.5497901264043109e-008 0.99999999999999711 5.0000000000000098
4 0 0 80 0 -0.99999999999999711 7.5497901264043109e-008 1 0 0 0 7.5497901264043109e-008 0.99999999999999711 5.0000000000000098
4 0 0 0 0 -0.99999999999999711 7.5497901264043109e-008 1 0 0 0 7.5497901264043109e-008 0.99999999999999711 10.00000000000002
4 10 0 80 -7.5497901264043109e-008 -0.99999999999999722 5.6999333062441903e-015 7.5497901264043109e-008 0 0.99999999999999722 -0.99999999999999445 7.5497901264042898e-008 7.5497901264042898e-008 2.0000000000000075
4 -40 0 -40 0 -0.99999999999999711 7.5497901264043109e-008 1 0 0 0 7.5497901264043109e-008 0.99999999999999711 7.0000000000000142
1 -22.679492235183719 -10 -40 0.50000000673058553 0.86602539989853 -7.5497902280333476e-008 -0.86602539989853256 0.50000000673058698 0 3.7748950632021555e-008 6.5383098046822666e-008 0.99999999999999711 
4 20 0 -20 0 -0.99999999999999711 7.5497901264043109e-008 1 0 0 0 7.5497901264043109e-008 0.99999999999999711 3.0000000000000062
4 0 0 80 0 0 1 1 0 0 0 1 0 5.0100002288818359
2 0 -22 0 0 -0.99999999999999722 7.5497901264043123e-008 1 0 0 0 7.5497901264043123e-008 0.99999999999999722 50.000000000000099
5 0 -23 7.5497901264043321e-008 0 0.99999999999999722 -7.5497901264043123e-008 1 0 0 0 7.5497901264043123e-008 0.99999999999999722 49.000000000000099 1.000000000000002
5 0 -27 3.7748950632021661e-007 0 -0.99999999999999722 7.5497901264043123e-008 1 0 0 0 7.5497901264043123e-008 0.99999999999999722 49.000000000000099 1.000000000000002
1 0 -22 0 0 -0.99999999999999722 7.5497901264043123e-008 1 0 0 0 7.5497901264043123e-008 0.99999999999999722 
1 0 -28 4.5298740758425998e-007 0 -0.99999999999999722 7.5497901264043123e-008 1 0 0 0 7.5497901264043123e-008 0.99999999999999722 
2 -40 0 -40 0 -0.99999999999999711 7.5497901264043109e-008 1 0 0 0 7.5497901264043109e-008 0.99999999999999711 0.500000000000001
1 -40 -19 -39.999998565539876 0 -0.99999999999999711 7.5497901264043109e-008 1 0 0 0 7.5497901264043109e-008 0.99999999999999711 
1 -40 0 -40 0 -0.99999999999999711 7.5497901264043109e-008 1 0 0 0 7.5497901264043109e-008 0.99999999999999711 
2 0 -15 0 0.70710678118654757 0 -0.70710678118654757 -0.70710678118654757 0 -0.70710678118654757 0 1 0 0.49999999429524294
1 19.999808137327587 -15 -19.999808137327587 0.70710678118654757 0 -0.70710678118654757 -0.70710678118654757 0 -0.70710678118654757 0 1 0 
1 0 -15 0 0.70710678118654757 0 -0.70710678118654757 -0.70710678118654757 0 -0.70710678118654757 0 1 0 
2 0 0 80 0 -0.99999999999999711 7.5497901264043109e-008 1 0 0 0 7.5497901264043109e-008 0.99999999999999711 0.500000000000001
1 0 -21 80.000001585455934 0 -0.99999999999999711 7.5497901264043109e-008 1 0 0 0 7.5497901264043109e-008 0.99999999999999711 
1 0 0 80 0 -0.99999999999999711 7.5497901264043109e-008 1 0 0 0 7.5497901264043109e-008 0.99999999999999711 
2 20 0 -20 0 -0.99999999999999711 7.5497901264043109e-008 1 0 0 0 7.5497901264043109e-008 0.99999999999999711 0.500000000000001
1 20 -15 -19.999998867531481 0 -0.99999999999999711 7.5497901264043109e-008 1 0 0 0 7.5497901264043109e-008 0.99999999999999711 
1 20 0 -20 0 -0.99999999999999711 7.5497901264043109e-008 1 0 0 0 7.5497901264043109e-008 0.99999999999999711 
2 30 0 30 0 -0.99999999999999711 7.5497901264043109e-008 1 0 0 0 7.5497901264043109e-008 0.99999999999999711 0.500000000000001
1 30 -17 30.000001283464321 0 -0.99999999999999711 7.5497901264043109e-008 1 0 0 0 7.5497901264043109e-008 0.99999999999999711 
1 30 0 30 0 -0.99999999999999711 7.5497901264043109e-008 1 0 0 0 7.5497901264043109e-008 0.99999999999999711 
2 0 -17 0 0.7071067513842253 0 0.70710681098886852 0.70710681098886852 0 -0.7071067513842253 0 1 0 0.50000000834419278
1 29.999710857292261 -17 29.999713386078838 0.7071067513842253 0 0.70710681098886852 0.70710681098886852 0 -0.7071067513842253 0 1 0 
1 0 -17 0 0.7071067513842253 0 0.70710681098886852 0.70710681098886852 0 -0.7071067513842253 0 1 0 
2 0 -21 0 0 0 1 1 0 0 0 1 0 0.5
1 0 -21 80 0 0 1 1 0 0 0 1 0 
1 0 -21 0 0 0 1 1 0 0 0 1 0 
1 -100 -29 -100 0 -0.99999999999999711 7.5497901264043109e-008 1 0 0 0 7.5497901264043109e-008 0.99999999999999711 
2 0 -19 0 -0.70710678118654757 0 -0.70710678118654757 -0.70710678118654757 0 0.70710678118654757 0 1 0 0.49999999429524294
1 -40.00032299299891 -19 -40.00032299299891 -0.70710678118654757 0 -0.70710678118654757 -0.70710678118654757 0 0.70710678118654757 0 1 0 
1 0 -19 0 -0.70710678118654757 0 -0.70710678118654757 -0.70710678118654757 0 0.70710678118654757 0 1 0 
2 0 0 0 0 -0.99999999999999711 7.5497901264043109e-008 1 0 0 0 7.5497901264043109e-008 0.99999999999999711 0.500000000000001
1 0 -25 1.8874475316010832e-006 0 -0.99999999999999711 7.5497901264043109e-008 1 0 0 0 7.5497901264043109e-008 0.99999999999999711 
1 0 0 0 0 -0.99999999999999711 7.5497901264043109e-008 1 0 0 0 7.5497901264043109e-008 0.99999999999999711 
2 10 0 80 0 -0.99999999999999711 7.5497901264043109e-008 1 0 0 0 7.5497901264043109e-008 0.99999999999999711 0.500000000000001
1 10 -10 80.000000754979013 0 -0.99999999999999711 7.5497901264043109e-008 1 0 0 0 7.5497901264043109e-008 0.99999999999999711 
1 10 0 80 0 -0.99999999999999711 7.5497901264043109e-008 1 0 0 0 7.5497901264043109e-008 0.99999999999999711 
2 0 -10 80 0.99999999999999711 0 7.5497901264043109e-008 7.5497901264043109e-008 0 -0.99999999999999711 0 1 0 0.500000000000001
1 10 -10 80.000000754979013 0.99999999999999711 0 7.5497901264043109e-008 7.5497901264043109e-008 0 -0.99999999999999711 0 1 0 
1 0 -10 80 0.99999999999999711 0 7.5497901264043109e-008 7.5497901264043109e-008 0 -0.99999999999999711 0 1 0 
1 -100 -29 -100 0 0 1 1 0 0 0 1 0 
2 0 -9 80 0 -0.99999999999999711 7.5497901264043109e-008 1 0 0 0 7.5497901264043109e-008 0.99999999999999711 1.000000000000002
5 0 -9.1000000014901161 80.000000007549787 -0 0.99999999999999711 -7.5497901264043109e-008 1 0 0 0 7.5497901264043109e-008 0.99999999999999711 0.89999999850988566 0.10000000149011631
5 0 -10.899999998509884 80.000000143446016 0 -0.99999999999999711 7.5497901264043109e-008 1 0 0 0 7.5497901264043109e-008 0.99999999999999711 0.89999999850988566 0.10000000149011631
1 0 -9 80 0 -0.99999999999999711 7.5497901264043109e-008 1 0 0 0 7.5497901264043109e-008 0.99999999999999711 
1 0 -11 80.000000150995803 0 -0.99999999999999711 7.5497901264043109e-008 1 0 0 0 7.5497901264043109e-008 0.99999999999999711 
2 0 -20 0 0 -0.99999999999999711 7.5497901264043109e-008 1 0 0 0 7.5497901264043109e-008 0.99999999999999711 4.000000000000008
5 0 -20.100000001490116 7.5497902389049718e-009 -0 0.99999999999999711 -7.5497901264043109e-008 1 0 0 0 7.5497901264043109e-008 0.99999999999999711 3.8999999985098919 0.10000000149011631
5 0 -21.899999998509884 1.434460122891817e-007 0 -0.99999999999999711 7.5497901264043109e-008 1 0 0 0 7.5497901264043109e-008 0.99999999999999711 3.8999999985098919 0.10000000149011631
1 0 -20 0 0 -0.99999999999999711 7.5497901264043109e-008 1 0 0 0 7.5497901264043109e-008 0.99999999999999711 
1 0 -22 1.5099580252808664e-007 0 -0.99999999999999711 7.5497901264043109e-008 1 0 0 0 7.5497901264043109e-008 0.99999999999999711 
4 0 -21 80 0 0 1 1 0 0 0 1 0 0.75
4 -40 -19 -40 0 0 1 1 0 0 0 1 0 0.75
4 10 -10 80 0 0 1 1 0 0 0 1 0 0.75
4 30 -17 30 0 0 1 1 0 0 0 1 0 0.75
4 20 -15 -20 0 0 1 1 0 0 0 1 0 0.75
2 0 -14 0 0 -0.99999999999999711 7.5497901264043109e-008 1 0 0 0 7.5497901264043109e-008 0.99999999999999711 1.000000000000002
5 0 -14.100000001490116 7.5497902389049718e-009 -0 0.99999999999999711 -7.5497901264043109e-008 1 0 0 0 7.5497901264043109e-008 0.99999999999999711 0.89999999850988566 0.10000000149011631
5 0 -15.899999998509884 1.434460122891817e-007 0 -0.99999999999999711 7.5497901264043109e-008 1 0 0 0 7.5497901264043109e-008 0.99999999999999711 0.89999999850988566 0.10000000149011631
1 0 -14 0 0 -0.99999999999999711 7.5497901264043109e-008 1 0 0 0 7.5497901264043109e-008 0.99999999999999711 
1 0 -16 1.5099580252808664e-007 0 -0.99999999999999711 7.5497901264043109e-008 1 0 0 0 7.5497901264043109e-008 0.99999999999999711 
2 0 -16 0 0 -0.99999999999999711 7.5497901264043109e-008 1 0 0 0 7.5497901264043109e-008 0.99999999999999711 2.000000000000004
5 0 -16.100000001490116 7.5497902389049718e-009 -0 0.99999999999999711 -7.5497901264043109e-008 1 0 0 0 7.5497901264043109e-008 0.99999999999999711 1.8999999985098877 0.10000000149011631
5 0 -17.899999998509884 1.434460122891817e-007 0 -0.99999999999999711 7.5497901264043109e-008 1 0 0 0 7.5497901264043109e-008 0.99999999999999711 1.8999999985098877 0.10000000149011631
1 0 -16 0 0 -0.99999999999999711 7.5497901264043109e-008 1 0 0 0 7.5497901264043109e-008 0.99999999999999711 
1 0 -18 1.5099580252808664e-007 0 -0.99999999999999711 7.5497901264043109e-008 1 0 0 0 7.5497901264043109e-008 0.99999999999999711 
2 0 -18 0 0 -0.99999999999999711 7.5497901264043109e-008 1 0 0 0 7.5497901264043109e-008 0.99999999999999711 3.0000000000000062
5 0 -18.100000001490116 7.5497902389049718e-009 -0 0.99999999999999711 -7.5497901264043109e-008 1 0 0 0 7.5497901264043109e-008 0.99999999999999711 2.8999999985098897 0.10000000149011631
5 0 -19.899999998509884 1.434460122891817e-007 0 -0.99999999999999711 7.5497901264043109e-008 1 0 0 0 7.5497901264043109e-008 0.99999999999999711 2.8999999985098897 0.10000000149011631
1 0 -18 0 0 -0.99999999999999711 7.5497901264043109e-008 1 0 0 0 7.5497901264043109e-008 0.99999999999999711 
1 0 -20 1.5099580252808664e-007 0 -0.99999999999999711 7.5497901264043109e-008 1 0 0 0 7.5497901264043109e-008 0.99999999999999711 
Triangulations 0

TShapes 414
Ve
1e-007
30 -5 30.0000003774895
0 0

0101101
*
Ed
 1e-007 1 1 1
2  1 1 0 0 6.28318530717959
0

0101100
+414 0 -414 0 *
Ve
1e-007
30 5 29.9999996225105
0 0

0101101
*
Ed
 1e-007 1 1 0
1  1 0 4.71238898038469 7.85398163397448
3  2 3CN 1 0 4.71238898038469 7.85398163397448
0

0101000
-414 0 +412 0 *
Ed
 1e-007 1 1 1
2  4 1 0 0 6.28318530717959
0

0101100
+412 0 -412 0 *
Wi

0101000
-413 0 +411 0 +410 0 -411 0 *
Fa
0  1e-007 1 0

0101000
+409 0 *
Sh

0101100
+408 0 *
So

0100100
+407 0 *
Ve
1e-007
3.06161699786838e-016 -5 80.0000003774895
0 0

0101101
*
Ed
 1e-007 1 1 1
2  5 2 0 0 6.28318530717959
0

0101100
+405 0 -405 0 *
Ve
1e-007
3.06161699786838e-016 5 79.9999996225105
0 0

0101101
*
Ed
 1e-007 1 1 0
1  2 0 4.71238898038469 7.85398163397448
3  6 7CN 2 0 4.71238898038469 7.85398163397448
0

0101000
-405 0 +403 0 *
Ed
 1e-007 1 1 1
2  8 2 0 0 6.28318530717959
0

0101100
+403 0 -403 0 *
Wi

0101000
-404 0 +402 0 +401 0 -402 0 *
Fa
0  1e-007 2 0

0101000
+400 0 *
Sh

0101100
+399 0 *
So

0100100
+398 0 *
Ve
1e-007
6.12323399573677e-016 -10 7.54979012640433e-007
0 0

0101101
*
Ed
 1e-007 1 1 1
2  9 3 0 0 6.28318530717959
0

0101100
+396 0 -396 0 *
Ve
1e-007
6.12323399573677e-016 10 -7.54979012640433e-007
0 0

0101101
*
Ed
 1e-007 1 1 0
1  3 0 4.71238898038469 7.85398163397448
3  10 11CN 3 0 4.71238898038469 7.85398163397448
0

0101000
-396 0 +394 0 *
Ed
 1e-007 1 1 1
2  12 3 0 0 6.28318530717959
0

0101100
+394 0 -394 0 *
Wi

0101000
-395 0 +393 0 +392 0 -393 0 *
Fa
0  1e-007 3 0

0101000
+391 0 *
Sh

0101100
+390 0 *
So

0100100
+389 0 *
Ve
1e-007
9.9999998490042 -2 80
0 0

0101101
*
Ed
 1e-007 1 1 1
2  13 4 0 0 6.28318530717959
0

0101100
+387 0 -387 0 *
Ve
1e-007
10.0000001509958 2 80
0 0

0101101
*
Ed
 1e-007 1 1 0
1  4 0 4.71238898038469 7.85398163397448
3  14 15CN 4 0 4.71238898038469 7.85398163397448
0

0101000
-387 0 +385 0 *
Ed
 1e-007 1 1 1
2  16 4 0 0 6.28318530717959
0

0101100
+385 0 -385 0 *
Wi

0101000
-386 0 +384 0 +383 0 -384 0 *
Fa
0  1e-007 4 0

0101000
+382 0 *
Sh

0101100
+381 0 *
So

0100100
+380 0 *
Ve
1e-007
-40 -7 -39.9999994715147
0 0

0101101
*
Ed
 1e-007 1 1 1
2  17 5 0 0 6.28318530717959
0

0101100
+378 0 -378 0 *
Ve
1e-007
-40 7 -40.0000005284853
0 0

0101101
*
Ed
 1e-007 1 1 0
1  5 0 4.71238898038469 7.85398163397448
3  18 19CN 5 0 4.71238898038469 7.85398163397448
0

0101000
-378 0 +376 0 *
Ed
 1e-007 1 1 1
2  20 5 0 0 6.28318530717959
0

0101100
+376 0 -376 0 *
Wi

0101000
-377 0 +375 0 +374 0 -375 0 *
Fa
0  1e-007 5 0

0101000
+373 0 *
Sh

0101100
+372 0 *
So

0100100
+371 0 *
Ve
1e-007
-22.6794922351837 -10 -40
0 0

0101101
*
Ed
 9.99999991025886e-008 1 1 0
1  6 0 0 6.28318530717959
2  21 6 0 0 6.28318530717959
0

0101100
+369 0 -369 0 *
Wi

0101100
+368 0 *
Fa
0  9.99999991025886e-008 6 0

0101000
-367 0 *
Ve
1e-007
20 -3 -19.9999997735063
0 0

0101101
*
Ed
 1e-007 1 1 1
2  22 7 0 0 6.28318530717959
0

0101100
+365 0 -365 0 *
Ve
1e-007
20 3 -20.0000002264937
0 0

0101101
*
Ed
 1e-007 1 1 0
1  7 0 4.71238898038469 7.85398163397448
3  23 24CN 7 0 4.71238898038469 7.85398163397448
0

0101000
-365 0 +363 0 *
Ed
 1e-007 1 1 1
2  25 7 0 0 6.28318530717959
0

0101100
+363 0 -363 0 *
Wi

0101000
-364 0 +362 0 +361 0 -362 0 *
Fa
0  1e-007 7 0

0101000
+360 0 *
Sh

0101100
+359 0 *
So

0100100
+358 0 *
Ve
1e-007
3.06774037201382e-016 -7.51379685440368e-032 85.0100002288818
0 0

0101101
*
Ed
 1e-007 1 1 1
2  26 8 0 0 6.28318530717959
0

0101100
+356 0 -356 0 *
Ve
1e-007
3.06774037201382e-016 -7.51379685440368e-032 74.9899997711182
0 0

0101101
*
Ed
 1e-007 1 1 0
1  8 0 4.71238898038469 7.85398163397448
3  27 28CN 8 0 4.71238898038469 7.85398163397448
0

0101000
-356 0 +354 0 *
Ed
 1e-007 1 1 1
2  29 8 0 0 6.28318530717959
0

0101100
+354 0 -354 0 *
Wi

0101000
-355 0 +353 0 +352 0 -353 0 *
Fa
0  1e-007 8 0

0101000
+351 0 *
Sh

0101100
+350 0 *
So

0100100
+349 0 *
Ve
1e-007
50 -23 7.54979012640433e-008
0 0

0101101
*
Ve
1e-007
50 -27 3.77489506320217e-007
0 0

0101101
*
Ed
 1e-007 1 1 0
1  9 0 1 5.00000000000001
3  30 31C0 9 0 1 5.00000000000001
0

0101000
+347 0 -346 0 *
Ed
 1e-007 1 1 0
1  10 0 0 6.28318530717959
2  32 9 0 0 6.28318530717959
2  33 10 0 0 6.28318530717959
0

0101100
+347 0 -347 0 *
Ed
 1e-007 1 1 0
1  11 0 0 6.28318530717959
2  34 9 0 0 6.28318530717959
2  35 11 0 0 6.28318530717959
0

0101100
+346 0 -346 0 *
Wi

0101000
+345 0 +344 0 -343 0 -345 0 *
Fa
0  1e-007 9 0

0101000
+342 0 *
Ve
1e-007
49 -22 0
0 0

0101101
*
Ed
 1e-007 1 1 0
1  12 0 0 1.5707963267949
3  36 37C0 10 0 0 1.5707963267949
0

0101000
+347 0 -340 0 *
Ed
 1e-007 1 1 0
1  13 0 0 6.28318530717959
2  38 10 0 0 6.28318530717959
2  39 12 0 0 6.28318530717959
0

0101100
+340 0 -340 0 *
Wi

0101000
-339 0 +344 0 -338 0 +339 0 *
Fa
0  1e-007 10 0

0101000
+337 0 *
Ve
1e-007
49 -28 4.5298740758426e-007
0 0

0101101
*
Ed
 1e-007 1 1 0
1  14 0 0 1.5707963267949
3  40 41C0 11 0 0 1.5707963267949
0

0101000
+346 0 -335 0 *
Ed
 1e-007 1 1 0
1  15 0 0 6.28318530717959
2  42 11 0 0 6.28318530717959
2  43 13 0 0 6.28318530717959
0

0101100
+335 0 -335 0 *
Wi

0101000
-334 0 +343 0 -333 0 +334 0 *
Fa
0  1e-007 11 0

0101000
+332 0 *
Wi

0101000
+338 0 *
Fa
0  1e-007 12 0

0101000
+330 0 *
Wi

0101000
+333 0 *
Fa
0  1e-007 13 0

0101000
+328 0 *
Sh

0101000
+341 0 -336 0 +331 0 -329 0 +327 0 *
So

0100000
+326 0 *
Ve
1e-007
-39.5 -19 -39.9999985655399
0 0

0101101
*
Ed
 1e-007 1 1 0
1  16 0 0 6.28318530717959
2  44 14 0 0 6.28318530717959
2  45 15 0 0 6.28318530717959
0

0101100
+324 0 -324 0 *
Ve
1e-007
-39.5 -9.24582631253536e-024 -40
0 0

0101101
*
Ed
 1e-007 1 1 0
1  17 0 0 19
3  46 47CN 14 0 0 19
0

0101000
-324 0 +322 0 *
Ed
 1e-007 1 1 0
1  18 0 0 6.28318530717959
2  48 14 0 0 6.28318530717959
2  49 16 0 0 6.28318530717959
0

0101100
+322 0 -322 0 *
Wi

0101000
-323 0 +321 0 +320 0 -321 0 *
Fa
0  1e-007 14 0

0101000
+319 0 *
Wi

0101000
+323 0 *
Fa
0  1e-007 15 0

0101000
+317 0 *
Wi

0101000
-320 0 *
Fa
0  1e-007 16 0

0101000
-315 0 *
Sh

0101100
+318 0 +316 0 -314 0 *
So

0100100
+313 0 *
Ve
1.61378583690994e-007
19.6462547527851 -15 -20.3533615218701
0 0

0101101
*
Ed
 1.61364652498401e-007 1 1 0
1  19 0 0 6.28318530717959
2  50 17 0 0 6.28318530717959
2  51 18 0 0 6.28318530717959
0

0101100
+311 0 -311 0 *
Ve
1.00005e-007
-0.353553384542465 -15 -0.353553384542465
0 0

0101101
*
Ed
 9.99999988590486e-008 1 1 0
1  20 0 0 28.2840000740218
3  52 53CN 17 0 0 28.2840000740218
0

0101000
-311 0 +309 0 *
Ed
 1.00005e-007 1 1 0
1  21 0 0 6.28318530717959
2  54 17 0 0 6.28318530717959
2  55 19 0 0 6.28318530717959
0

0101100
+309 0 -309 0 *
Wi

0101100
-310 0 -308 0 +307 0 +308 0 *
Fa
0  9.99999988590486e-008 17 0

0101000
+306 0 *
Wi

0101000
+310 0 *
Fa
0  9.99999988590486e-008 18 0

0101000
+304 0 *
Wi

0101000
-307 0 *
Fa
0  9.99999988590486e-008 19 0

0101000
-302 0 *
Sh

0101000
+305 0 +303 0 -301 0 *
So

0100000
+300 0 *
Ve
1e-007
0.5 -21 80.0000015854559
0 0

0101101
*
Ed
 1e-007 1 1 0
1  22 0 0 6.28318530717959
2  56 20 0 0 6.28318530717959
2  57 21 0 0 6.28318530717959
0

0101100
+298 0 -298 0 *
Ve
1e-007
0.5 -9.24582631253536e-024 80
0 0

0101101
*
Ed
 1e-007 1 1 0
1  23 0 0 21
3  58 59CN 20 0 0 21
0

0101000
-298 0 +296 0 *
Ed
 1e-007 1 1 0
1  24 0 0 6.28318530717959
2  60 20 0 0 6.28318530717959
2  61 22 0 0 6.28318530717959
0

0101100
+296 0 -296 0 *
Wi

0101000
-297 0 +295 0 +294 0 -295 0 *
Fa
0  1e-007 20 0

0101000
+293 0 *
Wi

0101000
+297 0 *
Fa
0  1e-007 21 0

0101000
+291 0 *
Wi

0101000
-294 0 *
Fa
0  1e-007 22 0

0101000
-289 0 *
Sh

0101100
+292 0 +290 0 -288 0 *
So

0100100
+287 0 *
Ve
1e-007
20.5 -15 -19.9999988675315
0 0

0101101
*
Ed
 1e-007 1 1 0
1  25 0 0 6.28318530717959
2  62 23 0 0 6.28318530717959
2  63 24 0 0 6.28318530717959
0

0101100
+285 0 -285 0 *
Ve
1e-007
20.5 -9.24582631253536e-024 -20
0 0

0101101
*
Ed
 1e-007 1 1 0
1  26 0 0 15
3  64 65CN 23 0 0 15
0

0101000
-285 0 +283 0 *
Ed
 1e-007 1 1 0
1  27 0 0 6.28318530717959
2  66 23 0 0 6.28318530717959
2  67 25 0 0 6.28318530717959
0

0101100
+283 0 -283 0 *
Wi

0101000
-284 0 +282 0 +281 0 -282 0 *
Fa
0  1e-007 23 0

0101000
+280 0 *
Wi

0101000
+284 0 *
Fa
0  1e-007 24 0

0101000
+278 0 *
Wi

0101000
-281 0 *
Fa
0  1e-007 25 0

0101000
-276 0 *
Sh

0101100
+279 0 +277 0 -275 0 *
So

0100100
+274 0 *
Ve
1e-007
30.5 -17 30.0000012834643
0 0

0101101
*
Ed
 1e-007 1 1 0
1  28 0 0 6.28318530717959
2  68 26 0 0 6.28318530717959
2  69 27 0 0 6.28318530717959
0

0101100
+272 0 -272 0 *
Ve
1e-007
30.5 -9.24582631253536e-024 30
0 0

0101101
*
Ed
 1e-007 1 1 0
1  29 0 0 17
3  70 71CN 26 0 0 17
0

0101000
-272 0 +270 0 *
Ed
 1e-007 1 1 0
1  30 0 0 6.28318530717959
2  72 26 0 0 6.28318530717959
2  73 28 0 0 6.28318530717959
0

0101100
+270 0 -270 0 *
Wi

0101000
-271 0 +269 0 +268 0 -269 0 *
Fa
0  1e-007 26 0

0101000
+267 0 *
Wi

0101000
+271 0 *
Fa
0  1e-007 27 0

0101000
+265 0 *
Wi

0101000
-268 0 *
Fa
0  1e-007 28 0

0101000
-263 0 *
Sh

0101100
+266 0 +264 0 -262 0 *
So

0100100
+261 0 *
Ve
3.54035497322958e-007
30.353264271637 -17 29.6461600015364
0 0

0101101
*
Ed
 3.54035497322958e-007 1 1 0
1  31 0 0 6.28318530717959
2  74 29 0 0 6.28318530717959
2  75 30 0 0 6.28318530717959
0

0101100
+259 0 -259 0 *
Ve
1.00005001668922e-007
0.353553414344788 -17 -0.353553384542465
0 0

0101101
*
Ed
 1.00000001668839e-007 1 1 0
1  32 0 0 42.4259993957656
3  76 77CN 29 0 0 42.4259993957656
0

0101000
-259 0 +257 0 *
Ed
 1.00005001668922e-007 1 1 0
1  33 0 0 6.28318530717959
2  78 29 0 0 6.28318530717959
2  79 31 0 0 6.28318530717959
0

0101100
+257 0 -257 0 *
Wi

0101100
-258 0 -256 0 +255 0 +256 0 *
Fa
0  1.00000001668839e-007 29 0

0101000
+254 0 *
Wi

0101000
+258 0 *
Fa
0  1.00000001668839e-007 30 0

0101000
+252 0 *
Wi

0101000
-255 0 *
Fa
0  1.00000001668839e-007 31 0

0101000
-250 0 *
Sh

0101000
+253 0 +251 0 -249 0 *
So

0100000
+248 0 *
Ve
1e-007
0.5 -21 80
0 0

0101101
*
Ed
 1e-007 1 1 0
1  34 0 0 6.28318530717959
2  80 32 0 0 6.28318530717959
2  81 33 0 0 6.28318530717959
0

0101100
+246 0 -246 0 *
Ve
1e-007
0.5 -21 0
0 0

0101101
*
Ed
 1e-007 1 1 0
1  35 0 0 80
3  82 83CN 32 0 0 80
0

0101000
-246 0 +244 0 *
Ed
 1e-007 1 1 0
1  36 0 0 6.28318530717959
2  84 32 0 0 6.28318530717959
2  85 34 0 0 6.28318530717959
0

0101100
+244 0 -244 0 *
Wi

0101000
-245 0 +243 0 +242 0 -243 0 *
Fa
0  1e-007 32 0

0101000
+241 0 *
Wi

0101000
+245 0 *
Fa
0  1e-007 33 0

0101000
+239 0 *
Wi

0101000
-242 0 *
Fa
0  1e-007 34 0

0101000
-237 0 *
Sh

0101100
+240 0 +238 0 -236 0 *
So

0100100
+235 0 *
Ve
1e-007
-100 -29 -100
0 0

0101101
*
Ve
1e-007
-100 -28.9999849004197 100
0 0

0101101
*
Ed
 1e-007 1 1 0
1  37 0 0 200
2  86 35 0 0 200
0

0101000
+233 0 -232 0 *
Ve
1e-007
100 -28.9999849004197 100
0 0

0101101
*
Ed
 1e-007 1 1 0
1  38 0 0 200
2  87 35 0 0 200
0

0101000
+232 0 -230 0 *
Ve
1e-007
100 -29 -100
0 0

0101101
*
Ed
 1e-007 1 1 0
1  39 0 0 200
2  88 35 0 0 200
0

0101000
+230 0 -228 0 *
Ed
 1e-007 1 1 0
1  40 0 0 200
2  89 35 0 0 200
0

0101000
+228 0 -233 0 *
Wi

0101100
+231 0 +229 0 +227 0 +226 0 *
Fa
0  1e-007 35 0

0101000
-225 0 *
Ve
3.22735002947151e-007
-40.3538763775414 -19 -39.6467696084564
0 0

0101101
*
Ed
 3.22735002947151e-007 1 1 0
1  41 0 0 6.28318530717959
2  90 36 0 0 6.28318530717959
2  91 37 0 0 6.28318530717959
0

0101100
+223 0 -223 0 *
Ve
1.00005e-007
-0.353553384542465 -19 0.353553384542465
0 0

0101101
*
Ed
 9.99999988590486e-008 1 1 0
1  42 0 0 56.5689995987158
3  92 93CN 36 0 0 56.5689995987158
0

0101000
-223 0 +221 0 *
Ed
 1.00005e-007 1 1 0
1  43 0 0 6.28318530717959
2  94 36 0 0 6.28318530717959
2  95 38 0 0 6.28318530717959
0

0101100
+221 0 -221 0 *
Wi

0101100
-222 0 -220 0 +219 0 +220 0 *
Fa
0  9.99999988590486e-008 36 0

0101000
+218 0 *
Wi

0101000
+222 0 *
Fa
0  9.99999988590486e-008 37 0

0101000
+216 0 *
Wi

0101000
-219 0 *
Fa
0  9.99999988590486e-008 38 0

0101000
-214 0 *
Sh

0101000
+217 0 +215 0 -213 0 *
So

0100000
+212 0 *
Ve
1e-007
0.5 -25 1.88744753147862e-006
0 0

0101101
*
Ed
 1e-007 1 1 0
1  44 0 0 6.28318530717959
2  96 39 0 0 6.28318530717959
2  97 40 0 0 6.28318530717959
0

0101100
+210 0 -210 0 *
Ve
1e-007
0.5 -9.24582631253536e-024 -1.22464679914735e-016
0 0

0101101
*
Ed
 1e-007 1 1 0
1  45 0 0 25.0000000000001
3  98 99CN 39 0 0 25.0000000000001
0

0101000
-210 0 +208 0 *
Ed
 1e-007 1 1 0
1  46 0 0 6.28318530717959
2  100 39 0 0 6.28318530717959
2  101 41 0 0 6.28318530717959
0

0101100
+208 0 -208 0 *
Wi

0101000
-209 0 +207 0 +206 0 -207 0 *
Fa
0  1e-007 39 0

0101000
+205 0 *
Wi

0101000
+209 0 *
Fa
0  1e-007 40 0

0101000
+203 0 *
Wi

0101000
-206 0 *
Fa
0  1e-007 41 0

0101000
-201 0 *
Sh

0101100
+204 0 +202 0 -200 0 *
So

0100100
+199 0 *
Ve
1e-007
10.5 -10 80.000000754979
0 0

0101101
*
Ed
 1e-007 1 1 0
1  47 0 0 6.28318530717959
2  102 42 0 0 6.28318530717959
2  103 43 0 0 6.28318530717959
0

0101100
+197 0 -197 0 *
Ve
1e-007
10.5 -9.24582631253536e-024 80
0 0

0101101
*
Ed
 1e-007 1 1 0
1  48 0 0 10
3  104 105CN 42 0 0 10
0

0101000
-197 0 +195 0 *
Ed
 1e-007 1 1 0
1  49 0 0 6.28318530717959
2  106 42 0 0 6.28318530717959
2  107 44 0 0 6.28318530717959
0

0101100
+195 0 -195 0 *
Wi

0101000
-196 0 +194 0 +193 0 -194 0 *
Fa
0  1e-007 42 0

0101000
+192 0 *
Wi

0101000
+196 0 *
Fa
0  1e-007 43 0

0101000
+190 0 *
Wi

0101000
-193 0 *
Fa
0  1e-007 44 0

0101000
-188 0 *
Sh

0101100
+191 0 +189 0 -187 0 *
So

0100100
+186 0 *
Ve
1e-007
10.000000037749 -10 79.500000754979
0 0

0101101
*
Ed
 1e-007 1 1 0
1  50 0 0 6.28318530717959
2  108 45 0 0 6.28318530717959
2  109 46 0 0 6.28318530717959
0

0101100
+184 0 -184 0 *
Ve
1e-007
3.77489506320217e-008 -10 79.5
0 0

0101101
*
Ed
 1e-007 1 1 0
1  51 0 0 10
3  110 111CN 45 0 0 10
0

0101000
-184 0 +182 0 *
Ed
 1e-007 1 1 0
1  52 0 0 6.28318530717959
2  112 45 0 0 6.28318530717959
2  113 47 0 0 6.28318530717959
0

0101100
+182 0 -182 0 *
Wi

0101000
-183 0 +181 0 +180 0 -181 0 *
Fa
0  1e-007 45 0

0101000
+179 0 *
Wi

0101000
+183 0 *
Fa
0  1e-007 46 0

0101000
+177 0 *
Wi

0101000
-180 0 *
Fa
0  1e-007 47 0

0101000
-175 0 *
Sh

0101100
+178 0 +176 0 -174 0 *
So

0100100
+173 0 *
Ve
1e-007
-100 -29 -100
0 0

0101101
*
Ve
1e-007
-100 171 -100
0 0

0101101
*
Ed
 1e-007 1 1 0
1  53 0 0 200
2  114 48 0 0 200
0

0101000
+171 0 -170 0 *
Ve
1e-007
100 171 -100
0 0

0101101
*
Ed
 1e-007 1 1 0
1  54 0 0 200
2  115 48 0 0 200
0

0101000
+170 0 -168 0 *
Ve
1e-007
100 -29 -100
0 0

0101101
*
Ed
 1e-007 1 1 0
1  55 0 0 200
2  116 48 0 0 200
0

0101000
+168 0 -166 0 *
Ed
 1e-007 1 1 0
1  56 0 0 200
2  117 48 0 0 200
0

0101000
+166 0 -171 0 *
Wi

0101100
+169 0 +167 0 +165 0 +164 0 *
Fa
0  1e-007 48 0

0101000
-163 0 *
Ve
1e-007
1 -9.10000000149012 80.0000000075498
0 0

0101101
*
Ve
1e-007
1 -10.8999999985099 80.000000143446
0 0

0101101
*
Ed
 1e-007 1 1 0
1  57 0 0.100000001490116 1.89999999850989
3  118 119C0 49 0 0.100000001490116 1.89999999850989
0

0101000
+161 0 -160 0 *
Ed
 1e-007 1 1 0
1  58 0 0 6.28318530717959
2  120 49 0 0 6.28318530717959
2  121 50 0 0 6.28318530717959
0

0101100
+161 0 -161 0 *
Ed
 1e-007 1 1 0
1  59 0 0 6.28318530717959
2  122 49 0 0 6.28318530717959
2  123 51 0 0 6.28318530717959
0

0101100
+160 0 -160 0 *
Wi

0101000
+159 0 +158 0 -157 0 -159 0 *
Fa
0  1e-007 49 0

0101000
+156 0 *
Ve
1e-007
0.899999998509884 -9 80
0 0

0101101
*
Ed
 1e-007 1 1 0
1  60 0 0 1.5707963267949
3  124 125C0 50 0 0 1.5707963267949
0

0101000
+161 0 -154 0 *
Ed
 1e-007 1 1 0
1  61 0 0 6.28318530717959
2  126 50 0 0 6.28318530717959
2  127 52 0 0 6.28318530717959
0

0101100
+154 0 -154 0 *
Wi

0101000
-153 0 +158 0 -152 0 +153 0 *
Fa
0  1e-007 50 0

0101000
+151 0 *
Ve
1e-007
0.899999998509884 -11 80.0000001509958
0 0

0101101
*
Ed
 1e-007 1 1 0
1  62 0 0 1.5707963267949
3  128 129C0 51 0 0 1.5707963267949
0

0101000
+160 0 -149 0 *
Ed
 1e-007 1 1 0
1  63 0 0 6.28318530717959
2  130 51 0 0 6.28318530717959
2  131 53 0 0 6.28318530717959
0

0101100
+149 0 -149 0 *
Wi

0101000
-148 0 +157 0 -147 0 +148 0 *
Fa
0  1e-007 51 0

0101000
+146 0 *
Wi

0101000
+152 0 *
Fa
0  1e-007 52 0

0101000
+144 0 *
Wi

0101000
+147 0 *
Fa
0  1e-007 53 0

0101000
+142 0 *
Sh

0101000
+155 0 -150 0 +145 0 -143 0 +141 0 *
So

0100000
+140 0 *
Ve
1e-007
4 -20.1000000014901 7.54979023890497e-009
0 0

0101101
*
Ve
1e-007
4 -21.8999999985099 1.43446012289182e-007
0 0

0101101
*
Ed
 1e-007 1 1 0
1  64 0 0.100000001490116 1.89999999850989
3  132 133C0 54 0 0.100000001490116 1.89999999850989
0

0101000
+138 0 -137 0 *
Ed
 1e-007 1 1 0
1  65 0 0 6.28318530717959
2  134 54 0 0 6.28318530717959
2  135 55 0 0 6.28318530717959
0

0101100
+138 0 -138 0 *
Ed
 1e-007 1 1 0
1  66 0 0 6.28318530717959
2  136 54 0 0 6.28318530717959
2  137 56 0 0 6.28318530717959
0

0101100
+137 0 -137 0 *
Wi

0101000
+136 0 +135 0 -134 0 -136 0 *
Fa
0  1e-007 54 0

0101000
+133 0 *
Ve
1e-007
3.89999999850988 -20 0
0 0

0101101
*
Ed
 1e-007 1 1 0
1  67 0 0 1.5707963267949
3  138 139C0 55 0 0 1.5707963267949
0

0101000
+138 0 -131 0 *
Ed
 1e-007 1 1 0
1  68 0 0 6.28318530717959
2  140 55 0 0 6.28318530717959
2  141 57 0 0 6.28318530717959
0

0101100
+131 0 -131 0 *
Wi

0101000
-130 0 +135 0 -129 0 +130 0 *
Fa
0  1e-007 55 0

0101000
+128 0 *
Ve
1e-007
3.89999999850988 -22 1.50995802528087e-007
0 0

0101101
*
Ed
 1e-007 1 1 0
1  69 0 0 1.5707963267949
3  142 143C0 56 0 0 1.5707963267949
0

0101000
+137 0 -126 0 *
Ed
 1e-007 1 1 0
1  70 0 0 6.28318530717959
2  144 56 0 0 6.28318530717959
2  145 58 0 0 6.28318530717959
0

0101100
+126 0 -126 0 *
Wi

0101000
-125 0 +134 0 -124 0 +125 0 *
Fa
0  1e-007 56 0

0101000
+123 0 *
Wi

0101000
+129 0 *
Fa
0  1e-007 57 0

0101000
+121 0 *
Wi

0101000
+124 0 *
Fa
0  1e-007 58 0

0101000
+119 0 *
Sh

0101000
+132 0 -127 0 +122 0 -120 0 +118 0 *
So

0100000
+117 0 *
Ve
1e-007
4.59242549680257e-017 -21 80.75
0 0

0101101
*
Ed
 1e-007 1 1 1
2  146 59 0 0 6.28318530717959
0

0101100
+115 0 -115 0 *
Ve
1e-007
4.59242549680257e-017 -21 79.25
0 0

0101101
*
Ed
 1e-007 1 1 0
1  71 0 4.71238898038469 7.85398163397448
3  147 148CN 59 0 4.71238898038469 7.85398163397448
0

0101000
-115 0 +113 0 *
Ed
 1e-007 1 1 1
2  149 59 0 0 6.28318530717959
0

0101100
+113 0 -113 0 *
Wi

0101000
-114 0 +112 0 +111 0 -112 0 *
Fa
0  1e-007 59 0

0101000
+110 0 *
Sh

0101100
+109 0 *
So

0100100
+108 0 *
Ve
1e-007
-40 -19 -39.25
0 0

0101101
*
Ed
 1e-007 1 1 1
2  150 60 0 0 6.28318530717959
0

0101100
+106 0 -106 0 *
Ve
1e-007
-40 -19 -40.75
0 0

0101101
*
Ed
 1e-007 1 1 0
1  72 0 4.71238898038469 7.85398163397448
3  151 152CN 60 0 4.71238898038469 7.85398163397448
0

0101000
-106 0 +104 0 *
Ed
 1e-007 1 1 1
2  153 60 0 0 6.28318530717959
0

0101100
+104 0 -104 0 *
Wi

0101000
-105 0 +103 0 +102 0 -103 0 *
Fa
0  1e-007 60 0

0101000
+101 0 *
Sh

0101100
+100 0 *
So

0100100
+99 0 *
Ve
1e-007
10 -10 80.75
0 0

0101101
*
Ed
 1e-007 1 1 1
2  154 61 0 0 6.28318530717959
0

0101100
+97 0 -97 0 *
Ve
1e-007
10 -10 79.25
0 0

0101101
*
Ed
 1e-007 1 1 0
1  73 0 4.71238898038469 7.85398163397448
3  155 156CN 61 0 4.71238898038469 7.85398163397448
0

0101000
-97 0 +95 0 *
Ed
 1e-007 1 1 1
2  157 61 0 0 6.28318530717959
0

0101100
+95 0 -95 0 *
Wi

0101000
-96 0 +94 0 +93 0 -94 0 *
Fa
0  1e-007 61 0

0101000
+92 0 *
Sh

0101100
+91 0 *
So

0100100
+90 0 *
Ve
1e-007
30 -17 30.75
0 0

0101101
*
Ed
 1e-007 1 1 1
2  158 62 0 0 6.28318530717959
0

0101100
+88 0 -88 0 *
Ve
1e-007
30 -17 29.25
0 0

0101101
*
Ed
 1e-007 1 1 0
1  74 0 4.71238898038469 7.85398163397448
3  159 160CN 62 0 4.71238898038469 7.85398163397448
0

0101000
-88 0 +86 0 *
Ed
 1e-007 1 1 1
2  161 62 0 0 6.28318530717959
0

0101100
+86 0 -86 0 *
Wi

0101000
-87 0 +85 0 +84 0 -85 0 *
Fa
0  1e-007 62 0

0101000
+83 0 *
Sh

0101100
+82 0 *
So

0100100
+81 0 *
Ve
1e-007
20 -15 -19.25
0 0

0101101
*
Ed
 1e-007 1 1 1
2  162 63 0 0 6.28318530717959
0

0101100
+79 0 -79 0 *
Ve
1e-007
20 -15 -20.75
0 0

0101101
*
Ed
 1e-007 1 1 0
1  75 0 4.71238898038469 7.85398163397448
3  163 164CN 63 0 4.71238898038469 7.85398163397448
0

0101000
-79 0 +77 0 *
Ed
 1e-007 1 1 1
2  165 63 0 0 6.28318530717959
0

0101100
+77 0 -77 0 *
Wi

0101000
-78 0 +76 0 +75 0 -76 0 *
Fa
0  1e-007 63 0

0101000
+74 0 *
Sh

0101100
+73 0 *
So

0100100
+72 0 *
Ve
1e-007
1 -14.1000000014901 7.54979023890497e-009
0 0

0101101
*
Ve
1e-007
1 -15.8999999985099 1.43446012289182e-007
0 0

0101101
*
Ed
 1e-007 1 1 0
1  76 0 0.100000001490116 1.89999999850989
3  166 167C0 64 0 0.100000001490116 1.89999999850989
0

0101000
+70 0 -69 0 *
Ed
 1e-007 1 1 0
1  77 0 0 6.28318530717959
2  168 64 0 0 6.28318530717959
2  169 65 0 0 6.28318530717959
0

0101100
+70 0 -70 0 *
Ed
 1e-007 1 1 0
1  78 0 0 6.28318530717959
2  170 64 0 0 6.28318530717959
2  171 66 0 0 6.28318530717959
0

0101100
+69 0 -69 0 *
Wi

0101000
+68 0 +67 0 -66 0 -68 0 *
Fa
0  1e-007 64 0

0101000
+65 0 *
Ve
1e-007
0.899999998509884 -14 0
0 0

0101101
*
Ed
 1e-007 1 1 0
1  79 0 0 1.5707963267949
3  172 173C0 65 0 0 1.5707963267949
0

0101000
+70 0 -63 0 *
Ed
 1e-007 1 1 0
1  80 0 0 6.28318530717959
2  174 65 0 0 6.28318530717959
2  175 67 0 0 6.28318530717959
0

0101100
+63 0 -63 0 *
Wi

0101000
-62 0 +67 0 -61 0 +62 0 *
Fa
0  1e-007 65 0

0101000
+60 0 *
Ve
1e-007
0.899999998509884 -16 1.50995802528087e-007
0 0

0101101
*
Ed
 1e-007 1 1 0
1  81 0 0 1.5707963267949
3  176 177C0 66 0 0 1.5707963267949
0

0101000
+69 0 -58 0 *
Ed
 1e-007 1 1 0
1  82 0 0 6.28318530717959
2  178 66 0 0 6.28318530717959
2  179 68 0 0 6.28318530717959
0

0101100
+58 0 -58 0 *
Wi

0101000
-57 0 +66 0 -56 0 +57 0 *
Fa
0  1e-007 66 0

0101000
+55 0 *
Wi

0101000
+61 0 *
Fa
0  1e-007 67 0

0101000
+53 0 *
Wi

0101000
+56 0 *
Fa
0  1e-007 68 0

0101000
+51 0 *
Sh

0101000
+64 0 -59 0 +54 0 -52 0 +50 0 *
So

0100000
+49 0 *
Ve
1e-007
2 -16.1000000014901 7.54979023890497e-009
0 0

0101101
*
Ve
1e-007
2 -17.8999999985099 1.43446012289182e-007
0 0

0101101
*
Ed
 1e-007 1 1 0
1  83 0 0.100000001490116 1.89999999850989
3  180 181C0 69 0 0.100000001490116 1.89999999850989
0

0101000
+47 0 -46 0 *
Ed
 1e-007 1 1 0
1  84 0 0 6.28318530717959
2  182 69 0 0 6.28318530717959
2  183 70 0 0 6.28318530717959
0

0101100
+47 0 -47 0 *
Ed
 1e-007 1 1 0
1  85 0 0 6.28318530717959
2  184 69 0 0 6.28318530717959
2  185 71 0 0 6.28318530717959
0

0101100
+46 0 -46 0 *
Wi

0101000
+45 0 +44 0 -43 0 -45 0 *
Fa
0  1e-007 69 0

0101000
+42 0 *
Ve
1e-007
1.89999999850988 -16 0
0 0

0101101
*
Ed
 1e-007 1 1 0
1  86 0 0 1.5707963267949
3  186 187C0 70 0 0 1.5707963267949
0

0101000
+47 0 -40 0 *
Ed
 1e-007 1 1 0
1  87 0 0 6.28318530717959
2  188 70 0 0 6.28318530717959
2  189 72 0 0 6.28318530717959
0

0101100
+40 0 -40 0 *
Wi

0101000
-39 0 +44 0 -38 0 +39 0 *
Fa
0  1e-007 70 0

0101000
+37 0 *
Ve
1e-007
1.89999999850988 -18 1.50995802528087e-007
0 0

0101101
*
Ed
 1e-007 1 1 0
1  88 0 0 1.5707963267949
3  190 191C0 71 0 0 1.5707963267949
0

0101000
+46 0 -35 0 *
Ed
 1e-007 1 1 0
1  89 0 0 6.28318530717959
2  192 71 0 0 6.28318530717959
2  193 73 0 0 6.28318530717959
0

0101100
+35 0 -35 0 *
Wi

0101000
-34 0 +43 0 -33 0 +34 0 *
Fa
0  1e-007 71 0

0101000
+32 0 *
Wi

0101000
+38 0 *
Fa
0  1e-007 72 0

0101000
+30 0 *
Wi

0101000
+33 0 *
Fa
0  1e-007 73 0

0101000
+28 0 *
Sh

0101000
+41 0 -36 0 +31 0 -29 0 +27 0 *
So

0100000
+26 0 *
Ve
1e-007
3 -18.1000000014901 7.54979023890497e-009
0 0

0101101
*
Ve
1e-007
3 -19.8999999985099 1.43446012289182e-007
0 0

0101101
*
Ed
 1e-007 1 1 0
1  90 0 0.100000001490116 1.89999999850989
3  194 195C0 74 0 0.100000001490116 1.89999999850989
0

0101000
+24 0 -23 0 *
Ed
 1e-007 1 1 0
1  91 0 0 6.28318530717959
2  196 74 0 0 6.28318530717959
2  197 75 0 0 6.28318530717959
0

0101100
+24 0 -24 0 *
Ed
 1e-007 1 1 0
1  92 0 0 6.28318530717959
2  198 74 0 0 6.28318530717959
2  199 76 0 0 6.28318530717959
0

0101100
+23 0 -23 0 *
Wi

0101000
+22 0 +21 0 -20 0 -22 0 *
Fa
0  1e-007 74 0

0101000
+19 0 *
Ve
1e-007
2.89999999850988 -18 0
0 0

0101101
*
Ed
 1e-007 1 1 0
1  93 0 0 1.5707963267949
3  200 201C0 75 0 0 1.5707963267949
0

0101000
+24 0 -17 0 *
Ed
 1e-007 1 1 0
1  94 0 0 6.28318530717959
2  202 75 0 0 6.28318530717959
2  203 77 0 0 6.28318530717959
0

0101100
+17 0 -17 0 *
Wi

0101000
-16 0 +21 0 -15 0 +16 0 *
Fa
0  1e-007 75 0

0101000
+14 0 *
Ve
1e-007
2.89999999850988 -20 1.50995802528087e-007
0 0

0101101
*
Ed
 1e-007 1 1 0
1  95 0 0 1.5707963267949
3  204 205C0 76 0 0 1.5707963267949
0

0101000
+23 0 -12 0 *
Ed
 1e-007 1 1 0
1  96 0 0 6.28318530717959
2  206 76 0 0 6.28318530717959
2  207 78 0 0 6.28318530717959
0

0101100
+12 0 -12 0 *
Wi

0101000
-11 0 +20 0 -10 0 +11 0 *
Fa
0  1e-007 76 0

0101000
+9 0 *
Wi

0101000
+15 0 *
Fa
0  1e-007 77 0

0101000
+7 0 *
Wi

0101000
+10 0 *
Fa
0  1e-007 78 0

0101000
+5 0 *
Sh

0101000
+18 0 -13 0 +8 0 -6 0 +4 0 *
So

0100000
+3 0 *
Co

1100000
+406 0 +397 0 +388 0 +379 0 +370 0 +366 0 +357 0 +348 0 +325 0 +312 0 
+299 0 +286 0 +273 0 +260 0 +247 0 +234 0 +224 0 +211 0 +198 0 +185 0 
+172 0 +162 0 +139 0 +116 0 +107 0 +98 0 +89 0 +80 0 +71 0 +48 0 
+25 0 +2 0 *

+1 0 