DBRep_DrawableShape

CASCADE Topology V1, (c) Matra-Datavision
Locations 0
Curve2ds 130
1 0 0 0 1 
1 0 100 1 0 
1 100 100 0 -1 
1 100 0 -1 0 
1 0 1.5707963267948966 1 0 
1 6.2831853071795862 -6.2831853071795862 0 1 
1 0 -6.2831853071795862 0 1 
1 0 -1.5707963267948966 1 0 
1 0 0 1 0 
1 0 6.2831853071795862 1 0 
1 6.2831853071795862 -0 0 1 
1 0 -0 0 1 
1 6.2831853071795862 -0 0 1 
1 0 -0 0 1 
1 0 1.3440306508910551 1 0 
1 0 5.9917285127017186 1 0 
1 0 9.6962758580194972 1 0 
1 0 0.29145679447786782 1 0 
8 5.9917285127017186 7.8539816339744828
1 6.2831853071795862 0 0 1 
8 5.9917285127017186 7.8539816339744828
1 0 0 0 1 
1 0 7.8539816339744828 1 0 
2 0 0 1 0 -0 1 3.6559693491089451
8 0.29145679447786782 1.5707963267948966
1 6.2831853071795862 0 0 1 
8 0.29145679447786782 1.5707963267948966
1 0 0 0 1 
1 0 1.5707963267948966 1 0 
2 0 0 1 0 -0 1 1.2559693491089456
1 9 0 0 -1 
1 0 0 0 1 
1 0 -1 1 0 
1 0 0 0 1 
1 0 -9 1 0 
1 0 0 0 1 
1 0.99999999999999978 0 0 -1 
1 0 0 0 1 
1 0 1 1 0 
1 0 0 1 0 
1 0 9 1 0 
1 0 0 1 0 
1 1.5707963267948966 0 0 1 
1 1 0 0 1 
8 4.7123889803846897 6.2831853071795862
1 6.2831853071795862 0.99999999999999978 -1 -0 
8 4.7123889803846897 6.2831853071795862
1 0 -6.2831853071795862 0 1 
1 1.5707963267948966 0 0 1 
1 0 1 1 0 
8 4.7123889803846897 6.2831853071795862
1 6.2831853071795862 9 -1 -0 
8 4.7123889803846897 6.2831853071795862
1 0 -6.2831853071795862 0 1 
1 0 1 1 0 
1 0 0 1 0 
8 4.7123889803846897 6.2831853071795862
1 6.2831853071795862 9 -1 -0 
8 4.7123889803846897 6.2831853071795862
1 0 -6.2831853071795862 0 1 
1 1.5707963267948966 0 0 1 
1 0 1 1 0 
1 0 1 1 0 
1 0 0 1 0 
8 4.7123889803846897 6.2831853071795862
1 6.2831853071795862 9 -1 -0 
8 4.7123889803846897 6.2831853071795862
1 0 -6.2831853071795862 0 1 
1 1.5707963267948966 0 0 1 
1 1 0 0 1 
1 0 -1.5707963267948966 1 0 
8 4.7123889803846897 6.2831853071795862
1 1.5707963267948966 -6.2831853071795862 0 1 
8 4.7123889803846897 6.2831853071795862
1 -4.7123889803846897 0.99999999999999967 1 0 
1 0 -1.5707963267948966 1 0 
8 4.7123889803846897 6.2831853071795862
1 1.5707963267948966 -6.2831853071795862 0 1 
8 4.7123889803846897 6.2831853071795862
1 -4.7123889803846897 0.99999999999999967 1 0 
1 0 1 1 0 
1 1.5707963267948966 0 0 1 
1 0 9 1 0 
1 1.5707963267948966 0 0 1 
1 9 0 0 1 
1 1.5707963267948966 0 0 1 
1 0 -1.5707963267948966 1 0 
8 4.7123889803846897 6.2831853071795862
1 1.5707963267948966 -6.2831853071795862 0 1 
8 4.7123889803846897 6.2831853071795862
1 -4.7123889803846897 0.99999999999999967 1 0 
1 0.99999999999999978 0 0 1 
1 0 0 0 1 
1 9 0 0 1 
1 0 0 0 1 
1 0 9 1 0 
1 1.5707963267948966 0 0 1 
1 0 -1.5707963267948966 1 0 
8 4.7123889803846897 6.2831853071795862
1 1.5707963267948966 -6.2831853071795862 0 1 
8 4.7123889803846897 6.2831853071795862
1 6.2831853071795862 0.99999999999999967 -1 -0 
1 0.99999999999999978 0 0 1 
1 0 0 0 1 
1 9 0 0 1 
1 0 0 0 1 
1 0 9 1 0 
1 1.5707963267948966 0 0 1 
1 0 1 1 0 
1 1.5707963267948966 0 0 1 
1 0 9 1 0 
1 1.5707963267948966 0 0 1 
1 9 0 0 1 
1 1.5707963267948966 0 0 1 
8 4.7123889803846897 6.2831853071795862
1 6.2831853071795862 9 -1 -0 
8 4.7123889803846897 6.2831853071795862
1 1.5707963267948966 -6.2831853071795862 0 1 
8 4.7123889803846897 6.2831853071795862
1 -4.7123889803846897 9 1 0 
8 4.7123889803846897 6.2831853071795862
1 1.5707963267948966 -6.2831853071795862 0 1 
8 4.7123889803846897 6.2831853071795862
1 6.2831853071795862 0.99999999999999967 -1 -0 
8 4.7123889803846897 6.2831853071795862
1 0 -6.2831853071795862 0 1 
1 0 0 0 1 
1 9 0 0 -1 
1 0 9 1 0 
1 0 0 1 0 
8 4.7123889803846897 6.2831853071795862
1 -4.7123889803846897 9 1 0 
8 4.7123889803846897 6.2831853071795862
1 1.5707963267948966 -6.2831853071795862 0 1 
8 4.7123889803846897 6.2831853071795862
1 6.2831853071795862 0.99999999999999978 -1 -0 
8 4.7123889803846897 6.2831853071795862
1 0 -6.2831853071795862 0 1 
1 0 0 0 1 
1 0 -1 1 0 
1 0 9 1 0 
1 0 0 1 0 
8 4.7123889803846897 6.2831853071795862
1 -4.7123889803846897 9 1 0 
8 4.7123889803846897 6.2831853071795862
1 1.5707963267948966 -6.2831853071795862 0 1 
8 4.7123889803846897 6.2831853071795862
1 6.2831853071795862 0.99999999999999978 -1 -0 
8 4.7123889803846897 6.2831853071795862
1 0 -6.2831853071795862 0 1 
1 0 0 0 1 
1 0 -9 1 0 
8 4.7123889803846897 6.2831853071795862
1 6.2831853071795862 9 -1 -0 
8 4.7123889803846897 6.2831853071795862
1 0 -6.2831853071795862 0 1 
1 0 0 0 1 
1 0.99999999999999978 0 0 -1 
1 0 1 1 0 
1 0 0 1 0 
1 0 9 1 0 
1 0 0 1 0 
1 0 -1.5707963267948966 1 0 
1 0 -1.5707963267948966 1 0 
1 0 -1.5707963267948966 1 0 
1 0 -1.5707963267948966 1 0 
Curves 62
1 -50 -50 0 0 1 0 
1 -50 50 0 1 0 0 
1 50 50 0 0 -1 0 
1 50 -50 0 -1 0 0 
2 -15 0 5 -2.4492935982947064e-016 -1 0 1 -2.4492935982947064e-016 0 0 0 1 5
2 20 0 1.9999999999999996 0 0 1 1 0 -0 -0 1 0 12
2 30 -2.4492935982947065e-015 2 -2.4492935982947064e-016 -1 0 1 -2.4492935982947064e-016 0 0 0 1 2
1 5 14.999999999999998 0 -0.28734788556634544 7.0379933660116975e-017 0.95782628522115143 
2 0 15 1.2873478855663456 0 0 1 1 0 -0 -0 1 0 4.6137956343300965
2 0 15 9.2873478855663461 0 0 1 1 0 -0 -0 1 0 2.2137956343300966
2 3.6559693491089451 15 1 -0 1 0 1 0 0 0 0 -1 1
2 0 15 0 0 0 1 1 0 -0 -0 1 0 3.6559693491089451
2 1.2559693491089456 15 9 0 -1 0 1 0 0 -0 0 1 1
2 0 15 10 0 0 1 1 0 -0 -0 1 0 1.2559693491089456
1 -5 -10 9 0 1 0 
1 -5 -9 0 0 0 1 
1 -5 -1 0 0 0 1 
1 -5 -10 0.99999999999999978 0 1 0 
2 -4 -9 9 0 1 -0 -1 0 0 0 0 1 1
2 -4 -1 9 0 1 -0 -1 0 0 0 0 1 1
1 -4 -10 10 0 1 0 
2 -4 -9 0.99999999999999978 0 0 -1 -1 0 0 0 1 0 1
1 -4 -10 0 0 0 1 
2 -4 -9 9 0 0 -1 -1 0 0 0 1 0 1
2 -4 -1 1 0 0 -1 -1 0 0 0 1 0 1
2 -4 -1 9 0 0 1 -1 0 0 0 -1 0 1
1 -4 0 0 0 0 1 
2 -4 -9 0.99999999999999978 -0 -1 -0 -1 0 0 0 0 -1 1
2 -4 -1 1 0 1 -0 -1 0 0 0 0 1 1
1 -4 -10 -2.2204460492503131e-016 0 1 0 
2 -4 -9 9 -1 0 -6.123233995736766e-017 -6.123233995736766e-017 0 1 0 1 0 1
2 -4 -1 9 1 0 6.123233995736766e-017 -6.123233995736766e-017 0 1 0 -1 0 1
1 -5 -9 10 1 0 0 
1 -5 -1 10 1 0 0 
1 4 -10 10 0 1 0 
2 -4 -9 0.99999999999999978 1 0 -6.123233995736766e-017 -6.123233995736766e-017 -0 -1 0 1 0 1
1 -5 -10 0.99999999999999978 1 0 0 
1 -5 -10 9 1 0 0 
1 4 -10 0 0 0 1 
2 -4 -1 1 1 6.123233995736766e-017 -0 -6.123233995736766e-017 1 0 0 0 1 1
1 -5 0 0.99999999999999978 1 0 0 
1 -5 0 9 1 0 0 
1 4 0 0 0 0 1 
1 -5 -9 -2.2204460492503131e-016 1 0 0 
1 -5 -1 -2.2204460492503131e-016 1 0 0 
1 4 -10 -2.2204460492503131e-016 0 1 0 
2 4 -9 9 1 6.123233995736766e-017 0 6.123233995736766e-017 -1 0 0 0 -1 1
2 4 -1 9 1 0 -6.123233995736766e-017 6.123233995736766e-017 0 1 0 -1 0 1
2 4 -9 9 -0 1 0 1 0 0 0 0 -1 1
1 5 -10 9 0 1 0 
2 4 -1 9 0 -1 0 1 0 0 0 0 1 1
2 4 -9 0.99999999999999978 1 -0 6.123233995736766e-017 6.123233995736766e-017 0 -1 0 1 0 1
2 4 -9 0.99999999999999978 0 0 1 1 0 0 0 1 0 1
1 5 -9 0 0 0 1 
2 4 -9 9 0 0 -1 1 0 0 0 -1 0 1
2 4 -1 0.99999999999999978 -1 -0 -6.123233995736766e-017 6.123233995736766e-017 0 -1 0 -1 0 1
2 4 -1 0.99999999999999978 0 0 -1 1 0 0 0 -1 0 1
1 5 -1 0 0 0 1 
2 4 -1 9 0 0 -1 1 0 0 0 -1 0 1
1 5 -10 0.99999999999999978 0 1 0 
2 4 -9 0.99999999999999978 -0 1 0 1 0 0 0 0 -1 1
2 4 -1 0.99999999999999978 -0 1 0 1 0 0 0 0 -1 1
Polygon3D 0
PolygonOnTriangulations 0
Surfaces 34
1 -50 -50 0 0 0 1 1 0 -0 -0 1 0 
4 -15 0 5 0 0 1 1 0 -0 -0 1 0 5
5 20 0 2 0 0 1 1 0 -0 -0 1 0 10 2
3 0 15 0 0 0 1 1 0 -0 -0 1 0 5
-0.2914567944778671
5 0 15 1 -0 -0 -1 1 0 0 -0 1 -0 3.6559693491089451 1
5 0 15 9 0 0 1 1 0 -0 -0 1 0 1.2559693491089456 1
1 0 15 0 0 0 1 1 0 -0 -0 1 0 
1 0 15 10 0 0 1 1 0 -0 -0 1 0 
1 -5 -10 0 1 0 0 0 0 1 0 -1 0 
2 -4 -10 9 0 1 0 -1 0 0 0 0 1 1
2 -4 -9 0 0 0 1 -1 0 0 0 -1 0 1
2 -4 -1 0 0 0 1 -1 0 0 0 1 0 1
2 -4 -10 0.99999999999999978 0 1 0 -1 0 0 -0 -0 -1 1
4 -4 -9 9 0 1 0 -1 0 0 0 0 1 1
4 -4 -1 9 0 -1 0 -1 0 0 0 0 1 1
1 -5 -10 10 0 0 1 1 0 0 0 1 0 
4 -4 -9 0.99999999999999978 0 1 0 -1 0 0 -0 -0 -1 1
1 -5 -10 0 0 1 0 0 0 1 1 0 0 
4 -4 -1 1 0 0 1 -1 0 0 0 1 0 1
1 -5 0 0 0 1 0 0 0 1 1 0 0 
1 -5 -10 0 0 0 1 1 0 0 0 1 0 
2 -5 -9 9 1 0 0 0 -1 0 0 0 1 1
2 -5 -1 9 1 0 0 0 1 0 0 0 1 1
2 4 -10 9 0 1 0 1 0 0 0 0 1 1
2 -5 -9 0.99999999999999978 1 0 0 0 -1 0 0 0 -1 1
2 4 -9 0 0 0 1 1 0 0 0 -1 0 1
2 -5 -1 0.99999999999999978 1 0 0 0 1 0 0 0 -1 1
2 4 -1 0 0 0 1 1 0 0 0 1 0 1
2 4 -10 0.99999999999999978 0 1 0 1 0 0 0 0 -1 1
4 4 -9 9 -0 -0 -1 1 0 0 0 -1 0 1
4 4 -1 9 0 -1 0 1 0 0 0 0 1 1
1 5 -10 0 1 0 0 0 0 1 0 -1 0 
4 4 -9 0.99999999999999978 0 1 0 1 0 0 0 0 -1 1
4 4 -1 0.99999999999999978 0 -1 0 1 0 0 0 0 -1 1
Triangulations 0

TShapes 184
Ve
1e-007
-50 -50 0
0 0

0101101
*
Ve
1e-007
-50 50 0
0 0

0101101
*
Ed
 1e-007 1 1 0
1  1 0 0 100
2  1 1 0 0 100
0

0101000
+184 0 -183 0 *
Ve
1e-007
50 50 0
0 0

0101101
*
Ed
 1e-007 1 1 0
1  2 0 0 100
2  2 1 0 0 100
0

0101000
+183 0 -181 0 *
Ve
1e-007
50 -50 0
0 0

0101101
*
Ed
 1e-007 1 1 0
1  3 0 0 100
2  3 1 0 0 100
0

0101000
+181 0 -179 0 *
Ed
 1e-007 1 1 0
1  4 0 0 100
2  4 1 0 0 100
0

0101000
+179 0 -184 0 *
Wi

0101000
+182 0 +180 0 +178 0 +177 0 *
Fa
0  1e-007 1 0

0101000
-176 0 *
Ve
1e-007
-15 -7.49879891330929e-032 10
0 0

0101101
*
Ed
 1e-007 1 1 1
2  5 2 0 0 6.28318530717959
0

0101100
+174 0 -174 0 *
Ve
1e-007
-15 -7.49879891330929e-032 0
0 0

0101101
*
Ed
 1e-007 1 1 0
1  5 0 4.71238898038469 7.85398163397448
3  6 7C0 2 0 4.71238898038469 7.85398163397448
0

0101000
-174 0 +172 0 *
Ed
 1e-007 1 1 1
2  8 2 0 0 6.28318530717959
0

0101100
+172 0 -172 0 *
Wi

0101000
-173 0 +171 0 +170 0 -171 0 *
Fa
0  1e-007 2 0

0101000
+169 0 *
Sh

0101000
+168 0 *
So

0100000
+167 0 *
Ve
1e-007
32 -2.93915231795365e-015 2
0 0

0101101
*
Ed
 1e-007 1 1 0
1  6 0 0 6.28318530717959
3  9 10C0 3 0 0 6.28318530717959
0

0101000
+165 0 -165 0 *
Ed
 1e-007 1 1 0
1  7 0 0 6.28318530717959
3  11 12C0 3 0 0 6.28318530717959
0

0101000
+165 0 -165 0 *
Wi

0101000
-164 0 +163 0 +164 0 -163 0 *
Fa
0  1e-007 3 0

0101000
+162 0 *
Sh

0101000
+161 0 *
So

0100000
+160 0 *
Ve
1e-007
4.6137956343301 15 1.28734788556635
0 0

0101101
*
Ve
1e-007
2.2137956343301 15 9.28734788556635
0 0

0101101
*
Ed
 1e-007 1 1 0
1  8 0 1.34403065089106 9.6962758580195
3  13 14C0 4 0 1.34403065089106 9.6962758580195
0

0101000
+158 0 -157 0 *
Ed
 1e-007 1 1 0
1  9 0 0 6.28318530717959
2  15 4 0 0 6.28318530717959
2  16 5 0 0 6.28318530717959
0

0101100
+158 0 -158 0 *
Ed
 1e-007 1 1 0
1  10 0 0 6.28318530717959
2  17 4 0 0 6.28318530717959
2  18 6 0 0 6.28318530717959
0

0101100
+157 0 -157 0 *
Wi

0101000
+156 0 +155 0 -154 0 -156 0 *
Fa
0  1e-007 4 0

0101000
+153 0 *
Ve
1e-007
3.65596934910895 15 0
0 0

0101101
*
Ed
 1e-007 1 1 0
1  11 0 5.99172851270172 7.85398163397448
3  19 20C0 5 0 5.99172851270172 7.85398163397448
0

0101000
+158 0 -151 0 *
Ed
 1e-007 1 1 0
1  12 0 0 6.28318530717959
2  21 5 0 0 6.28318530717959
2  22 7 0 0 6.28318530717959
0

0101100
+151 0 -151 0 *
Wi

0101000
-150 0 +155 0 -149 0 +150 0 *
Fa
0  1e-007 5 0

0101000
+148 0 *
Ve
1e-007
1.25596934910895 15 10
0 0

0101101
*
Ed
 1e-007 1 1 0
1  13 0 0.291456794477868 1.5707963267949
3  23 24C0 6 0 0.291456794477868 1.5707963267949
0

0101000
+157 0 -146 0 *
Ed
 1e-007 1 1 0
1  14 0 0 6.28318530717959
2  25 6 0 0 6.28318530717959
2  26 8 0 0 6.28318530717959
0

0101100
+146 0 -146 0 *
Wi

0101000
-145 0 +154 0 -144 0 +145 0 *
Fa
0  1e-007 6 0

0101000
+143 0 *
Wi

0101000
+149 0 *
Fa
0  1e-007 7 0

0101000
+141 0 *
Wi

0101000
+144 0 *
Fa
0  1e-007 8 0

0101000
+139 0 *
Sh

0101000
+152 0 -147 0 +142 0 -140 0 +138 0 *
So

0100000
+137 0 *
Ve
1e-007
-5 -9 9
0 0

0101101
*
Ve
1e-007
-5 -1 9
0 0

0101101
*
Ed
 1e-007 1 1 0
1  15 0 1 9
2  27 9 0 1 9
2  28 10 0 1 9
0

0101000
+135 0 -134 0 *
Ve
1e-007
-5 -9 1
0 0

0101101
*
Ed
 1e-007 1 1 0
1  16 0 1 9
2  29 9 0 1 9
2  30 11 0 1 9
0

0101000
+132 0 -135 0 *
Ve
1e-007
-5 -1 1
0 0

0101101
*
Ed
 1e-007 1 1 0
1  17 0 1 9
2  31 9 0 1 9
2  32 12 0 1 9
0

0101000
+130 0 -134 0 *
Ed
 1e-007 1 1 0
1  18 0 1 9
2  33 9 0 1 9
2  34 13 0 1 9
0

0101000
+132 0 -130 0 *
Wi

0101000
-133 0 -131 0 +129 0 +128 0 *
Fa
0  1e-007 9 0

0101000
+127 0 *
Ve
1e-007
-4 -9 10
0 0

0101101
*
Ed
 1e-007 1 1 0
1  19 0 0 1.5707963267949
2  35 10 0 0 1.5707963267949
2  36 14 0 0 1.5707963267949
0

0101000
+135 0 -125 0 *
Ve
1e-007
-4 -1 10
0 0

0101101
*
Ed
 1e-007 1 1 0
1  20 0 0 1.5707963267949
2  37 10 0 0 1.5707963267949
2  38 15 0 0 1.5707963267949
0

0101000
+134 0 -123 0 *
Ed
 1e-007 1 1 0
1  21 0 1 9
2  39 10 0 1 9
2  40 16 0 1 9
0

0101000
+125 0 -123 0 *
Wi

0101000
-133 0 +124 0 -122 0 +121 0 *
Fa
0  1e-007 10 0

0101000
+120 0 *
Ve
1e-007
-4 -10 1
0 0

0101101
*
Ed
 1e-007 1 1 0
1  22 0 4.71238898038469 6.28318530717959
2  41 11 0 4.71238898038469 6.28318530717959
2  42 17 0 4.71238898038469 6.28318530717959
0

0101000
+118 0 -132 0 *
Ve
1e-007
-4 -10 9
0 0

0101101
*
Ed
 1e-007 1 1 0
1  23 0 1 9
2  43 11 0 1 9
2  44 18 0 1 9
0

0101000
+118 0 -116 0 *
Ed
 1e-007 1 1 0
1  24 0 4.71238898038469 6.28318530717959
2  45 11 0 4.71238898038469 6.28318530717959
2  46 14 0 4.71238898038469 6.28318530717959
0

0101000
+116 0 -135 0 *
Wi

0101000
-117 0 +115 0 -131 0 +114 0 *
Fa
0  1e-007 11 0

0101000
+113 0 *
Ve
1e-007
-4 0 1
0 0

0101101
*
Ed
 1e-007 1 1 0
1  25 0 0 1.5707963267949
2  47 12 0 0 1.5707963267949
2  48 19 0 0 1.5707963267949
0

0101000
+130 0 -111 0 *
Ve
1e-007
-4 0 9
0 0

0101101
*
Ed
 1e-007 1 1 0
1  26 0 4.71238898038469 6.28318530717959
2  49 12 0 4.71238898038469 6.28318530717959
2  50 15 0 4.71238898038469 6.28318530717959
0

0101000
+109 0 -134 0 *
Ed
 1e-007 1 1 0
1  27 0 1 9
2  51 12 0 1 9
2  52 20 0 1 9
0

0101000
+111 0 -109 0 *
Wi

0101000
-129 0 +110 0 +108 0 +107 0 *
Fa
0  1e-007 12 0

0101000
+106 0 *
Ve
1e-007
-4 -9 -2.22044604925031e-016
0 0

0101101
*
Ed
 1e-007 1 1 0
1  28 0 0 1.5707963267949
2  53 13 0 0 1.5707963267949
2  54 17 0 0 1.5707963267949
0

0101000
+132 0 -104 0 *
Ve
1e-007
-4 -1 0
0 0

0101101
*
Ed
 1e-007 1 1 0
1  29 0 4.71238898038469 6.28318530717959
2  55 13 0 4.71238898038469 6.28318530717959
2  56 19 0 4.71238898038469 6.28318530717959
0

0101000
+102 0 -130 0 *
Ed
 1e-007 1 1 0
1  30 0 1 9
2  57 13 0 1 9
2  58 21 0 1 9
0

0101000
+104 0 -102 0 *
Wi

0101000
-128 0 +103 0 +101 0 +100 0 *
Fa
0  1e-007 13 0

0101000
+99 0 *
Ed
 1e-007 1 1 1
2  59 14 0 0 1.5707963267949
0

0101100
+116 0 -116 0 *
Ed
 1e-007 1 1 0
1  31 0 4.71238898038469 6.28318530717959
2  60 14 0 4.71238898038469 6.28318530717959
2  61 22 0 4.71238898038469 6.28318530717959
0

0101000
+116 0 -125 0 *
Wi

0101000
-114 0 +97 0 +96 0 -124 0 *
Fa
0  1e-007 14 0

0101000
+95 0 *
Ed
 1e-007 1 1 1
2  62 15 0 0 1.5707963267949
0

0101100
+109 0 -109 0 *
Ed
 1e-007 1 1 0
1  32 0 4.71238898038469 6.28318530717959
2  63 15 0 4.71238898038469 6.28318530717959
2  64 23 0 4.71238898038469 6.28318530717959
0

0101000
+109 0 -123 0 *
Wi

0101000
-108 0 +93 0 +92 0 -122 0 *
Fa
0  1e-007 15 0

0101000
+91 0 *
Ve
1e-007
4 -9 10
0 0

0101101
*
Ed
 1e-007 1 1 0
1  33 0 1 9
2  65 16 0 1 9
2  66 22 0 1 9
0

0101000
+125 0 -89 0 *
Ve
1e-007
4 -1 10
0 0

0101101
*
Ed
 1e-007 1 1 0
1  34 0 1 9
2  67 16 0 1 9
2  68 23 0 1 9
0

0101000
+123 0 -87 0 *
Ed
 1e-007 1 1 0
1  35 0 1 9
2  69 16 0 1 9
2  70 24 0 1 9
0

0101000
+89 0 -87 0 *
Wi

0101000
-121 0 +88 0 -86 0 +85 0 *
Fa
0  1e-007 16 0

0101000
+84 0 *
Ed
 1e-007 1 1 1
2  71 17 0 0 1.5707963267949
0

0101100
+118 0 -118 0 *
Ed
 1e-007 1 1 0
1  36 0 4.71238898038469 6.28318530717959
2  72 17 0 4.71238898038469 6.28318530717959
2  73 25 0 4.71238898038469 6.28318530717959
0

0101000
+118 0 -104 0 *
Wi

0101000
-117 0 +82 0 +81 0 -103 0 *
Fa
0  1e-007 17 0

0101000
+80 0 *
Ve
1e-007
4 -10 1
0 0

0101101
*
Ed
 1e-007 1 1 0
1  37 0 1 9
2  74 18 0 1 9
2  75 25 0 1 9
0

0101000
+118 0 -78 0 *
Ve
1e-007
4 -10 9
0 0

0101101
*
Ed
 1e-007 1 1 0
1  38 0 1 9
2  76 18 0 1 9
2  77 22 0 1 9
0

0101000
+116 0 -76 0 *
Ed
 1e-007 1 1 0
1  39 0 1 9
2  78 18 0 1 9
2  79 26 0 1 9
0

0101000
+78 0 -76 0 *
Wi

0101000
+115 0 -77 0 +75 0 -74 0 *
Fa
0  1e-007 18 0

0101000
+73 0 *
Ed
 1e-007 1 1 1
2  80 19 0 0 1.5707963267949
0

0101100
+102 0 -102 0 *
Ed
 1e-007 1 1 0
1  40 0 4.71238898038469 6.28318530717959
2  81 19 0 4.71238898038469 6.28318530717959
2  82 27 0 4.71238898038469 6.28318530717959
0

0101000
+102 0 -111 0 *
Wi

0101000
-101 0 +71 0 +70 0 -110 0 *
Fa
0  1e-007 19 0

0101000
+69 0 *
Ve
1e-007
4 0 1
0 0

0101101
*
Ed
 1e-007 1 1 0
1  41 0 1 9
2  83 20 0 1 9
2  84 27 0 1 9
0

0101000
+111 0 -67 0 *
Ve
1e-007
4 0 9
0 0

0101101
*
Ed
 1e-007 1 1 0
1  42 0 1 9
2  85 20 0 1 9
2  86 23 0 1 9
0

0101000
+109 0 -65 0 *
Ed
 1e-007 1 1 0
1  43 0 1 9
2  87 20 0 1 9
2  88 28 0 1 9
0

0101000
+67 0 -65 0 *
Wi

0101000
+107 0 -66 0 +64 0 -63 0 *
Fa
0  1e-007 20 0

0101000
+62 0 *
Ve
1e-007
4 -9 -2.22044604925031e-016
0 0

0101101
*
Ed
 1e-007 1 1 0
1  44 0 1 9
2  89 21 0 1 9
2  90 25 0 1 9
0

0101000
+104 0 -60 0 *
Ve
1e-007
4 -1 -2.22044604925031e-016
0 0

0101101
*
Ed
 1e-007 1 1 0
1  45 0 1 9
2  91 21 0 1 9
2  92 27 0 1 9
0

0101000
+102 0 -58 0 *
Ed
 1e-007 1 1 0
1  46 0 1 9
2  93 21 0 1 9
2  94 29 0 1 9
0

0101000
+60 0 -58 0 *
Wi

0101000
-100 0 +59 0 -57 0 +56 0 *
Fa
0  1e-007 21 0

0101000
+55 0 *
Ed
 1e-007 1 1 0
1  47 0 4.71238898038469 6.28318530717959
2  95 22 0 4.71238898038469 6.28318530717959
2  96 30 0 4.71238898038469 6.28318530717959
0

0101000
+89 0 -76 0 *
Wi

0101000
+96 0 -75 0 +88 0 +53 0 *
Fa
0  1e-007 22 0

0101000
+52 0 *
Ed
 1e-007 1 1 0
1  48 0 4.71238898038469 6.28318530717959
2  97 23 0 4.71238898038469 6.28318530717959
2  98 31 0 4.71238898038469 6.28318530717959
0

0101000
+65 0 -87 0 *
Wi

0101000
+92 0 -64 0 +86 0 -50 0 *
Fa
0  1e-007 23 0

0101000
+49 0 *
Ve
1e-007
5 -9 9
0 0

0101101
*
Ed
 1e-007 1 1 0
1  49 0 4.71238898038469 6.28318530717959
2  99 24 0 4.71238898038469 6.28318530717959
2  100 30 0 4.71238898038469 6.28318530717959
0

0101000
+89 0 -47 0 *
Ve
1e-007
5 -1 9
0 0

0101101
*
Ed
 1e-007 1 1 0
1  50 0 1 9
2  101 24 0 1 9
2  102 32 0 1 9
0

0101000
+47 0 -45 0 *
Ed
 1e-007 1 1 0
1  51 0 0 1.5707963267949
2  103 24 0 0 1.5707963267949
2  104 31 0 0 1.5707963267949
0

0101000
+45 0 -87 0 *
Wi

0101000
-46 0 +85 0 -44 0 -43 0 *
Fa
0  1e-007 24 0

0101000
+42 0 *
Ed
 1e-007 1 1 0
1  52 0 4.71238898038469 6.28318530717959
2  105 25 0 4.71238898038469 6.28318530717959
2  106 33 0 4.71238898038469 6.28318530717959
0

0101000
+78 0 -60 0 *
Wi

0101000
+81 0 -77 0 +59 0 -40 0 *
Fa
0  1e-007 25 0

0101000
+39 0 *
Ve
1e-007
5 -9 1
0 0

0101101
*
Ed
 1e-007 1 1 0
1  53 0 4.71238898038469 6.28318530717959
2  107 26 0 4.71238898038469 6.28318530717959
2  108 33 0 4.71238898038469 6.28318530717959
0

0101000
+78 0 -37 0 *
Ed
 1e-007 1 1 0
1  54 0 1 9
2  109 26 0 1 9
2  110 32 0 1 9
0

0101000
+37 0 -47 0 *
Ed
 1e-007 1 1 0
1  55 0 0 1.5707963267949
2  111 26 0 0 1.5707963267949
2  112 30 0 0 1.5707963267949
0

0101000
+47 0 -76 0 *
Wi

0101000
-36 0 +74 0 -35 0 -34 0 *
Fa
0  1e-007 26 0

0101000
+33 0 *
Ed
 1e-007 1 1 0
1  56 0 4.71238898038469 6.28318530717959
2  113 27 0 4.71238898038469 6.28318530717959
2  114 34 0 4.71238898038469 6.28318530717959
0

0101000
+67 0 -58 0 *
Wi

0101000
-70 0 +57 0 -66 0 -31 0 *
Fa
0  1e-007 27 0

0101000
+30 0 *
Ve
1e-007
5 -1 1
0 0

0101101
*
Ed
 1e-007 1 1 0
1  57 0 4.71238898038469 6.28318530717959
2  115 28 0 4.71238898038469 6.28318530717959
2  116 34 0 4.71238898038469 6.28318530717959
0

0101000
+67 0 -28 0 *
Ed
 1e-007 1 1 0
1  58 0 1 9
2  117 28 0 1 9
2  118 32 0 1 9
0

0101000
+28 0 -45 0 *
Ed
 1e-007 1 1 0
1  59 0 4.71238898038469 6.28318530717959
2  119 28 0 4.71238898038469 6.28318530717959
2  120 31 0 4.71238898038469 6.28318530717959
0

0101000
+65 0 -45 0 *
Wi

0101000
-27 0 +63 0 -26 0 +25 0 *
Fa
0  1e-007 28 0

0101000
+24 0 *
Ed
 1e-007 1 1 0
1  60 0 1 9
2  121 29 0 1 9
2  122 32 0 1 9
0

0101000
+37 0 -28 0 *
Ed
 1e-007 1 1 0
1  61 0 0 1.5707963267949
2  123 29 0 0 1.5707963267949
2  124 33 0 0 1.5707963267949
0

0101000
+37 0 -60 0 *
Ed
 1e-007 1 1 0
1  62 0 0 1.5707963267949
2  125 29 0 0 1.5707963267949
2  126 34 0 0 1.5707963267949
0

0101000
+28 0 -58 0 *
Wi

0101000
-22 0 +21 0 -20 0 +56 0 *
Fa
0  1e-007 29 0

0101000
+19 0 *
Ed
 1e-007 1 1 1
2  127 30 0 0 1.5707963267949
0

0101100
+89 0 -89 0 *
Wi

0101000
-46 0 +17 0 +53 0 -34 0 *
Fa
0  1e-007 30 0

0101000
+16 0 *
Ed
 1e-007 1 1 1
2  128 31 0 0 1.5707963267949
0

0101100
+65 0 -65 0 *
Wi

0101000
-25 0 +14 0 +50 0 -43 0 *
Fa
0  1e-007 31 0

0101000
+13 0 *
Wi

0101000
+22 0 -35 0 +26 0 -44 0 *
Fa
0  1e-007 32 0

0101000
+11 0 *
Ed
 1e-007 1 1 1
2  129 33 0 0 1.5707963267949
0

0101100
+78 0 -78 0 *
Wi

0101000
-36 0 +9 0 +40 0 -21 0 *
Fa
0  1e-007 33 0

0101000
+8 0 *
Ed
 1e-007 1 1 1
2  130 34 0 0 1.5707963267949
0

0101100
+67 0 -67 0 *
Wi

0101000
-27 0 +6 0 +31 0 -20 0 *
Fa
0  1e-007 34 0

0101000
+5 0 *
Sh

0101000
-126 0 +119 0 +112 0 -105 0 -98 0 +94 0 -90 0 +83 0 -79 0 -72 0 
-68 0 +61 0 -54 0 -51 0 +48 0 -41 0 +38 0 -32 0 -29 0 +23 0 
+18 0 +15 0 +12 0 +10 0 +7 0 -4 0 *
So

0100000
+3 0 *
Co

1100000
+175 0 +166 0 +159 0 +136 0 +2 0 *

+1 0 