DBRep_DrawableShape

CASCADE Topology V1, (c) Matra-Datavision
Locations 0
Curve2ds 80
8 0 6.2831853071795862
1 0 20.000000000000039 1 0 
2 0 0 1 0 -0 1 5.0000000000000098
8 0 20.000000000000039
1 6.2831853071795862 0 0 1 
8 0 20.000000000000039
1 0 0 0 1 
8 0 6.2831853071795862
1 0 0 1 0 
2 0 0 1 0 -0 1 5.0000000000000098
2 0 0 0 -1 1 0 5.0000000000000089
8 1.5707963267948966 7.8539816339744828
1 -1.5707963267948966 22.360679774997944 1 0 
2 0 0 1 0 -0 1 12.000000000000023
8 0 6.2831853071795862
1 0 0 1 0 
8 0 22.360679774997941
1 6.2831853071795862 0 0 1 
8 0 22.360679774997941
1 0 0 0 1 
8 0 6.2831853071795862
1 0 0 1 0 
2 0 0 1 0 -0 1 15.00000000000003
8 0 17.888543819998354
1 6.2831853071795862 0 0 1 
8 0 17.888543819998354
1 0 0 0 1 
8 1.5707963267948966 7.8539816339744828
1 -1.5707963267948966 17.888543819998354 1 0 
2 0 0 0 -1 1 0 4.0000000000000071
2 0 0 1 0 -0 1 10.00000000000002
8 0 6.2831853071795862
1 0 0 1 0 
8 0 6.2831853071795862
1 0 22.360679774997944 1 0 
8 0 22.360679774997944
1 6.2831853071795862 0 0 1 
8 0 22.360679774997944
1 0 0 0 1 
8 0 6.2831853071795862
1 0 20.000000000000039 1 0 
2 0 0 1 0 -0 1 5.0000000000000098
8 0 20.000000000000039
1 6.2831853071795862 0 0 1 
8 0 20.000000000000039
1 0 0 0 1 
8 0 6.2831853071795862
1 0 0 1 0 
2 0 0 1 0 -0 1 5.0000000000000098
2 0 0 0 -1 1 0 5.0000000000000089
8 1.5707963267948966 7.8539816339744828
1 -1.5707963267948966 22.360679774997944 1 0 
2 0 0 1 0 -0 1 12.000000000000023
8 0 6.2831853071795862
1 0 0 1 0 
8 0 22.360679774997941
1 6.2831853071795862 0 0 1 
8 0 22.360679774997941
1 0 0 0 1 
8 0 6.2831853071795862
1 0 0 1 0 
2 0 0 1 0 -0 1 15.00000000000003
8 0 17.888543819998354
1 6.2831853071795862 0 0 1 
8 0 17.888543819998354
1 0 0 0 1 
8 1.5707963267948966 7.8539816339744828
1 -1.5707963267948966 17.888543819998354 1 0 
2 0 0 0 -1 1 0 4.0000000000000071
2 0 0 1 0 -0 1 10.00000000000002
8 0 6.2831853071795862
1 0 0 1 0 
8 0 6.2831853071795862
1 0 22.360679774997944 1 0 
8 0 22.360679774997944
1 6.2831853071795862 0 0 1 
8 0 22.360679774997944
1 0 0 0 1 
1 6.2831853071795862 -6.2831853071795862 0 1 
1 0 -6.2831853071795862 0 1 
1 0 -1.5707963267948966 1 0 
7 0 0  10 56 7  6.2831853071795853 1.1592794807274085  6.1932066415843767 1.1592794806374298  6.1032278366926889 1.1553533978167252  6.0154668861244076 1.1475014737152378  5.9321299745672817 1.1359036395151634  5.8549295413061131 1.120925372466445  5.7843354215540543 1.1030269231123384  5.7203022759161044 1.0826204438199056  5.662461319036332 1.0600838060472597  5.6103117843188812 1.0357354786779382  5.481071509879337 0.96453760236106822  5.4146088571526647 0.91450795109176397  5.3610415066898653 0.86120182973172632  5.3171200813478876 0.80559049372095615  5.2808346087797631 0.74824253148108255  5.2505989376034208 0.68959043455834035  5.2253234760458085 0.62991704438172746  5.2041710305177489 0.56944758496138093  5.1865256290064501 0.50834906477122255  5.1500206346734601 0.35436652861388696  5.1349653152530959 0.26086431778229147  5.1251952183219815 0.16670230755767931  5.1199324562193151 0.072158236259201661  5.1187938945634173 -0.022544404893778847  5.121685782848429 -0.11720927736841986  5.1287969278830348 -0.21163551117587076  5.140623694449161 -0.30558630904243922  5.1581007461061263 -0.39875744630328663  5.1955598923634954 -0.53656845931093999  5.2099202550863311 -0.58218117304405781  5.226385059949938 -0.62740494154197679  5.2452432699996949 -0.67216152871696977  5.2668525728579638 -0.71635516644346353  5.2916688737896704 -0.75986472287695506  5.3202652842177702 -0.80253509433309778  5.3533740770875653 -0.84416201309890371  5.3919486021726799 -0.88446505220014227  5.4596846266493948 -0.94234802050998334  5.4839090147155236 -0.9612137466200299  5.5099185905492627 -0.9796020714010989  5.5378633618248605 -0.99745733190640418  5.5679007835479304 -1.0147159881138983  5.6001925990067836 -1.0313056005808749  5.6348968924952789 -1.0471438650250122  5.6721527638800371 -1.0621381983127625  5.712057160153261 -1.0761868043427025  5.7972138882084376 -1.1021783602934481  5.8424662371439524 -1.1141213062357465  5.8904181992217435 -1.1249043411995445  5.9410244031489796 -1.1344149182667025  5.9941409688974758 -1.1425393239933328  6.0494965192604226 -1.1491681543542653  6.106666278775343 -1.1542070584042903  6.1650882948517358 -1.1575886647631286  6.2241368070950998 -1.1592794806683597  6.2831853071795862 -1.1592794807274083 
 3.4025382736534806e-016 11 0.39269908169872447 9 1.0799224746714913 9 2.1107575641306395 9 2.6261751088602141 9 2.8838838812250023 9 3.1415926535897922 11
7 0 0  10 38 5  3.1415926535897936 0.82303369213497612  3.2262784554246773 0.82303369205029031  3.3109644082505838 0.8156434080156032  3.3932360509934369 0.80086340961133828  3.4706920342287049 0.77905626321444288  3.541479135863483 0.75096062231750693  3.6051343984436244 0.71749708084098529  3.6616963834967464 0.67948037761379965  3.7115368101367494 0.63765960481759976  3.755139566203773 0.59266781431321247  3.8498106287678628 0.47361862818468575  3.8937110908991599 0.39627622660970019  3.9264078589039855 0.31485224493144415  3.94969824294094 0.23070252858269669  3.964702092576772 0.14478947447514656  3.9721168127725832 0.057921341312976438  3.9722019935725257 -0.02919660307088634  3.9648447327926988 -0.11585543972660162  3.9494741574559806 -0.20126247755361604  3.9128756368721076 -0.32597895594882587  3.8984190025999395 -0.36698544669304606  3.8815784919503451 -0.40729989749035989  3.8621991788436092 -0.44678253134610868  3.8400995352575493 -0.48527578842074748  3.8150727503007147 -0.52260034217999884  3.7868922978874244 -0.55855010342249312  3.7553272331812337 -0.59288717196790552  3.7201736734406907 -0.6253400609205465  3.6424461152963459 -0.68588170619012823  3.5998720578626489 -0.71397044331671855  3.5534660290454667 -0.73957943912243995  3.5031860377057455 -0.76238377237750687  3.4491280233924044 -0.78204199713763956  3.3915793984779157 -0.79820691603017624  3.3311177646557555 -0.81056282433050908  3.2686213687317021 -0.81887666189108577  3.2051070052355199 -0.82303369207146171  3.1415926535897931 -0.8230336921349759 
 3.4025382736534806e-016 11 0.78539816339745228 9 1.9634954084936282 9 2.5525440310417085 9 3.1415926535897927 11
7 0 0  10 56 7  -1.2512494551886112e-015 -1.1592794807274085  0.089978665595207091 -1.1592794806374298  0.17995747046370525 -1.1553533978340056  0.26771842117523192 -1.1475014739335165  0.35105533241585363 -1.1359036393259885  0.42825576598988846 -1.1209253721754067  0.49884988530538976 -1.1030269230250269  0.56288303132896544 -1.0826204438053537  0.62072398812233587 -1.0600838060654496  0.67287352286070423 -1.0357354786779389  0.80211379730024901 -0.96453760236106889  0.86857645006966777 -0.9145079510872165  0.9221438002641662 -0.86120182966260472  0.966065226282808 -0.80559049357543699  1.0023506988945883 -0.74824253155384213  1.0325863697944442 -0.68959043454378843  1.0578618310246384 -0.62991704442538321  1.0790142766891222 -0.56944758493591507  1.0966596781731364 -0.50834906477122255  1.1331646725061266 -0.35436652861388696  1.1482199919206695 -0.26086431778229147  1.1579900888859811 -0.16670230755783849  1.1632528509428084 -0.072158236259565453  1.164391412601617 0.022544404893778847  1.1614995243311568 0.11720927736860176  1.1543883792681755 0.21163551117566043  1.1425616127362463 0.30558630904230288  1.1250845610734592 0.39875744630328702  1.0876254148160902 0.53656845931094055  1.073265052092528 0.58218117304715011  1.0568002472293756 0.62740494153804316  1.0379420371689776 0.67216152870314549  1.0163327343343553 0.71635516639980779  0.99151643341319873 0.75986472284348561  0.96292002295672319 0.80253509434724035  0.92981123009202127 0.84416201309926753  0.8912367050069061 0.88446505220014227  0.82350068053019165 0.94234802050998334  0.79927629246413345 0.96121374662059578  0.77326671663016433 0.97960207140067435  0.74532194535404428 0.99745733190737484  0.71528452363109962 1.0147159881153127  0.68299270817315116 1.0313056005800263  0.6482884146852097 1.047143865023314  0.61103254329990286 1.062138198313894  0.57112814702632542 1.0761868043427025  0.48597141897114887 1.1021783602934483  0.44071907003717997 1.114121306238657  0.39276710795683129 1.1249043411917228  0.34216090402424015 1.1344149182768888  0.28904433827528919 1.1425393239787809  0.2336887879173446 1.1491681543266168  0.17651902840580078 1.1542070584122484  0.11809701232775907 1.157588664760582  0.059048500084486422 1.1592794806683597  5.6264380374519299e-016 1.1592794807274083 
 3.1415926535897927 11 3.5342917352885173 9 4.2215151282612862 9 5.2523502177204371 9 5.7677677624500134 9 6.0254765348147998 9 6.2831853071795862 11
7 0 0  10 38 5  3.1415926535897936 -0.82303369213497612  3.0569068517549094 -0.82303369205029031  2.9722208992716332 -0.81564340792374423  2.8899492547934642 -0.80086341020796681  2.8124932746286504 -0.77905626219580881  2.7417061693267897 -0.75096062355441973  2.678050912276376 -0.71749707982235122  2.6214889224502258 -0.67948037809401285  2.5716484974036575 -0.63765960473392624  2.5280457409758132 -0.59266781431321258  2.4333746784117234 -0.47361862818468586  2.3894742169086385 -0.39627622661726036  2.3567774452967569 -0.31485224492053021  2.3334870703984052 -0.23070252867091767  2.3184832109254785 -0.14478947440238699  2.3110684985294938 -0.057921341386645508  2.3109833109338069 0.029196603080436034  2.3183405750241945 0.11585543972182677  2.3337111497236056 0.20126247755361573  2.3703096703074786 0.32597895594882564  2.3847663045755292 0.36698544669378863  2.401606815223492 0.40729989748900691  2.4209861283280287 0.44678253134544932  2.443085771912592 0.48527578842125269  2.4681125568706195 0.5226003421794303  2.4962930092866236 0.55855010342114053  2.5278580739950853 0.5928871719685066  2.5630116337388946 0.6253400609205465  2.6407391918832395 0.68588170619012823  2.6833132492825409 0.71397044331526338  2.7297192781955344 0.73957943912698743  2.7799992693355309 0.76238377238041721  2.8340572837696527 0.78204199713763956  2.8916059087758184 0.79820691602144511  2.9520675423769718 0.81056282431522964  3.0145639384556886 0.81887666189108577  3.0780783019440663 0.82303369207146171  3.1415926535897931 0.8230336921349759 
 3.1415926535897927 11 3.9269908169872436 9 5.1050880620834187 9 5.6941366846315047 9 6.2831853071795862 11
1 0 1.5707963267948966 1 0 
7 0 0  10 47 6  3.1415926535897931 0.92729521800161208  3.193952532449623 0.9272952179492524  3.2463123472498063 0.92501056999063924  3.2981616108823979 0.92044139511369194  3.3489884466662865 0.91362718424878353  3.3983291312536799 0.90464815986898528  3.4458125388982195 0.89361718024444303  3.491179766416038 0.88066787856113005  3.5342751374948471 0.86594317873230797  3.5750207056633649 0.84958677934910232  3.680570078788028 0.80050441493447222  3.7404979646344145 0.76470171923756425  3.7931068929901812 0.72508016598658287  3.8388982485630549 0.68235226962133311  3.8786268206313252 0.63710533718403894  3.9129767053527758 0.58980503551720176  3.9425773315888364 0.54083043028003885  3.9679491030838108 0.49048816161212017  3.9895254810879588 0.43903340484106179  4.0348453435097058 0.30815464849387253  4.0542782246399955 0.22760972857897421  4.0671249157745475 0.14577548349294886  4.0741231096821142 0.063182243014671263  4.0756504002565634 -0.019734213879701201  4.0717915690154767 -0.10257397809436952  4.0623672905756392 -0.18493104257456708  4.0468979622271748 -0.26634951606871304  4.0245142814992558 -0.34625906899139236  3.9785891320394362 -0.46266090197638998  3.9612224909346283 -0.50088443924664783  3.941632986090748 -0.53843093665694908  3.9196279234916802 -0.57518632113751667  3.8949860720515268 -0.6110183926005246  3.867457483900762 -0.64577319362410879  3.8367668680025857 -0.67926998492235269  3.8026267501004747 -0.7112955795200061  3.7647696007960301 -0.74160132545098778  3.6812525239126721 -0.79821580194901431  3.6355925070246387 -0.8245245100335804  3.5858469824287567 -0.84855632463068109  3.5319111751858143 -0.87000186212972042  3.4738313250491046 -0.88853063344868133  3.4118621509522198 -0.90379920200430208  3.346604482976363 -0.91548851018155797  3.2790373315446346 -0.92335955119995494  3.2103149941766533 -0.92729521793288983  3.1415926535897931 -0.92729521800161208 
 7.1435370639638513e-017 11 0.39269908169872531 9 1.0799224746714875 9 2.1107575641306369 9 2.6261751088602114 9 3.1415926535897927 11
7 0 0  10 65 8  6.2831853071795853 1.2870022175865687  6.2158654612169473 1.2870022175192493  6.1485456010356545 1.2855335197148974  6.0821094378015559 1.2825961813336106  6.0174395013193802 1.2782266525580781  5.9553050125553213 1.2724987400470127  5.8962291167922318 1.2655133606342133  5.8404867271134879 1.2573829818538342  5.7881764976917136 1.2482195483225209  5.7392683180037132 1.2381302532635989  5.6081190923342756 1.2067452561185814  5.5341568922388191 1.1833685926412727  5.4710342996507038 1.1577342124655843  5.4169987163288837 1.1303906051180093  5.3703788039377045 1.1017140328767709  5.3299241483284945 1.071983197791269  5.2945528254961332 1.0414034018831444  5.2634525532496568 1.010130552267583  5.2359526796836935 0.97828495160803808  5.1687608260833322 0.88939391524831435  5.1353931698314614 0.8313617814660631  5.1085469360680902 0.77236995455398305  5.0865706881159651 0.71268169260765712  5.0683944153727438 0.65247240454300481  5.0532747740683348 0.5918637407179631  5.0406827095864841 0.53094222675340463  5.0302343315234648 0.46977646192641326  5.021645598591344 0.40841897259002363  5.0043078550579052 0.25465576781270188  4.997625821236646 0.16206527144231586  4.99396802155686 0.069289826080421335  4.9930279712237038 -0.02357026102981763  4.9946937012530483 -0.11642858385675936  4.999045717656621 -0.20919998122917605  5.0063225273509246 -0.30179377523018047  5.0170353029200427 -0.39409006192090601  5.032014701282586 -0.48593184555753194  5.0635388720344343 -0.62256362227550477  5.0755561642733671 -0.6679190640310495  5.0893035652142533 -0.71304857272982647  5.1050627159944941 -0.75790581745095553  5.1231891822765405 -0.80243200224322209  5.1441524488015364 -0.84655123929987897  5.1685708831376118 -0.89016185326704544  5.1972835210510802 -0.93312347778846527  5.2314971715029852 -0.97523210549123251  5.2937017783525082 -1.0366193967459629  5.316250637701577 -1.0567858928128737  5.3408328628972539 -1.0766150602583022  5.36770147979301 -1.0960577630463679  5.3971493915490871 -1.1150546913133641  5.4295125096628514 -1.1335343088260437  5.4651732307054353 -1.1514095244991807  5.5045568297826932 -1.1685731591677959  5.5481024711799574 -1.184894005465962  5.644256861003023 -1.2155400051752168  5.6968656563542694 -1.2298651729761332  5.75437519101731 -1.2430374429677613  5.8170875780736182 -1.2548785308608785  5.8851472190028957 -1.2651858509634621  5.958426448839667 -1.2737441188946832  6.0363271355174888 -1.2803312193937018  6.1175152946041393 -1.2847785362155264  6.2003503412579235 -1.2870022175037339  6.2831853071795845 -1.287002217586569 
 7.1435370639638513e-017 11 0.19634954084936221 9 0.56450492994191559 9 1.2087768608538842 9 2.1751847572218379 9 2.6583887054058151 9 2.899990679497805 9 3.1415926535897936 11
7 0 0  10 47 6  3.1415926535897936 -0.92729521800161208  3.0892327747299633 -0.9272952179492524  3.0368729599313231 -0.92501056999035636  2.9850236962961079 -0.92044139511347967  2.9341968605131119 -0.9136271842499355  2.8848561759255569 -0.90464815987019787  2.8373727682769951 -0.89361718024365477  2.7920055407580104 -0.88066787855922013  2.748910169684867 -0.86594317873202475  2.7081646015162208 -0.84958677934910232  2.6026152283915587 -0.80050441493447233  2.5426873428732506 -0.76470171920209395  2.4900784119527088 -0.72508016615029192  2.4442870616621803 -0.68235226901015267  2.4045584811246954 -0.63710533760604449  2.3702086042030714 -0.58980503496422898  2.3406079735286767 -0.5408304304437479  2.3152362045184418 -0.49048816157028341  2.2936598260916279 -0.43903340484106185  2.24833996366988 -0.30815464849387253  2.2289070825088322 -0.22760972857904244  2.2160603914041532 -0.14577548349297445  2.2090621971874498 -0.063182243014671263  2.2075349067927164 0.019734213881065443  2.2113937382993756 0.10257397809582472  2.2208180165637712 0.18493104257423171  2.2362873449594884 0.26634951606866758  2.2586710256803295 0.34625906899139236  2.3045961751401505 0.46266090197638993  2.3219628162465016 0.5008844392468601  2.341552321075024 0.53843093665742658  2.3635573836834736 0.57518632113929014  2.388199235133571 0.61101839260284874  2.4157278232725732 0.64577319362530627  2.4464184391619126 0.67926998492240576  2.4805585570812201 0.71129557952035982  2.5184157063835562 0.74160132545098778  2.6019327832669141 0.79821580194901431  2.6475928001656621 0.82452451003539939  2.6973383246305276 0.84855632462499675  2.7512741319864289 0.87000186211953401  2.8093539819965372 0.88853063344868133  2.8713231560337591 0.90379920202030917  2.9365808242426281 0.91548851019797439  3.0041479755961902 0.92335955119959112  3.0728703130029329 0.92729521793288983  3.1415926535897931 0.92729521800161208 
 3.1415926535897931 11 3.5342917352885102 9 4.221515128261272 9 5.2523502177204193 9 5.7677677624499957 9 6.2831853071795862 11
7 0 0  10 65 8  -3.4971714254748135e-016 -1.2870022175865687  0.067319845962638264 -1.2870022175192495  0.13463970614229454 -1.2855335197170803  0.20107586938951272 -1.2825961813166031  0.26574580584201613 -1.2782266525806336  0.32788029460243706 -1.2724987400488317  0.38695619037971485 -1.2655133606138407  0.44269858005559398 -1.2573829818719333  0.49500880949041937 -1.2482195483232483  0.54391698917587217 -1.2381302532635992  0.67506621484530904 -1.2067452561185816  0.7490284149253057 -1.1833685926412727  0.81215100741974311 -1.1577342124655843  0.86618659082159866 -1.1303906051180093  0.91280650233966298 -1.1017140328767709  0.95326115837087855 -1.071983197791269  0.98863248151610605 -1.0414034018831444  1.0197327539135586 -1.010130552267583  1.0472326274958927 -0.97828495160803841  1.1144244810962536 -0.88939391524831479  1.1477921373361197 -0.83136178146006068  1.1746383711604722 -0.77236995459375068  1.1966146190046856 -0.71268169259456049  1.2147908917922905 -0.65247240454300481  1.2299105331585451 -0.59186374074270132  1.2425025975533572 -0.5309422267335322  1.2529509756655799 -0.46977646193114281  1.2615397085882423 -0.40841897259002424  1.2788774521216806 -0.25465576781270255  1.285559485990234 -0.16206527144527172  1.2892172851861687 -0.069289826049498515  1.2901573372073472 0.023570260917040287  1.2884916041803081 0.11642858398045064  1.2841395905124955 0.20919998109093285  1.2768627796831424 0.3017937752592843  1.26615000433776 0.39409006191999651  1.251170605897 0.48593184555753105  1.2196464351451521 0.62256362227550388  1.2076291428971246 0.66791906402541046  1.1938817419937551 0.7130485727353516  1.1781225911290676 0.75790581743131047  1.1599961249175976 0.80243200226323097  1.1390328584566305 0.84655123934426224  1.1146144240226021 0.8901618532625889  1.0859017861379652 0.93312347779355842  1.0516881356766008 0.97523210549123218  0.98948352882707891 1.0366193967459627  0.96693466947786766 1.0567858928123079  0.94235244428349918 1.0766150602568167  0.91548382738739453 1.0960577630432149  0.88603591563029727 1.1150546913098274  0.85367279751664371 1.133534308824043  0.81801207647468177 1.1514095244985438  0.77862847739703489 1.168573159166947  0.73508283599962843 1.184894005465962  0.63892844617656275 1.2155400051752168  0.5863196508234978 1.2298651730852725  0.52881011624049279 1.2430374422110617  0.46609772905503633 1.2548785324615892  0.39803808803844731 1.2651858488679864  0.32475885837629903 1.2737441205244977  0.24685817169665825 1.2803312185278628  0.16567001255998548 1.2847785363301227  0.082834965921662923 1.2870022175037339  8.4191283238697693e-016 1.287002217586569 
 3.1415926535897931 11 3.337942194439155 9 3.7060975835317089 9 4.3503695144436776 9 5.316777410811631 9 5.7999813589956082 9 6.0415833330875977 9 6.2831853071795862 11
1 0 1.5707963267948966 1 0 
1 6.2831853071795862 -6.2831853071795862 0 1 
1 0 -6.2831853071795862 0 1 
1 0 -1.5707963267948966 1 0 
1 6.2831853071795862 -6.2831853071795862 0 1 
1 0 -6.2831853071795862 0 1 
1 0 -1.5707963267948966 1 0 
1 0 1.5707963267948966 1 0 
1 0 1.5707963267948966 1 0 
1 6.2831853071795862 -6.2831853071795862 0 1 
1 0 -6.2831853071795862 0 1 
1 0 -1.5707963267948966 1 0 
8 0 6.2831853071795862
1 0 20.000000000000039 1 0 
8 0 6.2831853071795862
2 0 0 1 0 -0 1 50.000000000000099
8 0 20.000000000000039
1 6.2831853071795862 0 0 1 
8 0 20.000000000000039
1 0 0 0 1 
8 0 6.2831853071795862
1 0 0 1 0 
8 0 6.2831853071795862
2 0 0 1 0 -0 1 50.000000000000099
8 0 1.570796326794895
2 100.0000000000002 0 -1 0 0 1 100.0000000000002
8 1.570796326794895 3.14159265358979
2 100.0000000000002 0 -1 0 0 1 100.0000000000002
8 3.14159265358979 4.7123889803846852
2 100.0000000000002 0 -1 0 0 1 100.0000000000002
8 4.7123889803846852 6.2831853071795862
2 100.0000000000002 0 -1 0 0 1 100.0000000000002
Curves 39
2 -20 35 1.5099580252808664e-006 -0.99999999999999722 0 7.5497901264043123e-008 7.5497901264043123e-008 0 0.99999999999999722 0 1 0 5.0000000000000098
1 3.7748950632021661e-007 35 5 -0.99999999999999722 0 7.5497901264043123e-008 
2 0 35 0 -0.99999999999999722 0 7.5497901264043123e-008 7.5497901264043123e-008 0 0.99999999999999722 0 1 0 5.0000000000000098
8 1.5707963267948966 7.8539816339744828
2 -39 35 2.9444181492976899e-006 -0.99999999999999722 0 7.5497901264043123e-008 0 -1 0 7.5497901264043123e-008 0 0.99999999999999722 5.0000000000000089
2 -39 35 2.9444181492976899e-006 -0.99999999999999722 0 7.5497901264043123e-008 7.5497901264043123e-008 0 0.99999999999999722 0 1 0 12.000000000000025
1 -18.999998867531481 34.999999999999993 15.000001434460124 -0.89442722476360126 1.0953212211299948e-016 -0.44721352797258096 
2 -19 35 1.4344601240168233e-006 -0.99999999999999722 0 7.5497901264043123e-008 7.5497901264043123e-008 0 0.99999999999999722 0 1 0 15.00000000000003
1 -38.999999094025185 35 12.000002944418149 -0.89442722476360126 1.0953212211299948e-016 -0.44721352797258096 
8 1.5707963267948966 7.8539816339744828
2 -55 35 4.1523845695223835e-006 -0.99999999999999722 0 7.5497901264043123e-008 0 -1 0 7.5497901264043123e-008 0 0.99999999999999722 4.0000000000000071
2 -55 35 4.1523845695223835e-006 -0.99999999999999722 0 7.5497901264043123e-008 7.5497901264043123e-008 0 0.99999999999999722 0 1 0 10.00000000000002
1 -54.999999245020987 35 10.00000415238457 -0.89442722476360126 1.0953212211299948e-016 -0.44721352797258096 
2 -20 -35 1.5099580252808664e-006 -0.99999999999999722 0 7.5497901264043123e-008 7.5497901264043123e-008 0 0.99999999999999722 0 1 0 5.0000000000000098
1 3.7748950632021661e-007 -35 5 -0.99999999999999722 0 7.5497901264043123e-008 
2 0 -35 0 -0.99999999999999722 0 7.5497901264043123e-008 7.5497901264043123e-008 0 0.99999999999999722 0 1 0 5.0000000000000098
8 1.5707963267948966 7.8539816339744828
2 -39 -35 2.9444181492976899e-006 -0.99999999999999722 0 7.5497901264043123e-008 0 -1 0 7.5497901264043123e-008 0 0.99999999999999722 5.0000000000000089
2 -39 -35 2.9444181492976899e-006 -0.99999999999999722 0 7.5497901264043123e-008 7.5497901264043123e-008 0 0.99999999999999722 0 1 0 12.000000000000025
1 -18.999998867531481 -35.000000000000007 15.000001434460124 -0.89442722476360126 1.0953212211299948e-016 -0.44721352797258096 
2 -19 -35 1.4344601240168233e-006 -0.99999999999999722 0 7.5497901264043123e-008 7.5497901264043123e-008 0 0.99999999999999722 0 1 0 15.00000000000003
1 -38.999999094025185 -35 12.000002944418149 -0.89442722476360126 1.0953212211299948e-016 -0.44721352797258096 
8 1.5707963267948966 7.8539816339744828
2 -55 -35 4.1523845695223835e-006 -0.99999999999999722 0 7.5497901264043123e-008 0 -1 0 7.5497901264043123e-008 0 0.99999999999999722 4.0000000000000071
2 -55 -35 4.1523845695223835e-006 -0.99999999999999722 0 7.5497901264043123e-008 7.5497901264043123e-008 0 0.99999999999999722 0 1 0 10.00000000000002
1 -54.999999245020987 -35 10.00000415238457 -0.89442722476360126 1.0953212211299948e-016 -0.44721352797258096 
2 -25 0 0 -2.4492127076447545e-016 -1 0 1 -2.4492127076447545e-016 0 0 0 1 12
8 3.4025382736534806e-016 3.1415926535897927
2 -20.199999999999999 0 0 1 0 0 -0 0 1 0 -1 0 10.998181667894016
2 -25 0 0 -2.4492127076447545e-016 -1 0 1 -2.4492127076447545e-016 0 0 0 1 12
8 3.1415926535897927 6.2831853071795862
2 -20.199999999999999 0 0 1 0 0 -0 0 1 0 -1 0 10.998181667894016
8 7.1435370639638513e-017 3.1415926535897931
2 -32.200000000000003 0 0 1 0 0 -0 0 1 0 -1 0 9.5999999999999996
8 3.1415926535897931 6.2831853071795862
2 -32.200000000000003 0 0 1 0 0 -0 0 1 0 -1 0 9.5999999999999996
2 -10 0 0 -2.4492127076447545e-016 -1 0 1 -2.4492127076447545e-016 0 0 0 1 15
2 -35 0 0 -2.4492127076447545e-016 -1 0 1 -2.4492127076447545e-016 0 0 0 1 10
2 -35 0 0 -2.4492127076447545e-016 -1 0 1 -2.4492127076447545e-016 0 0 0 1 10
2 -35 0 0 -2.4492127076447545e-016 -1 0 1 -2.4492127076447545e-016 0 0 0 1 60
2 20 0 1.5099580252808664e-006 0.99999999999999722 -0 7.5497901264043123e-008 7.5497901264043109e-008 0 -0.99999999999999711 0 1 0 50.000000000000099
1 3.7748950632021665e-006 -1.2246063538223773e-014 -50 0.99999999999999711 0 7.5497901264043109e-008 
2 0 0 0 0.99999999999999722 -0 7.5497901264043123e-008 7.5497901264043109e-008 0 -0.99999999999999711 0 1 0 50.000000000000099
2 -125 0 0 0.99999999999999722 -0 7.5497901264043123e-008 7.5497901264043109e-008 0 -0.99999999999999711 0 1 0 100.0000000000002
2 -125 0 0 0.99999999999999722 -0 7.5497901264043123e-008 7.5497901264043109e-008 0 -0.99999999999999711 0 1 0 100.0000000000002
2 -125 0 0 0.99999999999999722 -0 7.5497901264043123e-008 7.5497901264043109e-008 0 -0.99999999999999711 0 1 0 100.0000000000002
2 -125 0 0 0.99999999999999722 -0 7.5497901264043123e-008 7.5497901264043109e-008 0 -0.99999999999999711 0 1 0 100.0000000000002
Polygon3D 0
PolygonOnTriangulations 0
Surfaces 26
2 0 35 0 -0.99999999999999722 0 7.5497901264043123e-008 7.5497901264043123e-008 0 0.99999999999999722 0 1 0 5.0000000000000098
1 -20 35 1.5099580252808664e-006 -0.99999999999999722 0 7.5497901264043123e-008 7.5497901264043123e-008 0 0.99999999999999722 0 1 0 
1 0 35 0 -0.99999999999999722 0 7.5497901264043123e-008 7.5497901264043123e-008 0 0.99999999999999722 0 1 0 
1 -39 35 2.9444181492976899e-006 -0.99999999999999722 0 7.5497901264043123e-008 7.5497901264043123e-008 0 0.99999999999999722 0 1 0 
3 -19 35 1.4344601240168233e-006 -0.99999999999999722 0 7.5497901264043123e-008 7.5497901264043123e-008 0 0.99999999999999722 0 1 0 15.00000000000003
-0.46364760900080609
3 -39 35 2.9444181492976899e-006 -0.99999999999999722 0 7.5497901264043123e-008 7.5497901264043123e-008 0 0.99999999999999722 0 1 0 12.000000000000025
-0.46364760900080609
1 -19 35 1.4344601240168233e-006 -0.99999999999999722 0 7.5497901264043123e-008 7.5497901264043123e-008 0 0.99999999999999722 0 1 0 
1 -55 35 4.1523845695223835e-006 -0.99999999999999722 0 7.5497901264043123e-008 7.5497901264043123e-008 0 0.99999999999999722 0 1 0 
3 -55 35 4.1523845695223835e-006 -0.99999999999999722 0 7.5497901264043123e-008 7.5497901264043123e-008 0 0.99999999999999722 0 1 0 10.00000000000002
-0.46364760900080609
2 0 -35 0 -0.99999999999999722 0 7.5497901264043123e-008 7.5497901264043123e-008 0 0.99999999999999722 0 1 0 5.0000000000000098
1 -20 -35 1.5099580252808664e-006 -0.99999999999999722 0 7.5497901264043123e-008 7.5497901264043123e-008 0 0.99999999999999722 0 1 0 
1 0 -35 0 -0.99999999999999722 0 7.5497901264043123e-008 7.5497901264043123e-008 0 0.99999999999999722 0 1 0 
1 -39 -35 2.9444181492976899e-006 -0.99999999999999722 0 7.5497901264043123e-008 7.5497901264043123e-008 0 0.99999999999999722 0 1 0 
3 -19 -35 1.4344601240168233e-006 -0.99999999999999722 0 7.5497901264043123e-008 7.5497901264043123e-008 0 0.99999999999999722 0 1 0 15.00000000000003
-0.46364760900080609
3 -39 -35 2.9444181492976899e-006 -0.99999999999999722 0 7.5497901264043123e-008 7.5497901264043123e-008 0 0.99999999999999722 0 1 0 12.000000000000025
-0.46364760900080609
1 -19 -35 1.4344601240168233e-006 -0.99999999999999722 0 7.5497901264043123e-008 7.5497901264043123e-008 0 0.99999999999999722 0 1 0 
1 -55 -35 4.1523845695223835e-006 -0.99999999999999722 0 7.5497901264043123e-008 7.5497901264043123e-008 0 0.99999999999999722 0 1 0 
3 -55 -35 4.1523845695223835e-006 -0.99999999999999722 0 7.5497901264043123e-008 7.5497901264043123e-008 0 0.99999999999999722 0 1 0 10.00000000000002
-0.46364760900080609
4 -25 0 0 0 0 1 1 0 0 0 1 0 12
4 -10 0 0 0 0 1 1 0 0 0 1 0 15
4 -35 0 0 0 0 1 1 0 0 0 1 0 10
4 -35 0 0 0 0 1 1 0 0 0 1 0 60
2 0 0 0 0.99999999999999711 0 7.5497901264043109e-008 7.5497901264043109e-008 0 -0.99999999999999711 0 1 0 50.000000000000099
1 20 0 1.5099580252808664e-006 0.99999999999999711 0 7.5497901264043109e-008 7.5497901264043109e-008 0 -0.99999999999999711 0 1 0 
1 0 0 0 0.99999999999999711 0 7.5497901264043109e-008 7.5497901264043109e-008 0 -0.99999999999999711 0 1 0 
1 -124.99999245020987 0 -100 -0.99999999999999711 0 -7.5497901264043109e-008 -7.5497901264043109e-008 0 0.99999999999999711 0 1 0 
Triangulations 0

TShapes 156
Ve
1e-007
-19.9999996225105 35 5.00000150995803
0 0

0101101
*
Ed
 1e-007 1 1 0
1  1 0 0 6.28318530717959
2  1 1 0 0 6.28318530717959
2  2 2 0 0 6.28318530717959
0

0101100
+156 0 -156 0 *
Ve
1e-007
3.77489506320217e-007 35 5
0 0

0101101
*
Ed
 1e-007 1 1 0
1  2 0 0 20
3  3 4C0 1 0 0 20
0

0101000
-156 0 +154 0 *
Ed
 1e-007 1 1 0
1  3 0 0 6.28318530717959
2  5 1 0 0 6.28318530717959
2  6 3 0 0 6.28318530717959
0

0101100
+154 0 -154 0 *
Wi

0101000
-155 0 +153 0 +152 0 -153 0 *
Fa
0  1e-007 1 0

0101000
+151 0 *
Wi

0101000
+155 0 *
Fa
0  1e-007 2 0

0101000
+149 0 *
Wi

0101000
-152 0 *
Fa
0  1e-007 3 0

0101000
-147 0 *
Sh

0101000
+150 0 +148 0 -146 0 *
So

0100000
+145 0 *
Ve
1e-007
-38.9999996225105 35 5.00000294441815
0 0

0101101
*
Ed
 1e-007 1 1 0
1  4 0 1.5707963267949 7.85398163397448
2  7 4 0 1.5707963267949 7.85398163397448
2  8 5 0 1.5707963267949 7.85398163397448
0

0101100
+143 0 -143 0 *
Wi

0101000
-142 0 *
Ve
1e-007
-38.9999990940252 35 12.0000029444181
0 0

0101101
*
Ed
 1e-007 1 1 0
1  5 0 0 6.28318530717959
2  9 4 0 0 6.28318530717959
2  10 6 0 0 6.28318530717959
0

0101100
+140 0 -140 0 *
Wi

0101000
-139 0 *
Fa
0  1e-007 4 0

0101000
+141 0 -138 0 *
Ve
1e-007
-18.9999988675315 35 15.0000014344601
0 0

0101101
*
Ed
 1e-007 1 1 0
1  6 0 0 22.3606797749979
3  11 12C0 5 0 0 22.3606797749979
0

0101000
+136 0 -143 0 *
Ed
 1e-007 1 1 0
1  7 0 0 6.28318530717959
2  13 5 0 0 6.28318530717959
2  14 7 0 0 6.28318530717959
0

0101100
+136 0 -136 0 *
Wi

0101000
+135 0 +134 0 -142 0 -135 0 *
Fa
0  1e-007 5 0

0101000
+133 0 *
Ve
1e-007
-54.9999996980084 35 4.00000415238457
0 0

0101101
*
Ed
 1e-007 1 1 0
1  8 0 0 17.8885438199984
3  15 16C0 6 0 0 17.8885438199984
0

0101000
+140 0 -131 0 *
Ed
 1e-007 1 1 0
1  9 0 1.5707963267949 7.85398163397448
2  17 6 0 1.5707963267949 7.85398163397448
2  18 8 0 1.5707963267949 7.85398163397448
0

0101100
+131 0 -131 0 *
Wi

0101000
+130 0 +139 0 -129 0 -130 0 *
Fa
0  1e-007 6 0

0101000
+128 0 *
Wi

0101000
-134 0 *
Fa
0  1e-007 7 0

0101000
-126 0 *
Wi

0101000
-129 0 *
Ve
1e-007
-54.999999245021 35 10.0000041523846
0 0

0101101
*
Ed
 1e-007 1 1 0
1  10 0 0 6.28318530717959
2  19 8 0 0 6.28318530717959
2  20 9 0 0 6.28318530717959
0

0101100
+123 0 -123 0 *
Wi

0101000
-122 0 *
Fa
0  1e-007 8 0

0101000
+124 0 -121 0 *
Ve
1e-007
-75 35 5.66234259302689e-006
0 0

0101101
*
Ed
 1e-007 1 1 1
2  21 9 0 0 6.28318530717959
0

0101100
+119 0 -119 0 *
Ed
 1e-007 1 1 0
1  11 0 0 22.3606797749979
3  22 23C0 9 0 0 22.3606797749979
0

0101000
-119 0 +123 0 *
Wi

0101000
-118 0 +117 0 +122 0 -117 0 *
Fa
0  1e-007 9 0

0101000
+116 0 *
Sh

0101000
-137 0 +132 0 +127 0 -125 0 -120 0 +115 0 *
So

0100000
+114 0 *
Ve
1e-007
-19.9999996225105 -35 5.00000150995803
0 0

0101101
*
Ed
 1e-007 1 1 0
1  12 0 0 6.28318530717959
2  24 10 0 0 6.28318530717959
2  25 11 0 0 6.28318530717959
0

0101100
+112 0 -112 0 *
Ve
1e-007
3.77489506320217e-007 -35 5
0 0

0101101
*
Ed
 1e-007 1 1 0
1  13 0 0 20
3  26 27C0 10 0 0 20
0

0101000
-112 0 +110 0 *
Ed
 1e-007 1 1 0
1  14 0 0 6.28318530717959
2  28 10 0 0 6.28318530717959
2  29 12 0 0 6.28318530717959
0

0101100
+110 0 -110 0 *
Wi

0101000
-111 0 +109 0 +108 0 -109 0 *
Fa
0  1e-007 10 0

0101000
+107 0 *
Wi

0101000
+111 0 *
Fa
0  1e-007 11 0

0101000
+105 0 *
Wi

0101000
-108 0 *
Fa
0  1e-007 12 0

0101000
-103 0 *
Sh

0101000
+106 0 +104 0 -102 0 *
So

0100000
+101 0 *
Ve
1e-007
-38.9999996225105 -35 5.00000294441815
0 0

0101101
*
Ed
 1e-007 1 1 0
1  15 0 1.5707963267949 7.85398163397448
2  30 13 0 1.5707963267949 7.85398163397448
2  31 14 0 1.5707963267949 7.85398163397448
0

0101100
+99 0 -99 0 *
Wi

0101000
-98 0 *
Ve
1e-007
-38.9999990940252 -35 12.0000029444181
0 0

0101101
*
Ed
 1e-007 1 1 0
1  16 0 0 6.28318530717959
2  32 13 0 0 6.28318530717959
2  33 15 0 0 6.28318530717959
0

0101100
+96 0 -96 0 *
Wi

0101000
-95 0 *
Fa
0  1e-007 13 0

0101000
+97 0 -94 0 *
Ve
1e-007
-18.9999988675315 -35 15.0000014344601
0 0

0101101
*
Ed
 1e-007 1 1 0
1  17 0 0 22.3606797749979
3  34 35C0 14 0 0 22.3606797749979
0

0101000
+92 0 -99 0 *
Ed
 1e-007 1 1 0
1  18 0 0 6.28318530717959
2  36 14 0 0 6.28318530717959
2  37 16 0 0 6.28318530717959
0

0101100
+92 0 -92 0 *
Wi

0101000
+91 0 +90 0 -98 0 -91 0 *
Fa
0  1e-007 14 0

0101000
+89 0 *
Ve
1e-007
-54.9999996980084 -35 4.00000415238457
0 0

0101101
*
Ed
 1e-007 1 1 0
1  19 0 0 17.8885438199984
3  38 39C0 15 0 0 17.8885438199984
0

0101000
+96 0 -87 0 *
Ed
 1e-007 1 1 0
1  20 0 1.5707963267949 7.85398163397448
2  40 15 0 1.5707963267949 7.85398163397448
2  41 17 0 1.5707963267949 7.85398163397448
0

0101100
+87 0 -87 0 *
Wi

0101000
+86 0 +95 0 -85 0 -86 0 *
Fa
0  1e-007 15 0

0101000
+84 0 *
Wi

0101000
-90 0 *
Fa
0  1e-007 16 0

0101000
-82 0 *
Wi

0101000
-85 0 *
Ve
1e-007
-54.999999245021 -35 10.0000041523846
0 0

0101101
*
Ed
 1e-007 1 1 0
1  21 0 0 6.28318530717959
2  42 17 0 0 6.28318530717959
2  43 18 0 0 6.28318530717959
0

0101100
+79 0 -79 0 *
Wi

0101000
-78 0 *
Fa
0  1e-007 17 0

0101000
+80 0 -77 0 *
Ve
1e-007
-75 -35 5.66234259302689e-006
0 0

0101101
*
Ed
 1e-007 1 1 1
2  44 18 0 0 6.28318530717959
0

0101100
+75 0 -75 0 *
Ed
 1e-007 1 1 0
1  22 0 0 22.3606797749979
3  45 46C0 18 0 0 22.3606797749979
0

0101000
-75 0 +79 0 *
Wi

0101000
-74 0 +73 0 +78 0 -73 0 *
Fa
0  1e-007 18 0

0101000
+72 0 *
Sh

0101000
-93 0 +88 0 +83 0 -81 0 -76 0 +71 0 *
So

0100000
+70 0 *
Ve
1e-007
-25 -1.79959286618656e-031 -12
0 0

0101101
*
Ve
1e-007
-20.2 -1.17562209966948e-015 -10.998181667894
0 0

0101101
*
Ed
 1e-007 1 1 0
1  23 0 4.71238898038469 5.12390582645218
3  47 48C0 19 0 4.71238898038469 5.12390582645218
0

0101000
+68 0 -67 0 *
Ed
 1e-007 1 1 1
2  49 19 0 0 6.28318530717959
0

0101100
+68 0 -68 0 *
Ve
1e-007
-20.2 -1.17562209966948e-015 10.998181667894
0 0

0101101
*
Ed
 1e-007 1 1 0
1  24 0 3.40253827365348e-016 3.14159265358979
2  50 19 0 3.40253827365348e-016 3.14159265358979
2  51 20 0 3.40253827365348e-016 3.14159265358979
0

0101000
+64 0 -67 0 *
Ve
1e-007
-25 -1.79959286618656e-031 12
0 0

0101101
*
Ed
 1e-007 1 1 0
1  25 0 7.44246478790699 7.85398163397448
3  47 48C0 19 0 7.44246478790699 7.85398163397448
0

0101000
+64 0 -62 0 *
Ed
 1e-007 1 1 0
1  26 0 3.14159265358979 6.28318530717959
2  52 19 0 3.14159265358979 6.28318530717959
2  53 20 0 3.14159265358979 6.28318530717959
0

0101000
+67 0 -64 0 *
Ed
 1e-007 1 1 1
2  54 19 0 0 6.28318530717959
0

0101100
+62 0 -62 0 *
Wi

0101000
+66 0 +65 0 -63 0 -66 0 +61 0 -60 0 -59 0 -61 0 *
Ve
1e-007
-32.2 -6.8577955814053e-016 9.6
0 0

0101101
*
Ve
1e-007
-32.2 -6.8577955814053e-016 -9.6
0 0

0101101
*
Ed
 1e-007 1 1 0
1  27 0 7.14353706396385e-017 3.14159265358979
2  55 19 0 7.14353706396385e-017 3.14159265358979
2  56 21 0 7.14353706396385e-017 3.14159265358979
0

0101000
+57 0 -56 0 *
Ed
 1e-007 1 1 0
1  28 0 3.14159265358979 6.28318530717959
2  57 19 0 3.14159265358979 6.28318530717959
2  58 21 0 3.14159265358979 6.28318530717959
0

0101000
+56 0 -57 0 *
Wi

0101000
+55 0 +54 0 *
Fa
0  1e-007 19 0

0101000
+58 0 +53 0 *
Wi

0101000
+63 0 +60 0 *
Ve
1e-007
-10 -2.24949108273321e-031 15
0 0

0101101
*
Ed
 1e-007 1 1 1
2  59 20 0 0 6.28318530717959
0

0101100
+50 0 -50 0 *
Ve
1e-007
-10 -2.24949108273321e-031 -15
0 0

0101101
*
Ed
 1e-007 1 1 0
1  29 0 4.71238898038469 7.85398163397448
3  60 61C0 20 0 4.71238898038469 7.85398163397448
0

0101000
-50 0 +48 0 *
Ed
 1e-007 1 1 1
2  62 20 0 0 6.28318530717959
0

0101100
+48 0 -48 0 *
Wi

0101000
-49 0 +47 0 +46 0 -47 0 *
Fa
0  1e-007 20 0

0101000
+51 0 +45 0 *
Ve
1e-007
-35 -1.49966072182214e-031 -10
0 0

0101101
*
Ed
 1e-007 1 1 0
1  30 0 4.71238898038469 4.99618308959302
3  63 64C0 21 0 4.71238898038469 4.99618308959302
0

0101000
+43 0 -56 0 *
Ed
 1e-007 1 1 1
2  65 21 0 0 6.28318530717959
0

0101100
+43 0 -43 0 *
Ve
1e-007
-35 -1.49966072182214e-031 10
0 0

0101101
*
Ed
 1e-007 1 1 0
1  31 0 7.57018752476616 7.85398163397448
3  63 64C0 21 0 7.57018752476616 7.85398163397448
0

0101000
+57 0 -40 0 *
Ed
 1e-007 1 1 1
2  66 21 0 0 6.28318530717959
0

0101100
+40 0 -40 0 *
Wi

0101000
+42 0 +41 0 -55 0 -42 0 +39 0 -54 0 -38 0 -39 0 *
Fa
0  1e-007 21 0

0101000
+37 0 *
Sh

0101000
+52 0 +44 0 +36 0 *
So

0100000
+35 0 *
Ve
1e-007
-35 -8.99796433093282e-031 60
0 0

0101101
*
Ed
 1e-007 1 1 1
2  67 22 0 0 6.28318530717959
0

0101100
+33 0 -33 0 *
Ve
1e-007
-35 -8.99796433093282e-031 -60
0 0

0101101
*
Ed
 1e-007 1 1 0
1  32 0 4.71238898038469 7.85398163397448
3  68 69CN 22 0 4.71238898038469 7.85398163397448
0

0101000
-33 0 +31 0 *
Ed
 1e-007 1 1 1
2  70 22 0 0 6.28318530717959
0

0101100
+31 0 -31 0 *
Wi

0101000
-32 0 +30 0 +29 0 -30 0 *
Fa
0  1e-007 22 0

0101000
+28 0 *
Sh

0101100
+27 0 *
So

0100100
+26 0 *
Ve
1e-007
20.0000037748951 -1.22460635382238e-014 -49.999998490042
0 0

0101101
*
Ed
 1e-007 1 1 0
1  33 0 0 6.28318530717959
2  71 23 0 0 6.28318530717959
2  72 24 0 0 6.28318530717959
0

0101100
+24 0 -24 0 *
Ve
1e-007
3.77489506320217e-006 -1.22460635382238e-014 -50
0 0

0101101
*
Ed
 1e-007 1 1 0
1  34 0 0 20
3  73 74CN 23 0 0 20
0

0101000
-24 0 +22 0 *
Ed
 1e-007 1 1 0
1  35 0 0 6.28318530717959
2  75 23 0 0 6.28318530717959
2  76 25 0 0 6.28318530717959
0

0101100
+22 0 -22 0 *
Wi

0101000
-23 0 +21 0 +20 0 -21 0 *
Fa
0  1e-007 23 0

0101000
+19 0 *
Wi

0101000
+23 0 *
Fa
0  1e-007 24 0

0101000
+17 0 *
Wi

0101000
-20 0 *
Fa
0  1e-007 25 0

0101000
-15 0 *
Sh

0101100
+18 0 +16 0 -14 0 *
So

0100100
+13 0 *
Ve
1.00000012246064e-007
-124.99999245021 -1.22460635382238e-014 -100
0 0

0101101
*
Ve
1e-007
-125 100 -1.61554255216634e-013
0 0

0101101
*
Ed
 1e-007 1 1 0
1  36 0 0 1.5707963267949
2  77 26 0 0 1.5707963267949
0

0101000
+11 0 -10 0 *
Ve
1e-007
-125.00000754979 3.23108510433268e-013 100
0 0

0101101
*
Ed
 1e-007 1 1 0
1  37 0 1.5707963267949 3.14159265358979
2  78 26 0 1.5707963267949 3.14159265358979
0

0101000
+10 0 -8 0 *
Ve
1e-007
-125 -100 4.62458305157398e-013
0 0

0101101
*
Ed
 1e-007 1 1 0
1  38 0 3.14159265358979 4.71238898038469
2  79 26 0 3.14159265358979 4.71238898038469
0

0101000
+8 0 -6 0 *
Ed
 1.00000012246064e-007 1 1 0
1  39 0 4.71238898038469 6.28318530717959
2  80 26 0 4.71238898038469 6.28318530717959
0

0101000
+6 0 -11 0 *
Wi

0101100
+9 0 +7 0 +5 0 +4 0 *
Fa
0  1e-007 26 0

0101000
-3 0 *
Co

1100000
+144 0 +113 0 +100 0 +69 0 +34 0 +25 0 +12 0 +2 0 *

+1 0 