DBRep_DrawableShape

CASCADE Topology V1, (c) Matra-Datavision
Locations 0
Curve2ds 60
1 0 1.5707963267948966 1 0 
1 6.2831853071795862 -6.2831853071795862 0 1 
1 0 -6.2831853071795862 0 1 
1 0 -1.5707963267948966 1 0 
1 0 0 1 0 
1 0 0 1 0 
1 12 0 0 -1 
1 0 0 0 1 
1 0 -12 1 0 
1 0 0 1 0 
1 0 0 0 -1 
1 0 0 0 1 
1 0 0 1 0 
1 0 30 1 0 
1 12 0 0 -1 
1 30 0 0 1 
1 0 -12 1 0 
1 0 30 1 0 
1 0 0 0 -1 
1 30 0 0 1 
1 0 0 0 1 
1 0 0 1 0 
1 12 0 0 1 
1 0 0 1 0 
1 0 0 0 1 
1 0 12 1 0 
1 12 0 0 1 
1 0 12 1 0 
8 0 1.570796326794895
2 1.5000000000000029 0 -1 0 0 1 1.5000000000000029
8 1.570796326794895 3.14159265358979
2 1.5000000000000029 0 -1 0 0 1 1.5000000000000029
8 3.14159265358979 4.7123889803846852
2 1.5000000000000029 0 -1 0 0 1 1.5000000000000029
8 4.7123889803846852 6.2831853071795862
2 1.5000000000000029 0 -1 0 0 1 1.5000000000000029
1 0 0 1 0 
1 0 0 1 0 
1 100 0 0 -1 
1 0 0 0 1 
1 0 -100 1 0 
1 0 0 1 0 
1 0 0 0 -1 
1 0 0 0 1 
1 0 0 1 0 
1 0 100 1 0 
1 100 0 0 -1 
1 100 0 0 1 
1 0 -100 1 0 
1 0 100 1 0 
1 0 0 0 -1 
1 100 0 0 1 
1 0 0 0 1 
1 0 0 1 0 
1 100 0 0 1 
1 0 0 1 0 
1 0 0 0 1 
1 0 100 1 0 
1 100 0 0 1 
1 0 100 1 0 
8 0 6.2831853071795862
1 0 0 1 0 
8 0 6.2831853071795862
1 0 6.2831853071795862 1 0 
8 0 6.2831853071795862
1 6.2831853071795862 -0 0 1 
8 0 6.2831853071795862
1 0 -0 0 1 
Curves 31
2 10 0 0 -2.4492935982947064e-016 -1 0 1 -2.4492935982947064e-016 0 0 0 1 5
1 -10 -6 -6 0 0 1 
1 -10 -6 6 0 1 0 
1 -10 6 -6 0 0 1 
1 -10 -6 -6 0 1 0 
1 20 -6 -6 0 0 1 
1 20 -6 6 0 1 0 
1 20 6 -6 0 0 1 
1 20 -6 -6 0 1 0 
1 -10 -6 -6 1 0 0 
1 -10 -6 6 1 0 0 
1 -10 6 -6 1 0 0 
1 -10 6 6 1 0 0 
2 -10 0 0 0.99999999999999722 -0 7.54979036325189e-008 7.54979036325189e-008 0 -0.99999999999999722 0 1 0 1.5000000000000029
2 -10 0 0 0.99999999999999722 -0 7.54979036325189e-008 7.54979036325189e-008 0 -0.99999999999999722 0 1 0 1.5000000000000029
2 -10 0 0 0.99999999999999722 -0 7.54979036325189e-008 7.54979036325189e-008 0 -0.99999999999999722 0 1 0 1.5000000000000029
2 -10 0 0 0.99999999999999722 -0 7.54979036325189e-008 7.54979036325189e-008 0 -0.99999999999999722 0 1 0 1.5000000000000029
1 -50 -10 -50 0 0 1 
1 -50 -10 50 0 1 0 
1 -50 90 -50 0 0 1 
1 -50 -10 -50 0 1 0 
1 50 -10 -50 0 0 1 
1 50 -10 50 0 1 0 
1 50 90 -50 0 0 1 
1 50 -10 -50 0 1 0 
1 -50 -10 -50 1 0 0 
1 -50 -10 50 1 0 0 
1 -50 90 -50 1 0 0 
1 -50 90 50 1 0 0 
2 -9.7971743931788257e-016 0 -7.396661050028286e-023 0.99999999999999722 -0 7.5497901264043123e-008 7.5497901264043109e-008 0 -0.99999999999999711 0 1 0 9.0000000000000178
2 3.7748950632021661e-007 -1.2246467991473533e-015 -5 -1.8491652625070612e-023 -1 2.4492935982946931e-016 7.5497901264043109e-008 -2.4492935982946995e-016 -0.99999999999999711 0.99999999999999711 0 7.5497901264043109e-008 4.000000000000008
Polygon3D 0
PolygonOnTriangulations 0
Surfaces 15
4 10 0 0 0 0 1 1 0 0 0 1 0 5
1 -10 -6 -6 1 0 0 0 0 1 0 -1 0 
1 -10 -6 -6 0 1 0 0 0 1 1 0 0 
1 -10 -6 6 0 0 1 1 0 0 0 1 0 
1 -10 6 -6 0 1 0 0 0 1 1 0 0 
1 -10 -6 -6 0 0 1 1 0 0 0 1 0 
1 20 -6 -6 1 0 0 0 0 1 0 -1 0 
1 -9.9999998867531446 0 -1.5 -0.99999999999999722 0 -7.54979036325189e-008 -7.54979036325189e-008 0 0.99999999999999722 0 1 0 
1 -50 -10 -50 1 0 0 0 0 1 0 -1 0 
1 -50 -10 -50 0 1 0 0 0 1 1 0 0 
1 -50 -10 50 0 0 1 1 0 0 0 1 0 
1 -50 90 -50 0 1 0 0 0 1 1 0 0 
1 -50 -10 -50 0 0 1 1 0 0 0 1 0 
1 50 -10 -50 1 0 0 0 0 1 0 -1 0 
5 0 0 0 0.99999999999999711 0 7.5497901264043109e-008 7.5497901264043109e-008 0 -0.99999999999999711 0 1 0 5.0000000000000098 4.000000000000008
Triangulations 0

TShapes 95
Ve
1e-007
10 -7.49879891330929e-032 5
0 0

0101101
*
Ed
 1e-007 1 1 1
2  1 1 0 0 6.28318530717959
0

0101100
+95 0 -95 0 *
Ve
1e-007
10 -7.49879891330929e-032 -5
0 0

0101101
*
Ed
 1e-007 1 1 0
1  1 0 4.71238898038469 7.85398163397448
3  2 3CN 1 0 4.71238898038469 7.85398163397448
0

0101000
-95 0 +93 0 *
Ed
 1e-007 1 1 1
2  4 1 0 0 6.28318530717959
0

0101100
+93 0 -93 0 *
Wi

0101000
-94 0 +92 0 +91 0 -92 0 *
Fa
0  1e-007 1 0

0101000
+90 0 *
Sh

0101100
+89 0 *
So

0100100
+88 0 *
Ve
1e-007
-10 -6 6
0 0

0101101
*
Ve
1e-007
-10 -6 -6
0 0

0101101
*
Ed
 1e-007 1 1 0
1  2 0 0 12
2  5 2 0 0 12
2  6 3 0 0 12
0

0101000
-86 0 +85 0 *
Ve
1e-007
-10 6 6
0 0

0101101
*
Ed
 1e-007 1 1 0
1  3 0 0 12
2  7 2 0 0 12
2  8 4 0 0 12
0

0101000
-83 0 +86 0 *
Ve
1e-007
-10 6 -6
0 0

0101101
*
Ed
 1e-007 1 1 0
1  4 0 0 12
2  9 2 0 0 12
2  10 5 0 0 12
0

0101000
-83 0 +81 0 *
Ed
 1e-007 1 1 0
1  5 0 0 12
2  11 2 0 0 12
2  12 6 0 0 12
0

0101000
-81 0 +85 0 *
Wi

0101000
-84 0 -82 0 +80 0 +79 0 *
Fa
0  1e-007 2 0

0101000
+78 0 *
Ve
1e-007
20 -6 6
0 0

0101101
*
Ve
1e-007
20 -6 -6
0 0

0101101
*
Ed
 1e-007 1 1 0
1  6 0 0 12
2  13 7 0 0 12
2  14 3 0 0 12
0

0101000
-76 0 +75 0 *
Ve
1e-007
20 6 6
0 0

0101101
*
Ed
 1e-007 1 1 0
1  7 0 0 12
2  15 7 0 0 12
2  16 4 0 0 12
0

0101000
-73 0 +76 0 *
Ve
1e-007
20 6 -6
0 0

0101101
*
Ed
 1e-007 1 1 0
1  8 0 0 12
2  17 7 0 0 12
2  18 5 0 0 12
0

0101000
-73 0 +71 0 *
Ed
 1e-007 1 1 0
1  9 0 0 12
2  19 7 0 0 12
2  20 6 0 0 12
0

0101000
-71 0 +75 0 *
Wi

0101000
-74 0 -72 0 +70 0 +69 0 *
Fa
0  1e-007 7 0

0101000
+68 0 *
Ed
 1e-007 1 1 0
1  10 0 0 30
2  21 3 0 0 30
2  22 6 0 0 30
0

0101000
-75 0 +85 0 *
Ed
 1e-007 1 1 0
1  11 0 0 30
2  23 3 0 0 30
2  24 4 0 0 30
0

0101000
-76 0 +86 0 *
Wi

0101000
-66 0 -74 0 +65 0 +84 0 *
Fa
0  1e-007 3 0

0101000
+64 0 *
Ed
 1e-007 1 1 0
1  12 0 0 30
2  25 5 0 0 30
2  26 6 0 0 30
0

0101000
-71 0 +81 0 *
Ed
 1e-007 1 1 0
1  13 0 0 30
2  27 5 0 0 30
2  28 4 0 0 30
0

0101000
-73 0 +83 0 *
Wi

0101000
-62 0 -70 0 +61 0 +80 0 *
Fa
0  1e-007 5 0

0101000
+60 0 *
Wi

0101000
-79 0 -62 0 +69 0 +66 0 *
Fa
0  1e-007 6 0

0101000
+58 0 *
Wi

0101000
-82 0 -61 0 +72 0 +65 0 *
Fa
0  1e-007 4 0

0101000
+56 0 *
Sh

0101100
-77 0 +67 0 -63 0 +59 0 -57 0 +55 0 *
So

0100000
+54 0 *
Ve
1e-007
-9.99999988675314 -1.83697021782598e-016 -1.5
0 0

0101101
*
Ve
1e-007
-10 1.5 -2.42331686164888e-015
0 0

0101101
*
Ed
 7.50000000000002e-008 1 1 0
1  14 0 0 1.5707963267949
2  29 8 0 0 1.5707963267949
0

0101000
+52 0 -51 0 *
Ve
1e-007
-10.0000001132469 4.84663372329776e-015 1.5
0 0

0101101
*
Ed
 7.50000000000002e-008 1 1 0
1  15 0 1.5707963267949 3.14159265358979
2  30 8 0 1.5707963267949 3.14159265358979
0

0101000
+51 0 -49 0 *
Ve
1e-007
-10 -1.5 6.93688367755909e-015
0 0

0101101
*
Ed
 7.50000000000002e-008 1 1 0
1  16 0 3.14159265358979 4.71238898038469
2  31 8 0 3.14159265358979 4.71238898038469
0

0101000
+49 0 -47 0 *
Ed
 7.50000001836972e-008 1 1 0
1  17 0 4.71238898038469 6.28318530717959
2  32 8 0 4.71238898038469 6.28318530717959
0

0101000
+47 0 -52 0 *
Wi

0101100
+50 0 +48 0 +46 0 +45 0 *
Fa
0  7.50000000000001e-008 8 0

0101000
-44 0 *
Ve
1e-007
-50 -10 50
0 0

0101101
*
Ve
1e-007
-50 -10 -50
0 0

0101101
*
Ed
 1e-007 1 1 0
1  18 0 0 100
2  33 9 0 0 100
2  34 10 0 0 100
0

0101000
-42 0 +41 0 *
Ve
1e-007
-50 90 50
0 0

0101101
*
Ed
 1e-007 1 1 0
1  19 0 0 100
2  35 9 0 0 100
2  36 11 0 0 100
0

0101000
-39 0 +42 0 *
Ve
1e-007
-50 90 -50
0 0

0101101
*
Ed
 1e-007 1 1 0
1  20 0 0 100
2  37 9 0 0 100
2  38 12 0 0 100
0

0101000
-39 0 +37 0 *
Ed
 1e-007 1 1 0
1  21 0 0 100
2  39 9 0 0 100
2  40 13 0 0 100
0

0101000
-37 0 +41 0 *
Wi

0101000
-40 0 -38 0 +36 0 +35 0 *
Fa
0  1e-007 9 0

0101000
+34 0 *
Ve
1e-007
50 -10 50
0 0

0101101
*
Ve
1e-007
50 -10 -50
0 0

0101101
*
Ed
 1e-007 1 1 0
1  22 0 0 100
2  41 14 0 0 100
2  42 10 0 0 100
0

0101000
-32 0 +31 0 *
Ve
1e-007
50 90 50
0 0

0101101
*
Ed
 1e-007 1 1 0
1  23 0 0 100
2  43 14 0 0 100
2  44 11 0 0 100
0

0101000
-29 0 +32 0 *
Ve
1e-007
50 90 -50
0 0

0101101
*
Ed
 1e-007 1 1 0
1  24 0 0 100
2  45 14 0 0 100
2  46 12 0 0 100
0

0101000
-29 0 +27 0 *
Ed
 1e-007 1 1 0
1  25 0 0 100
2  47 14 0 0 100
2  48 13 0 0 100
0

0101000
-27 0 +31 0 *
Wi

0101000
-30 0 -28 0 +26 0 +25 0 *
Fa
0  1e-007 14 0

0101000
+24 0 *
Ed
 1e-007 1 1 0
1  26 0 0 100
2  49 10 0 0 100
2  50 13 0 0 100
0

0101000
-31 0 +41 0 *
Ed
 1e-007 1 1 0
1  27 0 0 100
2  51 10 0 0 100
2  52 11 0 0 100
0

0101000
-32 0 +42 0 *
Wi

0101000
-22 0 -30 0 +21 0 +40 0 *
Fa
0  1e-007 10 0

0101000
+20 0 *
Ed
 1e-007 1 1 0
1  28 0 0 100
2  53 12 0 0 100
2  54 13 0 0 100
0

0101000
-27 0 +37 0 *
Ed
 1e-007 1 1 0
1  29 0 0 100
2  55 12 0 0 100
2  56 11 0 0 100
0

0101000
-29 0 +39 0 *
Wi

0101000
-18 0 -26 0 +17 0 +36 0 *
Fa
0  1e-007 12 0

0101000
+16 0 *
Wi

0101000
-35 0 -18 0 +25 0 +22 0 *
Fa
0  1e-007 13 0

0101000
+14 0 *
Wi

0101000
-38 0 -17 0 +28 0 +21 0 *
Fa
0  1e-007 11 0

0101000
+12 0 *
Sh

0101100
-33 0 +23 0 -19 0 +15 0 -13 0 +11 0 *
So

0100000
+10 0 *
Ve
1e-007
6.79481110396673e-007 -2.20436423846524e-015 -9
0 0

0101101
*
Ed
 1e-007 1 1 0
1  30 0 0 6.28318530717959
3  57 58CN 15 0 0 6.28318530717959
0

0101000
+8 0 -8 0 *
Ed
 1e-007 1 1 0
1  31 0 0 6.28318530717959
3  59 60CN 15 0 0 6.28318530717959
0

0101000
+8 0 -8 0 *
Wi

0101000
-7 0 +6 0 +7 0 -6 0 *
Fa
0  1e-007 15 0

0101000
+5 0 *
Sh

0101100
+4 0 *
So

0100100
+3 0 *
Co

1100000
+87 0 +53 0 +43 0 +9 0 +2 0 *

+1 0 